<?xml version="1.0" standalone="no"?>
<!DOCTYPE svg PUBLIC "-//W3C//DTD SVG 1.1//EN" "http://www.w3.org/Graphics/SVG/1.1/DTD/svg11.dtd" >
<svg xmlns="http://www.w3.org/2000/svg">
<metadata></metadata>
<defs>
<font id="futurademicregular" horiz-adv-x="1395" >
<font-face units-per-em="2048" ascent="1536" descent="-512" />
<missing-glyph horiz-adv-x="572" />
<glyph unicode=" "  horiz-adv-x="572" />
<glyph unicode="&#x09;" horiz-adv-x="572" />
<glyph unicode="&#xa0;" horiz-adv-x="572" />
<glyph unicode="!" horiz-adv-x="619" d="M118 160q0 81 55.5 136.5t136.5 55.5t136.5 -55.5t55.5 -136.5t-55.5 -136.5t-136.5 -55.5t-136.5 55.5t-55.5 136.5zM157 499v1140h305v-1140h-305z" />
<glyph unicode="&#x22;" horiz-adv-x="982" d="M103 1639h335l-58 -659h-220zM546 1639h334l-57 -659h-221z" />
<glyph unicode="#" horiz-adv-x="1473" d="M24 457l42 256h251l39 248h-250l42 256h250l69 422h300l-69 -422h231l68 422h300l-68 -422h251l-42 -256h-251l-40 -248h251l-42 -256h-250l-74 -457h-300l74 457h-231l-73 -457h-300l73 457h-251zM617 713h231l39 248h-231z" />
<glyph unicode="$" d="M118 293l184 188q27 -40 60 -75t78 -68.5t103.5 -53t122.5 -19.5q112 0 180 56.5t68 159.5q0 34 -8.5 60t-32.5 54t-69.5 56t-115.5 59q-11 5 -44 19t-44 19t-39.5 18t-41 20t-36.5 19.5t-38 23t-33.5 24t-35.5 28.5t-32 31q-105 113 -105 287q0 18 2.5 39.5t9.5 58 t24 73t42 75.5t67.5 76t96.5 64q78 40 168 49v237h153v-237q106 -7 202.5 -54.5t175.5 -129.5l-162 -207q-16 20 -36 39.5t-52.5 42.5t-77 37t-92.5 14q-52 0 -93.5 -15t-67.5 -40t-39.5 -56t-13.5 -64q0 -20 4.5 -37.5t15 -33t21 -28t29.5 -25t32.5 -21t39 -20t39.5 -17.5 t42.5 -17t41.5 -17q6 -2 42.5 -18t52 -23t50.5 -24t56.5 -30.5t48.5 -32.5t48 -39q125 -116 125 -304q0 -193 -117 -333t-315 -176v-249h-153v244q-216 12 -386 140q-90 69 -145 153z" />
<glyph unicode="%" horiz-adv-x="1902" d="M73 1270.5q0 83.5 29 155t82 123t131 80.5t172 29t172 -29t130.5 -80.5t81.5 -123t29 -155t-29 -155t-81.5 -123t-130.5 -81t-172 -29.5t-172 29.5t-131 81t-82 123t-29 155zM280 1271q0 -92 58.5 -151.5t148.5 -59.5t148.5 59.5t58.5 151.5t-58.5 151.5t-148.5 59.5 t-148.5 -59.5t-58.5 -151.5zM398 7l976 1686l130 -73l-976 -1688zM1003 363.5q0 83.5 29 155t81.5 123.5t130.5 81t172 29t172 -29t130.5 -81t81.5 -123.5t29 -155t-29 -154.5t-81.5 -123t-130.5 -81t-172 -29t-172 29t-130.5 81t-81.5 123t-29 154.5zM1210 364 q0 -61 26 -109t73.5 -75.5t106.5 -27.5q90 0 148 60t58 151.5t-58 151.5t-148 60t-148 -60t-58 -151z" />
<glyph unicode="&#x26;" horiz-adv-x="1744" d="M127 432q0 69 21.5 132.5t50 106t69 82t67 58.5t56.5 37l127 76q-20 20 -39 42t-42.5 57.5t-41 71t-29.5 82t-12 91.5q0 63 17.5 121.5t54.5 110.5t89.5 91.5t127.5 62t163 22.5q104 0 189 -32.5t139 -87.5t83 -124.5t29 -146.5q0 -46 -12 -92t-38 -93.5t-72 -93.5 t-109 -84l-69 -42l271 -310q130 127 204 227l186 -185q-46 -58 -81 -97.5t-49 -54.5t-47 -47l-37 -37l333 -376h-396l-160 185q-29 -26 -59.5 -50t-84 -57.5t-108 -57t-128.5 -40.5t-148 -17q-98 0 -182.5 26t-144.5 71t-103 105t-64 127.5t-21 139.5zM448 460 q0 -61 31 -110.5t86 -77.5t123 -28q61 0 125 25.5t104 55t73 61.5l-310 356q-232 -124 -232 -282zM654 1292q0 -72 68 -154l72 -89l74 53q112 77 112 181q0 31 -9.5 59.5t-28.5 51.5t-50 37t-71 14q-81 0 -124 -46t-43 -107z" />
<glyph unicode="'" horiz-adv-x="540" d="M103 1639h335l-58 -659h-220z" />
<glyph unicode="(" horiz-adv-x="786" d="M167 732q0 409 86 738q62 240 157 413l239 -131q-81 -171 -123 -352q-31 -131 -52.5 -323t-21.5 -345t21.5 -345t52.5 -323q42 -181 123 -352l-239 -130q-95 173 -157 413q-86 329 -86 737z" />
<glyph unicode=")" horiz-adv-x="786" d="M138 -288q79 166 122 352q31 132 53 324t22 344t-22 344t-53 324q-43 186 -122 352l238 131q95 -173 157 -413q86 -329 86 -738q0 -408 -86 -737q-62 -240 -157 -413z" />
<glyph unicode="*" d="M286 1457l68 217l280 -143l-50 310h227l-49 -310l280 145l69 -216l-312 -49l223 -222l-184 -132l-140 282l-140 -284l-185 132l225 224z" />
<glyph unicode="+" horiz-adv-x="1228" d="M82 696v275h382v383h300v-383h383v-275h-383v-384h-300v384h-382z" />
<glyph unicode="," horiz-adv-x="805" d="M10 -322l260 662l276 -33l-347 -651z" />
<glyph unicode="-" horiz-adv-x="835" d="M98 427v276h639v-276h-639z" />
<glyph unicode="." horiz-adv-x="619" d="M118 160q0 81 55.5 136.5t136.5 55.5t136.5 -55.5t55.5 -136.5t-55.5 -136.5t-136.5 -55.5t-136.5 55.5t-55.5 136.5z" />
<glyph unicode="/" horiz-adv-x="1351" d="M0 -352l938 2174l218 -99l-940 -2173z" />
<glyph unicode="0" d="M64 821q0 164 34.5 304.5t94.5 240.5t141 171t173.5 105t191 34t191 -34t173 -105t140.5 -171.5t94.5 -241.5t34.5 -306q0 -164 -34.5 -304t-94.5 -240.5t-140.5 -171t-173 -105t-191 -34.5t-191 34.5t-173.5 105.5t-141 171t-94.5 241t-34.5 306zM383 821 q0 -123 19.5 -224t51 -166t73.5 -109.5t84.5 -63.5t86.5 -19t87 19t84.5 63.5t73 109.5t51 165.5t19.5 224.5q0 122 -19.5 222.5t-51.5 165.5t-73.5 109.5t-84 63t-86 18.5t-86 -18.5t-84.5 -63t-74 -109.5t-51.5 -165.5t-19.5 -222.5z" />
<glyph unicode="1" d="M324 1364v275h556v-1639h-320v1364h-236z" />
<glyph unicode="2" d="M44 0l482 548q3 4 21 25t37.5 43t45.5 52.5t51 60.5t49 59.5t44 56t32 44.5q96 143 96 264q0 110 -69 178.5t-174 68.5q-80 0 -140 -39t-89 -100t-32 -133h-330q7 165 83 290t204 191.5t289 66.5q111 0 206 -29t162.5 -79t115 -116.5t71 -141.5t23.5 -154 q0 -53 -11 -105.5t-25.5 -94t-42 -90t-48 -79.5t-58 -76t-56 -66t-57.5 -63l-282 -307h592v-275h-1190z" />
<glyph unicode="3" d="M59 472h319q15 -105 87 -169t187 -64q66 0 118 22.5t82.5 61t46 83.5t15.5 93t-15 91.5t-45.5 81t-85.5 60.5t-126 23h-42v230h44q57 0 101 19t70 51.5t39.5 71.5t13.5 83q0 98 -59 157t-157 59q-90 0 -156 -57t-71 -157h-300q14 145 89 251.5t189.5 159.5t255.5 53 q235 0 374 -123t139 -329q0 -238 -189 -344q27 -12 52 -25.5t64 -46.5t66.5 -72.5t48 -104.5t20.5 -141q0 -124 -46 -224.5t-125.5 -166t-185.5 -101t-228 -35.5q-157 0 -285.5 61t-210 177.5t-94.5 270.5z" />
<glyph unicode="4" d="M54 290v142l814 1237h288v-1123h190v-256h-190v-290h-300v290h-802zM432 546h424v650z" />
<glyph unicode="5" d="M64 172l105 276q31 -39 68.5 -72.5t89 -66t118.5 -51.5t139 -19q148 0 239 88t91 229q0 65 -23 123.5t-67.5 104.5t-116.5 73t-163 27q-176 0 -316 -105h-19l194 860h757v-275h-546l-58 -258q64 10 108 10q120 0 224 -37.5t181 -107t121 -175.5t44 -236q0 -95 -23 -181 t-73 -162.5t-123.5 -132.5t-181.5 -88.5t-240 -32.5q-315 0 -529 209z" />
<glyph unicode="6" d="M73 528q0 75 16.5 146.5t48 136.5t64 116.5t78.5 111.5l499 669l227 -172l-389 -497q94 40 185 40q80 0 155 -22.5t140.5 -67.5t114.5 -107.5t77.5 -149t28.5 -186.5q0 -89 -22.5 -172t-71 -158.5t-120 -131t-176.5 -88.5t-232 -33q-121 0 -223.5 30t-175.5 83 t-124 124.5t-75.5 154.5t-24.5 173zM394 521q0 -130 86.5 -216.5t215.5 -86.5t215 86.5t86 216.5t-86 216t-215 86t-215.5 -86t-86.5 -216z" />
<glyph unicode="7" d="M113 1364v275h1263l-998 -1707l-242 166l739 1266h-762z" />
<glyph unicode="8" d="M127 448q0 143 78.5 253.5t214.5 154.5q-103 50 -169 142.5t-66 220.5q0 73 20 139.5t62.5 124.5t102 101t144.5 67.5t184.5 24.5t184 -24.5t144.5 -67.5t102.5 -101t62.5 -124.5t20 -139.5q0 -128 -66.5 -220.5t-169.5 -142.5q135 -44 213.5 -154.5t78.5 -253.5 q0 -102 -39.5 -190.5t-112 -154t-180.5 -103t-237.5 -37.5t-238 37.5t-181 103t-112.5 154.5t-40 190zM448 469q0 -112 71.5 -183.5t179 -71.5t179 71.5t71.5 183.5t-71.5 184t-179 72t-179 -72t-71.5 -184zM469 1217q0 -102 64 -165.5t165.5 -63.5t164.5 63.5t63 165.5 q0 67 -28.5 119t-80.5 80.5t-119 28.5t-119 -28.5t-81 -80.5t-29 -119z" />
<glyph unicode="9" d="M79 1093q0 90 22 172.5t71 158t120 131.5t176 88.5t233 32.5q101 0 189.5 -21t156 -59t120.5 -90.5t87 -115.5t51 -133.5t17 -145.5q0 -51 -7.5 -100t-22.5 -94.5t-33 -86t-43 -82.5t-48 -75.5t-52 -72.5l-499 -668l-226 171l388 497q-95 -40 -184 -40q-66 0 -130 16 t-121.5 46t-106 76.5t-83.5 104.5t-55 132.5t-20 157.5zM398 1118q0 -130 87 -216t216 -86t215.5 86t86.5 216t-86.5 216.5t-215.5 86.5t-216 -86.5t-87 -216.5z" />
<glyph unicode=":" horiz-adv-x="619" d="M118 160q0 81 55.5 136.5t136.5 55.5t136.5 -55.5t55.5 -136.5t-55.5 -136.5t-136.5 -55.5t-136.5 55.5t-55.5 136.5zM118 910q0 81 55.5 136.5t136.5 55.5t136.5 -55.5t55.5 -136.5t-55.5 -136.5t-136.5 -55.5t-136.5 55.5t-55.5 136.5z" />
<glyph unicode=";" horiz-adv-x="805" d="M10 -322l260 662l276 -33l-347 -651zM206 910q0 81 55.5 136.5t136.5 55.5t136.5 -55.5t55.5 -136.5t-55.5 -136.5t-136.5 -55.5t-136.5 55.5t-55.5 136.5z" />
<glyph unicode="&#x3c;" horiz-adv-x="1228" d="M82 694v255l1065 535v-295l-751 -368l751 -369v-295z" />
<glyph unicode="=" horiz-adv-x="1228" d="M82 492v260h1065v-260h-1065zM82 914v261h1065v-261h-1065z" />
<glyph unicode="&#x3e;" horiz-adv-x="1228" d="M82 157v295l751 369l-751 368v295l1065 -535v-255z" />
<glyph unicode="?" horiz-adv-x="1203" d="M103 1207v15q0 107 40 194.5t108.5 143.5t158.5 86t192 30q146 0 259 -55t177 -160t64 -244q0 -115 -47 -211.5t-140 -162.5t-219 -86v-258h-305v481q43 -9 88 -9q66 0 119.5 15.5t87 40.5t55.5 58t31 65.5t9 66.5q0 55 -22 99t-64 69.5t-97 25.5q-36 0 -64.5 -9.5 t-46 -24t-30.5 -34.5t-19.5 -37.5t-10 -37t-4.5 -29t-1 -17.5v-15h-319zM352 160q0 81 55.5 136.5t136 55.5t135.5 -55.5t55 -137t-55 -136.5t-135.5 -55t-136 55.5t-55.5 136.5z" />
<glyph unicode="@" horiz-adv-x="1803" d="M82 806q0 152 43 287t122.5 239t187.5 179.5t240.5 115.5t278.5 40q148 0 274.5 -39.5t216.5 -108t153.5 -159.5t94 -195.5t30.5 -215.5q0 -124 -35 -233t-92 -182.5t-130 -115.5t-148 -42q-68 0 -121 36t-69 102q-54 -77 -132.5 -117.5t-169.5 -40.5q-57 0 -108.5 15.5 t-95 47.5t-75.5 77.5t-50 108t-18 137.5q0 78 18 148t49.5 123t73 95.5t89.5 69.5t98 41.5t100 14.5q74 0 139 -29.5t104 -98.5l20 104h206l-98 -500q-10 -48 -10 -84q0 -82 64 -82q30 0 60.5 24t52.5 56q42 57 69 140.5t27 166.5q0 81 -21.5 158.5t-68.5 149t-114 125.5 t-166 86t-217 32q-94 0 -178.5 -21t-151.5 -58.5t-123 -89t-96 -111.5t-67.5 -127t-41 -135t-13.5 -136q0 -134 47.5 -256t138 -215t209.5 -136q117 -42 274 -42q234 0 459 81l46 -187q-236 -79 -491 -79q-392 0 -626 217q-131 119 -194.5 283.5t-63.5 335.5zM713 752 q0 -89 49.5 -138t117.5 -49q39 0 77.5 19.5t69.5 54t50 86.5t19 113q0 76 -41 129t-119 53q-94 0 -158.5 -77.5t-64.5 -190.5z" />
<glyph unicode="A" horiz-adv-x="1651" d="M5 0l710 1674h241l690 -1674h-344l-144 344h-661l-145 -344h-347zM598 605h466l-231 589z" />
<glyph unicode="B" horiz-adv-x="1400" d="M187 0v1639h406q33 0 53 -0.5t60 -3t72 -9.5t71 -17.5t75 -29t68 -43.5q72 -55 112.5 -145.5t40.5 -194.5q0 -59 -15.5 -111.5t-36 -85.5t-49 -61.5t-46.5 -40.5t-37 -22q125 -20 214 -103q117 -112 117 -308q0 -54 -10 -106t-43 -115t-86 -110q-151 -133 -416 -133h-550 zM506 260h138q144 0 219 45q54 32 77.5 83t23.5 106q0 18 -3 35.5t-10.5 39.5t-20.5 41t-35.5 38t-52.5 32q-24 12 -51 19t-59.5 10t-52.5 3.5t-55 0.5h-118v-453zM506 959h92q13 0 25 0.5t34 3t41 9t42 16t40.5 26t33 37.5t24 52.5t8.5 68.5q0 55 -19.5 95.5t-54.5 64.5 t-78 35.5t-94 11.5h-94v-420z" />
<glyph unicode="C" horiz-adv-x="1483" d="M108 818q0 108 21 206.5t58.5 178t83 143t100.5 114.5q229 216 602 216q218 0 403 -100v-375q-42 49 -93 85t-93.5 54.5t-88 29.5t-71.5 13.5t-50 2.5q-120 0 -222.5 -47t-172 -126t-108.5 -182.5t-39 -216.5q0 -106 31 -198t85 -157.5t124.5 -112.5t150.5 -70t163 -23 q114 0 213 47t171 132v-373q-183 -96 -405 -96q-105 0 -195 17t-162.5 49t-130 71.5t-112.5 91.5q-139 133 -201 286.5t-62 339.5z" />
<glyph unicode="D" horiz-adv-x="1646" d="M187 0v1639h427q195 0 339 -32.5t271 -126.5q150 -113 232 -285.5t82 -376.5q0 -206 -84 -376.5t-244 -284.5q-70 -49 -141 -81t-147.5 -48.5t-147 -22t-164.5 -5.5h-423zM506 275h99q251 0 401 108q64 46 110.5 115.5t70 151t23.5 168.5q0 132 -53 249t-149 189 q-47 35 -102 58.5t-111 33.5t-98.5 13t-91.5 3h-99v-1089z" />
<glyph unicode="E" horiz-adv-x="1218" d="M187 0v1639h909v-275h-590v-367h566v-275h-566v-447h590v-275h-909z" />
<glyph unicode="F" horiz-adv-x="1144" d="M187 0v1639h870v-275h-551v-367h516v-275h-516v-722h-319z" />
<glyph unicode="G" horiz-adv-x="1876" d="M108 818q0 188 65 348.5t179.5 272t276 174.5t349.5 63q96 0 183 -17t151.5 -43t122 -63.5t95 -71.5t71.5 -75t49.5 -65t30.5 -51l-278 -150q-15 25 -32 49.5t-55.5 62.5t-82.5 65.5t-112.5 48t-144.5 20.5q-80 0 -152.5 -20.5t-131.5 -58t-106.5 -90t-80 -115.5 t-50 -136.5t-17.5 -151.5q0 -79 18 -156t59.5 -151t102 -129.5t152.5 -90t203 -34.5q58 0 111 8.5t102.5 26t91.5 46t75.5 66.5t55.5 89.5t31 112.5h-422v275h752v-42q0 -157 -33 -293.5t-117 -258.5q-40 -58 -88 -105.5t-95.5 -80t-100 -57.5t-99.5 -39.5t-97.5 -23 t-90 -11.5t-81.5 -3q-187 0 -347 62t-273 173.5t-176.5 271t-63.5 348.5z" />
<glyph unicode="H" horiz-adv-x="1705" d="M187 0v1639h319v-633h693v633h320v-1639h-320v730h-693v-730h-319z" />
<glyph unicode="I" horiz-adv-x="692" d="M187 0v1639h319v-1639h-319z" />
<glyph unicode="J" horiz-adv-x="957" d="M-64 115l195 234q61 -89 159 -89q48 0 79.5 16.5t45.5 40.5q18 25 26.5 70.5t9.5 79.5t1 99v16v1057h320v-1106q0 -45 -2 -79.5t-7.5 -85.5t-18.5 -92.5t-33 -86.5t-54 -83.5t-77 -68.5q-54 -35 -124 -54.5t-144 -19.5q-97 0 -195 36.5t-181 115.5z" />
<glyph unicode="K" horiz-adv-x="1562" d="M187 0v1639h319v-693l603 693h403l-694 -757l730 -882h-422l-582 734l-38 -36v-698h-319z" />
<glyph unicode="L" horiz-adv-x="1046" d="M187 0v1639h319v-1364h507v-275h-826z" />
<glyph unicode="M" horiz-adv-x="2137" d="M103 0l305 1669h221l445 -1071l464 1071h221l276 -1669h-325l-146 1010l-450 -1032h-89l-430 1032l-168 -1010h-324z" />
<glyph unicode="N" horiz-adv-x="1911" d="M187 0v1676h221l997 -1141v1104h321v-1671h-222l-998 1141v-1109h-319z" />
<glyph unicode="O" horiz-adv-x="1965" d="M108 818q0 185 64.5 344.5t179 272.5t277.5 177t354 64t354 -64t277 -177t179 -272.5t65 -344.5t-65 -343.5t-179 -271t-277 -176.5t-354 -64t-354 64t-277.5 176.5t-179 271t-64.5 343.5zM438 818.5q0 -163.5 69 -292.5t193.5 -201t282.5 -72q118 0 219.5 42t173 116 t112.5 179.5t41 228t-41 228t-112.5 180t-173 117t-219.5 42.5q-158 0 -282.5 -72.5t-193.5 -202t-69 -293z" />
<glyph unicode="P" horiz-adv-x="1311" d="M187 0v1639h477q151 0 249 -25t183 -100q32 -28 58 -61.5t44 -67.5t31 -68.5t20.5 -69.5t11 -66.5t3.5 -62.5q0 -24 -2 -50.5t-10.5 -69.5t-22 -82t-40 -83.5t-61.5 -80.5q-145 -145 -415 -145h-207v-607h-319zM506 882h130q43 0 69 1.5t67.5 14t73.5 36.5q29 22 49 54 t29.5 67t9.5 71q0 119 -92 187q-44 31 -99 41t-126 10h-111v-482z" />
<glyph unicode="Q" horiz-adv-x="1965" d="M108 818q0 185 64.5 344.5t179 272.5t277.5 177t354 64t354 -64t277 -177t179 -272.5t65 -344.5q0 -342 -216 -582l265 -268l-322 -32l-135 146q-108 -64 -218 -91.5t-249 -27.5q-191 0 -354 63.5t-277.5 175.5t-179 271.5t-64.5 344.5zM438 818q0 -163 69 -291.5 t195 -201t288 -72.5q138 0 244 54l-334 324l331 28l190 -195q108 144 108 354q0 123 -41 228.5t-112.5 180t-173 117t-219.5 42.5q-158 0 -282.5 -72.5t-193.5 -202t-69 -293.5z" />
<glyph unicode="R" horiz-adv-x="1410" d="M187 0v1639h474q155 0 253 -33t165 -89q162 -137 162 -370q0 -121 -49 -221t-143 -164q-74 -53 -179 -72l511 -690h-398l-437 659h-40v-659h-319zM506 884h92q14 0 27 0.5t37 3.5t44.5 7.5t47 13.5t48 21t42.5 31t35.5 43t23.5 57t9 72q0 50 -14.5 90t-36 65t-53.5 43.5 t-58.5 27.5t-60.5 13.5t-50.5 5.5t-36.5 1h-96v-495z" />
<glyph unicode="S" horiz-adv-x="1311" d="M84 272l209 200q28 -58 70 -101.5t88.5 -68.5t93 -37t91.5 -12q111 0 182 62t71 164q0 87 -63 147q-29 27 -77 51.5t-78 35.5t-99 35q-54 18 -92 33.5t-89.5 44.5t-90.5 63q-131 114 -131 305q0 74 19.5 143t61.5 131t103 108t149 73t194 27q278 0 464 -192l-168 -218 q-105 139 -267 139q-42 0 -76.5 -8t-58.5 -22.5t-42 -33t-28.5 -40.5t-15.5 -43.5t-5 -43.5q0 -65 52 -110q27 -25 66 -43t131 -51q119 -41 196.5 -77t134.5 -87q29 -26 53 -58.5t44 -75t31.5 -96.5t11.5 -114q0 -158 -71 -281t-201 -190.5t-298 -67.5q-87 0 -166.5 20.5 t-138 51.5t-111.5 75t-86.5 82t-62.5 80z" />
<glyph unicode="T" horiz-adv-x="1086" d="M14 1364v275h1058v-275h-369v-1364h-320v1364h-369z" />
<glyph unicode="U" horiz-adv-x="1690" d="M187 636v1003h319v-1029q0 -156 78 -244q40 -48 107 -80.5t155 -32.5q60 0 113 17t87.5 41t59.5 55q78 88 78 244v1029h320v-1003q0 -282 -123 -437q-86 -113 -229.5 -174.5t-306 -61.5t-306 61.5t-229.5 174.5q-123 155 -123 437z" />
<glyph unicode="V" horiz-adv-x="1581" d="M5 1639h349l437 -1100l438 1100h349l-703 -1676h-172z" />
<glyph unicode="W" horiz-adv-x="2402" d="M5 1639h339l366 -1116l401 1131h177l379 -1131l392 1116h340l-617 -1676h-227l-363 1076l-381 -1076h-227z" />
<glyph unicode="X" horiz-adv-x="1572" d="M19 0l581 865l-490 774h384l287 -509l303 509h384l-504 -774l560 -865h-384l-359 600l-378 -600h-384z" />
<glyph unicode="Y" horiz-adv-x="1449" d="M-5 1639h378l352 -570l351 570h378l-577 -889v-750h-319v750z" />
<glyph unicode="Z" horiz-adv-x="1435" d="M54 0l797 1364h-671v275h1201l-797 -1364h758v-275h-1288z" />
<glyph unicode="[" horiz-adv-x="859" d="M221 -394v2235h516v-256h-231v-1723h231v-256h-516z" />
<glyph unicode="\" horiz-adv-x="1351" d="M197 1723l216 99l938 -2174l-216 -98z" />
<glyph unicode="]" horiz-adv-x="859" d="M122 -138h232v1723h-232v256h516v-2235h-516v256z" />
<glyph unicode="^" horiz-adv-x="1228" d="M19 833l399 813h393l399 -813h-312l-284 593l-283 -593h-312z" />
<glyph unicode="_" horiz-adv-x="1228" d="M0 -133h1229v-256h-1229v256z" />
<glyph unicode="`" horiz-adv-x="1228" d="M232 1583l216 138l289 -370l-137 -98z" />
<glyph unicode="a" horiz-adv-x="1400" d="M89 533q0 117 38.5 220.5t107 179.5t167.5 120.5t215 44.5q232 0 342 -172v138h300v-1064h-300v138q-121 -173 -328 -173q-119 0 -221.5 45t-172.5 122t-109 180.5t-39 220.5zM398 533q0 -128 84 -214.5t211.5 -86.5t211 86.5t83.5 214.5t-83.5 214t-210.5 86 q-85 0 -152.5 -39.5t-105.5 -108t-38 -152.5z" />
<glyph unicode="b" horiz-adv-x="1400" d="M143 0v1841h300v-915q37 53 84 89t95 53t87.5 23.5t78.5 6.5q155 0 275 -74t185 -202.5t65 -288.5q0 -161 -67 -290.5t-188.5 -203.5t-276.5 -74q-213 0 -338 173v-138h-300zM413 533q0 -84 37.5 -153t105.5 -108.5t152 -39.5q128 0 211.5 86.5t83.5 214.5t-83.5 214 t-211.5 86t-211.5 -86t-83.5 -214z" />
<glyph unicode="c" horiz-adv-x="1027" d="M89 528q0 69 13.5 133t38 118t57.5 100t74 82q156 137 384 137q156 0 287 -64v-295q-101 94 -245 94q-72 0 -130 -25t-94.5 -67.5t-56 -95.5t-19.5 -112q0 -131 87.5 -216t222.5 -85q132 0 235 92v-292q-132 -67 -275 -67q-121 0 -228 42t-182 113q-72 67 -120.5 169 t-48.5 239z" />
<glyph unicode="d" horiz-adv-x="1400" d="M89 533q0 117 38.5 220.5t107 179.5t167.5 120.5t215 44.5q232 0 342 -172v915h300v-1841h-300v138q-121 -173 -328 -173q-119 0 -221.5 45t-172.5 122t-109 180.5t-39 220.5zM398 533q0 -128 84 -214.5t211.5 -86.5t211 86.5t83.5 214.5t-83.5 214t-210.5 86 q-85 0 -152.5 -39.5t-105.5 -108t-38 -152.5z" />
<glyph unicode="e" horiz-adv-x="1282" d="M89 530q0 257 162 419q152 149 401 149q271 0 415 -174q127 -153 127 -418v-25h-796q0 -109 52 -179q19 -25 44 -46t70.5 -37.5t99.5 -16.5q83 0 146.5 37t101.5 103l275 -44q-9 -23 -19.5 -44t-33.5 -56.5t-50 -64.5t-69.5 -61.5t-91 -54.5t-116 -37t-143.5 -15 q-251 0 -408 150q-167 157 -167 415zM408 673h504q-11 70 -51.5 119.5t-92.5 72t-109 22.5t-108.5 -23t-91 -72.5t-51.5 -118.5z" />
<glyph unicode="f" horiz-adv-x="717" d="M35 809v255h113v341q0 38 1.5 67.5t9.5 75.5t22 83t41.5 78t65.5 73q105 89 263 89q91 0 171 -37v-274q-57 44 -135 44q-72 0 -108 -54q-31 -51 -31 -183v-303h274v-255h-274v-809h-300v809h-113z" />
<glyph unicode="g" d="M89 533q0 90 23 174t68.5 154.5t108.5 123.5t148 83t182 30q222 0 335 -172v138h299v-1024q0 -42 -0.5 -59.5t-2.5 -58t-6 -63t-12.5 -59.5t-21 -64t-32.5 -60t-45 -62q-53 -60 -122 -101.5t-151 -63t-172 -21.5q-150 0 -273 53.5t-202.5 155.5t-97.5 238h325 q17 -90 83.5 -141t166.5 -51q53 0 95.5 14t69.5 34.5t47 51t29.5 56.5t15 58.5t6.5 49.5t1 36v160q-36 -56 -82 -94t-92.5 -54.5t-82 -23t-71.5 -6.5q-118 0 -219.5 45t-170.5 122t-108 180.5t-39 220.5zM398 533q0 -128 84 -214.5t211.5 -86.5t211 86.5t83.5 214.5 t-83.5 214t-210.5 86q-85 0 -152.5 -39.5t-105.5 -108t-38 -152.5z" />
<glyph unicode="h" horiz-adv-x="1311" d="M143 0v1841h300v-915q122 172 329 172q53 0 104.5 -10t111 -40.5t98.5 -79.5q50 -62 67 -134.5t17 -165.5v-668h-300v580q0 40 -2.5 69t-16 71t-37.5 68q-52 54 -141 54q-121 0 -183 -92q-30 -46 -38.5 -95.5t-8.5 -110.5v-544h-300z" />
<glyph unicode="i" horiz-adv-x="584" d="M113 1514.5q0 73.5 53 126t127 52.5t126.5 -52.5t52.5 -126.5q0 -48 -24 -89.5t-65.5 -66t-89.5 -24.5q-74 0 -127 53.5t-53 127zM143 0v1064h300v-1064h-300z" />
<glyph unicode="j" horiz-adv-x="584" d="M113 1514.5q0 73.5 53 126t127 52.5t126.5 -52.5t52.5 -126.5q0 -48 -24 -89.5t-65.5 -66t-89.5 -24.5q-74 0 -127 53.5t-53 127zM143 -570v1634h300v-1634h-300z" />
<glyph unicode="k" horiz-adv-x="1257" d="M143 0v1841h300v-1165l397 388h389l-499 -466l538 -598h-398l-396 455l-31 -30v-425h-300z" />
<glyph unicode="l" horiz-adv-x="584" d="M143 0v1841h300v-1841h-300z" />
<glyph unicode="m" horiz-adv-x="1940" d="M143 0v1064h300v-121q122 155 317 155q53 0 99.5 -10t80.5 -28.5t60.5 -37.5t46 -43.5t30 -40.5t19.5 -33q21 35 49.5 66t70 61.5t99 48t123.5 17.5q187 0 288 -130q46 -62 59.5 -128.5t13.5 -171.5v-668h-300v580q0 146 -49 208q-44 54 -123 54q-111 0 -164 -92 q-42 -67 -42 -206v-544h-300v580q0 146 -49 208q-44 54 -123 54q-112 0 -165 -92q-41 -66 -41 -206v-544h-300z" />
<glyph unicode="n" horiz-adv-x="1311" d="M143 0v1064h300v-138q122 172 329 172q53 0 104.5 -10t111 -40.5t98.5 -79.5q50 -62 67 -134.5t17 -165.5v-668h-300v580q0 40 -2.5 69t-16 71t-37.5 68q-52 54 -141 54q-121 0 -183 -92q-30 -46 -38.5 -95.5t-8.5 -110.5v-544h-300z" />
<glyph unicode="o" d="M89 530q0 85 23 164.5t62.5 142.5t93.5 112q161 149 430 149q268 0 430 -149q82 -75 131 -183.5t49 -235.5q0 -124 -49 -232t-131 -183q-163 -150 -430 -150q-268 0 -430 150q-83 75 -131 183t-48 232zM398 530q0 -123 86 -210.5t214 -87.5q85 0 154 40.5t107 109 t38 148.5q0 127 -85.5 215t-213 88t-214 -88t-86.5 -215z" />
<glyph unicode="p" horiz-adv-x="1400" d="M143 -570v1634h300v-138q37 53 84 89t95 53t87.5 23.5t78.5 6.5q155 0 275 -74t185 -202.5t65 -288.5q0 -161 -67 -290.5t-188.5 -203.5t-276.5 -74q-213 0 -338 173v-708h-300zM413 533q0 -84 37.5 -153t105.5 -108.5t152 -39.5q128 0 211.5 86.5t83.5 214.5t-83.5 214 t-211.5 86t-211.5 -86t-83.5 -214z" />
<glyph unicode="q" horiz-adv-x="1400" d="M89 533q0 117 38.5 220.5t107 179.5t167.5 120.5t215 44.5q232 0 342 -172v138h300v-1634h-300v708q-121 -173 -328 -173q-119 0 -221.5 45t-172.5 122t-109 180.5t-39 220.5zM398 533q0 -128 84 -214.5t211.5 -86.5t211 86.5t83.5 214.5t-83.5 214t-210.5 86 q-85 0 -152.5 -39.5t-105.5 -108t-38 -152.5z" />
<glyph unicode="r" horiz-adv-x="884" d="M143 0v1064h300v-159q21 41 50.5 75.5t48 49t33.5 22.5q71 46 177 46q58 0 128 -24l-40 -280q-55 39 -139 39q-131 0 -199 -85q-27 -33 -40.5 -79t-16 -78t-2.5 -80v-511h-300z" />
<glyph unicode="s" horiz-adv-x="992" d="M73 143l159 181q46 -54 108.5 -88t126.5 -34q42 0 75 13t52.5 39.5t19.5 62.5q0 74 -93 108l-69 25q-50 19 -81 31.5t-74.5 39t-73.5 56.5q-80 85 -80 204q0 74 30.5 137t79.5 104q96 76 277 76q192 0 340 -113l-148 -174q-76 71 -174 71q-35 0 -61 -10.5t-40.5 -30 t-14.5 -44.5q0 -65 96 -96l72 -23q45 -15 71.5 -25t69.5 -29t75 -44t54 -54q54 -74 54 -177q0 -162 -118 -270q-124 -114 -319 -114q-248 0 -414 178z" />
<glyph unicode="t" horiz-adv-x="662" d="M24 809v255h119v364h300v-364h206v-255h-206v-809h-300v809h-119z" />
<glyph unicode="u" horiz-adv-x="1316" d="M143 413v651h300v-602q0 -36 3 -63t18 -63t42 -61q29 -25 70 -39.5t83 -14.5t83 14.5t69 39.5q39 36 51.5 83t12.5 104v602h300v-651q0 -43 -4.5 -78.5t-17 -80.5t-40 -88t-69.5 -80q-69 -61 -173.5 -91t-211.5 -30t-212 30t-175 91q-41 37 -69 80t-40 88t-16 80.5 t-4 78.5z" />
<glyph unicode="v" horiz-adv-x="1238" d="M5 1064h335l279 -600l281 600h334l-546 -1086h-137z" />
<glyph unicode="w" horiz-adv-x="1946" d="M5 1064h335l279 -614l291 643h127l290 -643l280 614h335l-546 -1086h-137l-286 648l-285 -648h-137z" />
<glyph unicode="x" horiz-adv-x="1390" d="M5 0l506 580l-408 484h378l217 -276l221 276h378l-415 -484l504 -580h-383l-305 371l-309 -371h-384z" />
<glyph unicode="y" horiz-adv-x="1321" d="M5 1064h349l329 -604l295 604h340l-858 -1634h-340l391 730z" />
<glyph unicode="z" horiz-adv-x="1189" d="M30 0l604 809h-512v255h1038l-604 -808h562v-256h-1088z" />
<glyph unicode="{" horiz-adv-x="1228" d="M305 462v256q61 8 93 44q14 16 23.5 40.5t14 52t4.5 55.5v398q0 32 1 50.5t3.5 48t8.5 50.5t16 45.5t27 45.5t39 40q51 43 123 56.5t168 13.5q78 0 157 -4v-256h-45h-23.5h-29t-27.5 -1t-30 -3.5t-25.5 -6t-25.5 -10t-20 -15.5q-15 -15 -22.5 -37.5t-8.5 -37t-1 -39.5 v-350q0 -125 -30 -188t-118 -120q88 -56 118 -119.5t30 -187.5v-351q0 -25 1 -39.5t8.5 -37t22.5 -37.5q9 -9 20 -15.5t25.5 -10.5t25.5 -6.5t30 -3t27.5 -1t29 0t23.5 0.5h45v-256q-79 -5 -157 -5q-96 0 -168 14t-123 57q-27 22 -45.5 50t-28 52.5t-14.5 60t-6 57.5t-1 61 v397q0 42 -11 83t-31 65q-32 36 -93 44z" />
<glyph unicode="|" horiz-adv-x="1228" d="M464 -614v2457h300v-2457h-300z" />
<glyph unicode="}" horiz-adv-x="1228" d="M246 -218h44q4 0 24.5 -0.5t29 0t27 1t29.5 3t26 6.5t26 10.5t20 15.5q15 15 22.5 37.5t8.5 37t1 39.5v351q0 124 30 187.5t118 119.5q-88 57 -118 120t-30 188v350q0 25 -1 39.5t-8.5 37t-22.5 37.5q-9 9 -20 15.5t-26 10t-26 6t-29.5 3.5t-27 1h-29h-24.5h-44v256 q79 4 157 4q96 0 167.5 -13.5t123.5 -56.5q27 -22 45.5 -50t28 -52t14.5 -59.5t5.5 -58t0.5 -60.5v-398q0 -43 11 -84t31 -64q33 -36 94 -44v-256q-61 -8 -94 -44q-20 -24 -31 -65t-11 -83v-397q0 -39 -0.5 -61t-5.5 -57.5t-14.5 -60t-28 -52.5t-45.5 -50 q-52 -43 -123.5 -57t-167.5 -14q-78 0 -157 5v256z" />
<glyph unicode="~" horiz-adv-x="1641" d="M221 1482q29 81 78.5 165.5t110.5 127.5q70 51 174 51q52 0 107.5 -14t159.5 -53q15 -5 47.5 -17t48.5 -17.5t40 -13t43 -10.5t37 -3q62 0 103.5 31.5t77.5 101.5l173 -98q-90 -216 -227 -286q-71 -36 -145 -36q-14 0 -28 1t-25 2t-25.5 4t-22.5 4.5t-24.5 6.5t-23 7 t-25.5 9t-26 9.5t-30 11t-31 11.5q-95 36 -138.5 48.5t-81.5 12.5q-31 0 -59 -13t-46 -31t-34 -41.5t-23.5 -39.5t-11.5 -29z" />
<glyph unicode="&#xa4;" horiz-adv-x="1641" d="M59 324l253 253q-110 138 -110 342t110 342l-253 253l162 162l253 -253q85 65 169.5 88t177.5 23q59 0 108 -7t114.5 -33t124.5 -71l253 253l162 -162l-253 -253q110 -138 110 -342t-110 -342l253 -253l-162 -162l-253 253q-85 -65 -170 -87.5t-177.5 -22.5t-177 22.5 t-169.5 87.5l-253 -253zM476 919q0 -99 43.5 -178.5t122.5 -125t179 -45.5t179 45.5t122 125t43 178.5q0 151 -96.5 250t-248 99t-248 -99t-96.5 -250z" />
<glyph unicode="&#xa6;" horiz-adv-x="1228" d="M464 270h300v-884h-300v884zM464 959v884h300v-884h-300z" />
<glyph unicode="&#xa7;" d="M180 725q0 51 9 100t30.5 98t53 88.5t80 70.5t109.5 46q-104 44 -161 133t-57 204q0 180 129 287.5t340 107.5q138 0 239.5 -51t156.5 -151q53 -97 56 -240h-295q9 87 -39.5 142t-127.5 55q-73 0 -121.5 -41t-48.5 -120q0 -36 7 -57.5t35 -47t77 -50.5t139 -63 q36 -15 55 -23.5t54 -24.5t58 -29t51.5 -30t52.5 -36.5t44 -40.5q111 -116 111 -292q0 -15 -1 -29.5t-6.5 -49t-16 -65.5t-32 -72t-50.5 -75t-76.5 -68.5t-105.5 -58.5q17 -7 35.5 -17t46 -28.5t51 -45t45 -60t34 -80t12.5 -99.5q0 -54 -13.5 -106.5t-39 -100.5t-65.5 -88.5 t-90.5 -70.5t-117 -47t-142.5 -17q-135 0 -241.5 55.5t-167.5 162.5t-60 249h300q0 -89 49.5 -150t130.5 -61q35 0 66 13.5t53 37t35 56t13 69.5q0 29 -7 53.5t-18 43.5t-30.5 36.5t-38 29.5t-47.5 25.5t-52 22.5t-58 21q-12 4 -46.5 16t-48.5 17.5t-43.5 17.5t-47 22 t-42 24.5t-45 31.5t-39.5 38q-65 69 -92.5 151t-27.5 161zM494 734q0 -50 18.5 -92t48 -67.5t65.5 -39.5t72.5 -14t72.5 14t65.5 39.5t47.5 67.5t18 92q0 67 -31.5 117.5t-77 74t-95.5 23.5t-95.5 -23.5t-77 -74t-31.5 -117.5z" />
<glyph unicode="&#xa9;" horiz-adv-x="1867" d="M82 818.5q0 181.5 66.5 341t180 273t271 178.5t334 65t334 -65t271.5 -178.5t181 -273t67 -341t-67 -341t-181.5 -272t-272 -177.5t-333 -65t-332.5 65t-271.5 177.5t-181 272t-66.5 341zM253 818.5q0 -144.5 53.5 -274.5t144 -224t216.5 -149.5t266.5 -55.5t267 55.5 t217 149.5t144 224t53.5 274.5t-53.5 275t-144 225t-217 150t-267 55.5t-266.5 -55.5t-216.5 -150t-144 -225t-53.5 -275zM448 814q0 62 15.5 123.5t45 119.5t75.5 108t104 87t134.5 58.5t162.5 21.5q158 0 271 -64v-267l-27 26q-103 103 -234 103q-91 0 -162.5 -41.5 t-110.5 -113t-39 -159.5q0 -137 88 -223.5t230 -86.5q127 0 228 101l27 27v-268q-119 -61 -264 -61q-91 0 -175 24.5t-150.5 71t-116 108.5t-76 140.5t-26.5 164.5z" />
<glyph unicode="&#xab;" horiz-adv-x="1262" d="M98 539l389 525l172 -123l-300 -402l300 -403l-172 -124zM580 539l388 525l172 -123l-300 -402l300 -403l-172 -124z" />
<glyph unicode="&#xac;" horiz-adv-x="1228" d="M82 386v275h1065v-661h-299v386h-766z" />
<glyph unicode="&#xae;" horiz-adv-x="1867" d="M82 818.5q0 181.5 66.5 341t180 273t271 178.5t334 65t334 -65t271.5 -178.5t181 -273t67 -341t-67 -341t-181.5 -272t-272 -177.5t-333 -65t-332.5 65t-271.5 177.5t-181 272t-66.5 341zM253 818.5q0 -144.5 53.5 -274.5t144 -224t216.5 -149.5t266.5 -55.5t267 55.5 t217 149.5t144 224t53.5 274.5t-53.5 275t-144 225t-217 150t-267 55.5t-266.5 -55.5t-216.5 -150t-144 -225t-53.5 -275zM647 422v824h275q60 0 110 -15t84.5 -39.5t58.5 -57.5t35.5 -69.5t11.5 -74.5q0 -85 -53.5 -148.5t-141.5 -81.5l253 -338h-218l-229 305v-305h-186z M833 880h32q155 0 155 103q0 28 -10.5 48t-24 30t-37 15.5t-39 6.5t-39.5 1h-37v-204z" />
<glyph unicode="&#xb0;" horiz-adv-x="1228" d="M239 1259q0 106 49.5 190.5t135.5 131t190.5 46.5t190.5 -46.5t135.5 -131t49.5 -190.5q0 -80 -29 -149t-79.5 -117.5t-119.5 -76t-148 -27.5q-104 0 -190 47t-135.5 132t-49.5 191zM420 1258.5q0 -84.5 55 -138t139.5 -53.5t139.5 53.5t55 138.5q0 55 -25 99t-69.5 68 t-100.5 24q-85 0 -139.5 -53.5t-54.5 -138z" />
<glyph unicode="&#xb1;" horiz-adv-x="1228" d="M82 127v276h1065v-276h-1065zM82 872v275h382v384h300v-384h383v-275h-383v-382h-300v382h-382z" />
<glyph unicode="&#xb6;" horiz-adv-x="1606" d="M64 1205q0 39 5.5 78t21.5 83t41.5 82.5t67 75t95.5 61.5q34 16 70 26.5t64.5 16t68.5 8t63.5 3t67.5 0.5h801v-230h-171v-1637h-256v1637h-212v-1637h-256v1014h-31q-77 0 -145 19t-121.5 55.5t-93 87.5t-60 116.5t-20.5 140.5z" />
<glyph unicode="&#xb7;" horiz-adv-x="490" d="M19 703.5q0 93.5 66.5 159.5t160.5 66t160 -66t66 -160t-66.5 -160.5t-160 -66.5t-160 67t-66.5 160.5z" />
<glyph unicode="&#xbb;" horiz-adv-x="1262" d="M122 136l300 403l-300 402l173 123l388 -525l-388 -527zM605 136l300 403l-300 402l171 123l389 -525l-389 -527z" />
<glyph unicode="&#x3bc;" horiz-adv-x="1375" d="M143 -422v1486h300v-513q0 -18 0.5 -34.5t3 -43t7.5 -49.5t14 -51t21.5 -50.5t32 -45t43 -37.5t57 -24.5t72.5 -9.5q240 0 240 354v504h300v-1064h-300v148q-30 -80 -95 -131.5t-154 -51.5q-83 0 -145.5 46t-96.5 116v-549h-300z" />
<glyph unicode="&#x401;" horiz-adv-x="1218" d="M187 0v1639h909v-275h-590v-367h566v-275h-566v-447h590v-275h-909zM187 1993q0 72 52.5 124.5t124.5 52.5t124.5 -52.5t52.5 -124.5t-52.5 -124.5t-124.5 -52.5t-124.5 52.5t-52.5 124.5zM737 1993q0 72 52.5 124.5t124.5 52.5t124.5 -52.5t52.5 -124.5t-52.5 -124.5 t-124.5 -52.5t-124.5 52.5t-52.5 124.5z" />
<glyph unicode="&#x402;" horiz-adv-x="1670" d="M14 1364v275h1205v-275h-541v-379q185 18 314 18q35 0 62.5 -1t72 -5t81 -11.5t82 -22t83.5 -35t77 -51.5t69 -71q103 -128 103 -339q0 -150 -62.5 -263t-172.5 -172.5t-252 -59.5q-170 0 -314 75l84 253q87 -52 183 -52q93 0 148.5 57.5t55.5 156.5q0 119 -58 185 q-24 26 -55 43t-67 24.5t-65.5 10t-66.5 2.5q-138 0 -302 -17v-710h-319v1364h-345z" />
<glyph unicode="&#x403;" horiz-adv-x="1070" d="M187 0v1639h870v-275h-551v-1364h-319zM492 1912l343 349l222 -172l-428 -300z" />
<glyph unicode="&#x404;" horiz-adv-x="1501" d="M108 818q0 187 64.5 358t181.5 284q44 42 97.5 77.5t128.5 68.5t174.5 51.5t211.5 18.5q233 0 427 -100v-375q-14 16 -30.5 31.5t-45.5 38.5t-64.5 41.5t-78.5 36t-97.5 27.5t-112.5 10q-104 0 -195 -33.5t-157.5 -91.5t-111 -135t-62.5 -165h784v-276h-784 q11 -60 33.5 -114t54 -97.5t71.5 -79.5t85 -61.5t94.5 -43.5t100.5 -27t103 -9q248 0 413 179v-373q-195 -96 -429 -96q-383 0 -612 229q-30 29 -57.5 62t-63.5 92t-61.5 124t-43.5 157t-18 191z" />
<glyph unicode="&#x405;" horiz-adv-x="1311" d="M84 272l209 200q28 -58 70 -101.5t88.5 -68.5t93 -37t91.5 -12q111 0 182 62t71 164q0 87 -63 147q-29 27 -77 51.5t-78 35.5t-99 35q-54 18 -92 33.5t-89.5 44.5t-90.5 63q-131 114 -131 305q0 74 19.5 143t61.5 131t103 108t149 73t194 27q278 0 464 -192l-168 -218 q-105 139 -267 139q-42 0 -76.5 -8t-58.5 -22.5t-42 -33t-28.5 -40.5t-15.5 -43.5t-5 -43.5q0 -65 52 -110q27 -25 66 -43t131 -51q119 -41 196.5 -77t134.5 -87q29 -26 53 -58.5t44 -75t31.5 -96.5t11.5 -114q0 -158 -71 -281t-201 -190.5t-298 -67.5q-87 0 -166.5 20.5 t-138 51.5t-111.5 75t-86.5 82t-62.5 80z" />
<glyph unicode="&#x406;" horiz-adv-x="692" d="M187 0v1639h319v-1639h-319z" />
<glyph unicode="&#x407;" horiz-adv-x="692" d="M0 2005q0 61 43 104.5t104.5 43.5t104.5 -43.5t43 -104.5t-43 -104t-104 -43q-41 0 -75 19.5t-53.5 53.5t-19.5 74zM187 0v1639h319v-1639h-319zM398 2005q0 61 43.5 104.5t104.5 43.5t104.5 -43.5t43.5 -104.5q0 -40 -20 -74t-54 -53.5t-74 -19.5q-30 0 -57.5 11.5 t-47 31t-31.5 47t-12 57.5z" />
<glyph unicode="&#x408;" horiz-adv-x="957" d="M-64 115l195 234q61 -89 159 -89q48 0 79.5 16.5t45.5 40.5q18 25 26.5 70.5t9.5 79.5t1 99v16v1057h320v-1106q0 -45 -2 -79.5t-7.5 -85.5t-18.5 -92.5t-33 -86.5t-54 -83.5t-77 -68.5q-54 -35 -124 -54.5t-144 -19.5q-97 0 -195 36.5t-181 115.5z" />
<glyph unicode="&#x409;" horiz-adv-x="2319" d="M24 0v275q48 -15 91 -15q89 0 148 59q15 16 27.5 33.5t20.5 41.5t14.5 41t10 49.5t5.5 48.5t2.5 56t0.5 53v59v938h1116v-642h256q41 0 76 -2.5t80 -11t84.5 -22.5t82 -39t79.5 -59q47 -43 80.5 -97t52.5 -123.5t19 -145.5q0 -82 -23 -158.5t-64 -136.5 q-35 -52 -82.5 -90t-93.5 -59t-101.5 -33.5t-97 -16t-90.5 -3.5h-578v1364h-476v-728v-16q0 -48 -0.5 -74.5t-4 -76t-9.5 -81.5t-19 -77.5t-31.5 -79t-47 -70.5t-65.5 -67q-127 -108 -327 -108q-69 0 -136 14zM1460 275h186q20 0 35 0.5t48 5t58 12t55.5 24t51 39.5t34.5 59 t14 82q0 27 -5.5 52.5t-17.5 51.5t-34 47.5t-53 38.5t-77.5 26t-103.5 9h-191v-447z" />
<glyph unicode="&#x40a;" horiz-adv-x="2378" d="M187 0v1639h319v-633h693v633h320v-642h256q52 0 97 -4.5t100 -18t108 -41.5t98 -70q47 -43 80.5 -97t52.5 -123.5t19 -145.5q0 -81 -23.5 -158t-64.5 -137q-30 -44 -67 -78t-78 -55t-81 -35.5t-84.5 -21.5t-79.5 -9.5t-75 -2.5h-578v730h-693v-730h-319zM1519 275h186 q20 0 35 0.5t47.5 5t58 12t56 24t51 39.5t34 59t13.5 82q0 33 -7 63t-27 60.5t-51.5 52.5t-84 35.5t-120.5 13.5h-191v-447z" />
<glyph unicode="&#x40b;" horiz-adv-x="1695" d="M14 1364v275h1156v-275h-492v-379q177 18 293 18q298 0 438 -105q42 -32 72.5 -71t48 -76.5t27.5 -83t13 -82.5t3 -81v-504h-320v448q0 29 -1 46.5t-5 46t-12 48.5t-24 43.5t-39 40.5q-70 54 -234 54q-139 0 -260 -17v-710h-319v1364h-345z" />
<glyph unicode="&#x40c;" horiz-adv-x="1562" d="M187 0v1639h319v-693l603 693h403l-694 -757l730 -882h-422l-582 734l-38 -36v-698h-319zM584 1912l345 349l221 -172l-428 -300z" />
<glyph unicode="&#x40e;" horiz-adv-x="1498" d="M5 1639h373l416 -825l351 825h349l-760 -1639h-348l228 457zM319 2075l222 87q12 -32 31.5 -57.5t42 -40.5t43.5 -24.5t44 -13.5t35.5 -5t24.5 -1q15 0 31 1t45.5 9t54 22t50 42.5t40.5 67.5l222 -87q-32 -85 -92.5 -146t-150 -95.5t-200.5 -34.5q-165 0 -279.5 73.5 t-163.5 202.5z" />
<glyph unicode="&#x40f;" horiz-adv-x="1660" d="M187 0v1639h319v-1364h650v1364h319v-1639h-497v-443h-295v443h-496z" />
<glyph unicode="&#x410;" horiz-adv-x="1651" d="M5 0l710 1674h241l690 -1674h-344l-144 344h-661l-145 -344h-347zM598 605h466l-231 589z" />
<glyph unicode="&#x411;" horiz-adv-x="1400" d="M187 0v1639h948v-275h-629v-376h221q262 0 411 -132q72 -66 113 -158.5t41 -205.5q0 -161 -91 -293q-36 -50 -84 -88t-94.5 -58.5t-102 -33t-98.5 -16t-92 -3.5h-543zM506 275h153q73 0 129 13.5t88.5 34.5t53 51t27.5 57.5t7 58.5q0 33 -7.5 62.5t-28.5 60t-53.5 52 t-86.5 35t-124 13.5h-158v-438z" />
<glyph unicode="&#x412;" horiz-adv-x="1400" d="M187 0v1639h406q33 0 53 -0.5t60 -3t72 -9.5t71 -17.5t75 -29t68 -43.5q72 -55 112.5 -145.5t40.5 -194.5q0 -59 -15.5 -111.5t-36 -85.5t-49 -61.5t-46.5 -40.5t-37 -22q125 -20 214 -103q117 -112 117 -308q0 -54 -10 -106t-43 -115t-86 -110q-151 -133 -416 -133h-550 zM506 260h138q144 0 219 45q54 32 77.5 83t23.5 106q0 18 -3 35.5t-10.5 39.5t-20.5 41t-35.5 38t-52.5 32q-24 12 -51 19t-59.5 10t-52.5 3.5t-55 0.5h-118v-453zM506 959h92q13 0 25 0.5t34 3t41 9t42 16t40.5 26t33 37.5t24 52.5t8.5 68.5q0 55 -19.5 95.5t-54.5 64.5 t-78 35.5t-94 11.5h-94v-420z" />
<glyph unicode="&#x413;" horiz-adv-x="1070" d="M187 0v1639h870v-275h-551v-1364h-319z" />
<glyph unicode="&#x414;" horiz-adv-x="1646" d="M24 275q84 -4 153 59.5t109 162.5q58 148 58 429v713h1106v-1364h172v-643h-295v368h-1008v-368h-295v643zM469 275h661v1089h-476v-438q0 -308 -56 -457q-44 -114 -129 -194z" />
<glyph unicode="&#x415;" horiz-adv-x="1218" d="M187 0v1639h909v-275h-590v-367h566v-275h-566v-447h590v-275h-909z" />
<glyph unicode="&#x416;" horiz-adv-x="2196" d="M14 0l650 882l-627 757h364l545 -693v693h304v-693l546 693h364l-626 -757l649 -882h-370l-525 734l-38 -36v-698h-304v698l-36 36l-527 -734h-369z" />
<glyph unicode="&#x417;" horiz-adv-x="1473" d="M98 272l209 200q29 -63 76.5 -111.5t103.5 -76.5t115.5 -42t119.5 -14q80 0 142 20.5t99 55.5t55.5 77.5t18.5 90.5q0 250 -359 250h-148v275h148q125 0 199.5 56t74.5 154q0 44 -15 79t-44 59.5t-73.5 37.5t-101.5 13q-210 0 -329 -130l-168 218q109 98 230.5 145 t273.5 47q123 0 223.5 -30.5t170 -86.5t107.5 -135.5t38 -175.5q0 -109 -52 -200.5t-150 -145.5q147 -37 226 -152.5t79 -270.5q0 -154 -84 -272t-232 -181t-336 -63q-212 0 -369 81t-248 228z" />
<glyph unicode="&#x418;" horiz-adv-x="1818" d="M187 -32v1671h319v-1100l905 1137h221v-1676h-319v1106l-905 -1138h-221z" />
<glyph unicode="&#x419;" horiz-adv-x="1818" d="M187 -32v1671h319v-1100l905 1137h221v-1676h-319v1106l-905 -1138h-221zM467 2075l221 87q14 -39 40 -67.5t50.5 -42.5t54.5 -22t45.5 -9t31 -1t31 1t45.5 9t54.5 22t50 42.5t39.5 67.5l221 -87q-49 -129 -162.5 -202.5t-279 -73.5t-279.5 73.5t-163 202.5z" />
<glyph unicode="&#x41a;" horiz-adv-x="1562" d="M187 0v1639h319v-693l603 693h403l-694 -757l730 -882h-422l-582 734l-38 -36v-698h-319z" />
<glyph unicode="&#x41b;" horiz-adv-x="1646" d="M24 0v275q48 -15 91 -15q89 0 148 59q15 16 27.5 33.5t20.5 41.5t14.5 41t10 49.5t5.5 48.5t2.5 56t0.5 53v59v938h1116v-1639h-320v1364h-476v-728v-16q0 -48 -0.5 -74.5t-4 -76t-9.5 -81.5t-19 -77.5t-31.5 -79t-47 -70.5t-65.5 -67q-127 -108 -327 -108q-69 0 -136 14 z" />
<glyph unicode="&#x41c;" horiz-adv-x="2137" d="M103 0l305 1669h221l445 -1071l464 1071h221l276 -1669h-325l-146 1010l-450 -1032h-89l-430 1032l-168 -1010h-324z" />
<glyph unicode="&#x41d;" horiz-adv-x="1705" d="M187 0v1639h319v-633h693v633h320v-1639h-320v730h-693v-730h-319z" />
<glyph unicode="&#x41e;" horiz-adv-x="1965" d="M108 818q0 185 64.5 344.5t179 272.5t277.5 177t354 64t354 -64t277 -177t179 -272.5t65 -344.5t-65 -343.5t-179 -271t-277 -176.5t-354 -64t-354 64t-277.5 176.5t-179 271t-64.5 343.5zM438 818.5q0 -163.5 69 -292.5t193.5 -201t282.5 -72q118 0 219.5 42t173 116 t112.5 179.5t41 228t-41 228t-112.5 180t-173 117t-219.5 42.5q-158 0 -282.5 -72.5t-193.5 -202t-69 -293z" />
<glyph unicode="&#x41f;" horiz-adv-x="1670" d="M187 0v1639h1297v-1639h-319v1364h-659v-1364h-319z" />
<glyph unicode="&#x420;" horiz-adv-x="1311" d="M187 0v1639h477q151 0 249 -25t183 -100q32 -28 58 -61.5t44 -67.5t31 -68.5t20.5 -69.5t11 -66.5t3.5 -62.5q0 -24 -2 -50.5t-10.5 -69.5t-22 -82t-40 -83.5t-61.5 -80.5q-145 -145 -415 -145h-207v-607h-319zM506 882h130q43 0 69 1.5t67.5 14t73.5 36.5q29 22 49 54 t29.5 67t9.5 71q0 119 -92 187q-44 31 -99 41t-126 10h-111v-482z" />
<glyph unicode="&#x421;" horiz-adv-x="1483" d="M108 818q0 108 21 206.5t58.5 178t83 143t100.5 114.5q229 216 602 216q218 0 403 -100v-375q-42 49 -93 85t-93.5 54.5t-88 29.5t-71.5 13.5t-50 2.5q-120 0 -222.5 -47t-172 -126t-108.5 -182.5t-39 -216.5q0 -106 31 -198t85 -157.5t124.5 -112.5t150.5 -70t163 -23 q114 0 213 47t171 132v-373q-183 -96 -405 -96q-105 0 -195 17t-162.5 49t-130 71.5t-112.5 91.5q-139 133 -201 286.5t-62 339.5z" />
<glyph unicode="&#x422;" horiz-adv-x="1086" d="M14 1364v275h1058v-275h-369v-1364h-320v1364h-369z" />
<glyph unicode="&#x423;" horiz-adv-x="1498" d="M5 1639h373l416 -825l351 825h349l-760 -1639h-348l228 457z" />
<glyph unicode="&#x424;" horiz-adv-x="2038" d="M108 870q0 100 21 186t58.5 149t78 107t88.5 79q176 123 462 123h44v191h320v-191h44q286 0 462 -123q48 -35 88.5 -79t78 -107t58.5 -149t21 -186t-21 -186t-58.5 -149t-78 -107t-88.5 -79q-176 -123 -462 -123h-44v-226h-320v226h-44q-286 0 -462 123q-48 35 -88.5 79 t-78 107t-58.5 149t-21 186zM438 870q0 -195 132 -300q55 -43 111 -55.5t130 -12.5h49v736h-49q-148 0 -241 -68q-132 -100 -132 -300zM1180 502h49q33 0 58.5 1.5t59 8t65 21t60.5 37.5q24 19 45 43.5t41 60.5t32 86.5t12 109.5q0 102 -35.5 179.5t-94.5 120.5 q-91 68 -243 68h-49v-736z" />
<glyph unicode="&#x425;" horiz-adv-x="1572" d="M19 0l581 865l-490 774h384l287 -509l303 509h384l-504 -774l560 -865h-384l-359 600l-378 -600h-384z" />
<glyph unicode="&#x426;" horiz-adv-x="1695" d="M187 0v1639h319v-1364h650v1364h319v-1364h197v-643h-296v368h-1189z" />
<glyph unicode="&#x427;" horiz-adv-x="1522" d="M122 1135v504h321v-447q0 -37 1.5 -59.5t8.5 -56.5t24.5 -61t45.5 -49q70 -54 234 -54q140 0 261 17v710h319v-1639h-319v654q-177 -18 -293 -18q-297 0 -437 106q-52 38 -86.5 86.5t-51 103t-22.5 101t-6 102.5z" />
<glyph unicode="&#x428;" horiz-adv-x="2383" d="M187 0v1639h319v-1364h526v1364h319v-1364h527v1364h319v-1639h-2010z" />
<glyph unicode="&#x429;" horiz-adv-x="2418" d="M187 0v1639h319v-1364h526v1364h319v-1364h527v1364h319v-1364h197v-643h-295v368h-1912z" />
<glyph unicode="&#x42a;" horiz-adv-x="1538" d="M14 1364v275h664v-642h256q52 0 97 -4.5t100 -18t107.5 -41.5t98.5 -70q47 -43 80 -97t52.5 -123.5t19.5 -145.5q0 -81 -23.5 -158t-65.5 -137q-35 -52 -82.5 -90t-93.5 -59t-101 -33.5t-97 -16t-90 -3.5h-577v1364h-345zM678 275h187q20 0 35 0.5t47.5 5t58 12t56 24 t51 39.5t34 59t13.5 82q0 33 -7 63t-27 60.5t-51.5 52.5t-84 35.5t-120.5 13.5h-192v-447z" />
<glyph unicode="&#x42b;" horiz-adv-x="1965" d="M187 0v1639h319v-642h256q52 0 97.5 -4.5t100 -18t107.5 -41.5t98 -70q71 -66 112 -159t41 -207q0 -81 -24 -158t-65 -137q-35 -52 -82.5 -90t-93.5 -59t-101.5 -33.5t-97 -16t-90.5 -3.5h-577zM506 275h188q19 0 34 0.5t48 5t58 12t55.5 24t50.5 39.5t34 59t14 82 q0 33 -7.5 63t-27 60.5t-51 52.5t-83.5 35.5t-121 13.5h-192v-447zM1460 0v1639h320v-1639h-320z" />
<glyph unicode="&#x42c;" horiz-adv-x="1365" d="M187 0v1639h319v-642h256q52 0 97.5 -4.5t100 -18t107.5 -41.5t98 -70q71 -66 112 -159t41 -207q0 -81 -24 -158t-65 -137q-35 -52 -82.5 -90t-93.5 -59t-101.5 -33.5t-97 -16t-90.5 -3.5h-577zM506 275h188q19 0 34 0.5t48 5t58 12t55.5 24t50.5 39.5t34 59t14 82 q0 33 -7.5 63t-27 60.5t-51 52.5t-83.5 35.5t-121 13.5h-192v-447z" />
<glyph unicode="&#x42d;" horiz-adv-x="1501" d="M108 59v373q90 -93 203 -136t230 -43q91 0 176.5 27.5t157 80t122 136.5t67.5 188h-735v276h731q-14 83 -49 153t-84 119.5t-110.5 84.5t-128 51.5t-135.5 16.5q-48 0 -98 -8t-110 -27t-122 -57.5t-115 -92.5v375q194 100 427 100q113 0 212 -18.5t174 -51.5t129 -68.5 t97 -77.5q117 -113 181.5 -284t64.5 -358q0 -99 -18 -191t-43.5 -157t-61.5 -124t-63.5 -92t-56.5 -62q-230 -229 -611 -229q-236 0 -431 96z" />
<glyph unicode="&#x42e;" horiz-adv-x="2521" d="M187 0v1639h319v-633h226q42 242 206 420q233 250 630 250q186 0 344.5 -64.5t268 -177.5t171 -272t61.5 -343.5t-61.5 -343t-171 -271.5t-267.5 -177t-345 -64q-370 0 -597 219q-24 24 -46.5 50t-50.5 63.5t-52 82.5t-45 98t-35.5 118.5t-19.5 135.5h-216v-730h-319z M1052 818q0 -165 65 -294t182.5 -200t269 -71t269 71t182 200t64.5 294q0 114 -30 210t-81 161t-118 110t-139.5 66t-147.5 21t-147 -21t-139.5 -66t-118 -110t-81 -161t-30.5 -210z" />
<glyph unicode="&#x42f;" d="M30 0l486 664q-99 15 -179 73t-132.5 160t-52.5 236q0 126 45.5 222.5t116.5 158.5q46 41 98.5 67.5t109.5 38t104.5 15.5t107.5 4h476v-1639h-321v634h-59l-417 -634h-383zM481 1133q0 -51 15 -92t36 -66.5t54 -44t59.5 -27t62 -13t51.5 -5.5t38 -1h92v495h-98 q-20 0 -36.5 -1t-50.5 -5.5t-60.5 -13.5t-58.5 -27.5t-53.5 -43.5t-36 -65t-14.5 -90z" />
<glyph unicode="&#x430;" horiz-adv-x="1400" d="M89 533q0 117 38.5 220.5t107 179.5t167.5 120.5t215 44.5q232 0 342 -172v138h300v-1064h-300v138q-121 -173 -328 -173q-119 0 -221.5 45t-172.5 122t-109 180.5t-39 220.5zM398 533q0 -128 84 -214.5t211.5 -86.5t211 86.5t83.5 214.5t-83.5 214t-210.5 86 q-85 0 -152.5 -39.5t-105.5 -108t-38 -152.5z" />
<glyph unicode="&#x431;" horiz-adv-x="1414" d="M108 644q0 497 162 718q25 35 53.5 64.5t60.5 52.5t60 41t65 32.5t62 24t64 19.5t58 14l57 12q117 24 170.5 57.5t71.5 90.5h276q-12 -75 -42 -137t-64.5 -101t-81 -70t-82.5 -47t-79 -29q-49 -15 -114 -31t-102.5 -26t-81.5 -26.5t-78.5 -43t-66.5 -65.5 q-79 -98 -90 -240h5q58 72 160.5 108t212.5 36q246 0 399 -149q21 -20 40 -43t42.5 -62t41 -82t29 -102.5t11.5 -124.5q0 -255 -180 -420q-86 -79 -189 -114.5t-233 -35.5q-270 0 -425 141q-51 45 -87.5 103t-56.5 110.5t-31 116t-14 109t-3 99.5zM418 530q0 -126 84.5 -212 t215 -86t215.5 86t85 212q0 129 -84 216t-216.5 87t-216 -87t-83.5 -216z" />
<glyph unicode="&#x432;" horiz-adv-x="1119" d="M143 0v1064h469q37 0 59.5 -1t60 -6.5t70.5 -19.5t63 -36q31 -24 54 -55.5t36 -71.5t13 -83q0 -70 -38.5 -129t-108.5 -90q80 -15 140 -68q81 -72 81 -199q0 -150 -113 -237q-93 -68 -239 -68h-547zM443 236h139q76 0 112 27q38 29 38 86q0 52 -38 76q-38 25 -104 25 h-147v-214zM443 642h137q46 0 79 19q39 24 39 73q0 52 -34 77q-24 17 -89 17h-132v-186z" />
<glyph unicode="&#x433;" horiz-adv-x="835" d="M143 0v1064h678v-255h-378v-809h-300z" />
<glyph unicode="&#x434;" horiz-adv-x="1302" d="M10 256q44 2 83 23t64 49.5t42 62.5q42 89 42 273v400h885v-808h157v-566h-270v310h-733v-310h-270v566zM394 256h432v553h-315v-237q0 -108 -26.5 -185t-90.5 -131z" />
<glyph unicode="&#x435;" horiz-adv-x="1282" d="M89 530q0 257 162 419q152 149 401 149q271 0 415 -174q127 -153 127 -418v-25h-796q0 -109 52 -179q19 -25 44 -46t70.5 -37.5t99.5 -16.5q83 0 146.5 37t101.5 103l275 -44q-9 -23 -19.5 -44t-33.5 -56.5t-50 -64.5t-69.5 -61.5t-91 -54.5t-116 -37t-143.5 -15 q-251 0 -408 150q-167 157 -167 415zM408 673h504q-11 70 -51.5 119.5t-92.5 72t-109 22.5t-108.5 -23t-91 -72.5t-51.5 -118.5z" />
<glyph unicode="&#x436;" horiz-adv-x="1641" d="M-5 0l427 580l-405 484h349l319 -412v412h271v-412l320 412h349l-406 -484l427 -580h-363l-288 418l-39 -45v-373h-271v373l-38 45l-288 -418h-364z" />
<glyph unicode="&#x437;" horiz-adv-x="1081" d="M64 143l147 181q41 -39 94 -65t100.5 -37t91.5 -11q54 0 92.5 11.5t58 30.5t27.5 38t8 40q0 60 -57 89q-42 20 -127 20h-126v216h121q81 0 118 24q37 25 37 75q0 47 -38 77.5t-124 30.5q-137 0 -236 -84l-138 187q164 132 403 132q179 0 283 -71q50 -34 85 -90t35 -135 q0 -147 -147 -230q80 -18 140 -70q80 -73 80 -197q0 -85 -35.5 -146.5t-86.5 -99.5q-33 -25 -76.5 -43.5t-90.5 -29t-92.5 -16t-89.5 -5.5q-54 0 -107 7.5t-115 25.5t-123.5 55t-111.5 90z" />
<glyph unicode="&#x438;" horiz-adv-x="1375" d="M143 0v1064h300v-656l491 656h300v-1064h-300v656l-491 -656h-300z" />
<glyph unicode="&#x439;" horiz-adv-x="1375" d="M143 0v1064h300v-656l491 656h300v-1064h-300v656l-491 -656h-300zM286 1504l195 93q15 -67 72.5 -111t134.5 -44q72 0 130.5 40t75.5 115l197 -93q-21 -59 -57 -105t-77.5 -73t-91 -45t-92.5 -24.5t-85.5 -6.5t-85.5 6.5t-92 24.5t-90 45t-77.5 73t-56.5 105z" />
<glyph unicode="&#x43a;" horiz-adv-x="1228" d="M143 0v1064h300v-412l397 412h374l-482 -474l506 -590h-382l-369 440l-44 -44v-396h-300z" />
<glyph unicode="&#x43b;" horiz-adv-x="1228" d="M19 0v256q29 -5 47 -5q82 0 124 51q36 44 36 136v626h860v-1064h-300v809h-289v-391q0 -206 -101 -315q-12 -14 -31 -28.5t-54.5 -36t-88.5 -35t-114 -13.5q-49 0 -89 10z" />
<glyph unicode="&#x43c;" horiz-adv-x="1473" d="M30 0l193 1093h222l292 -641l293 641h220l195 -1093h-300l-88 577l-276 -599h-87l-276 599l-89 -577h-299z" />
<glyph unicode="&#x43d;" horiz-adv-x="1302" d="M143 0v1064h300v-376h417v376h300v-1064h-300v432h-417v-432h-300z" />
<glyph unicode="&#x43e;" d="M89 530q0 85 23 164.5t62.5 142.5t93.5 112q161 149 430 149q268 0 430 -149q82 -75 131 -183.5t49 -235.5q0 -124 -49 -232t-131 -183q-163 -150 -430 -150q-268 0 -430 150q-83 75 -131 183t-48 232zM398 530q0 -123 86 -210.5t214 -87.5q85 0 154 40.5t107 109 t38 148.5q0 127 -85.5 215t-213 88t-214 -88t-86.5 -215z" />
<glyph unicode="&#x43f;" horiz-adv-x="1292" d="M143 0v1064h1007v-1064h-299v809h-408v-809h-300z" />
<glyph unicode="&#x440;" horiz-adv-x="1400" d="M143 -570v1634h300v-138q37 53 84 89t95 53t87.5 23.5t78.5 6.5q155 0 275 -74t185 -202.5t65 -288.5q0 -161 -67 -290.5t-188.5 -203.5t-276.5 -74q-213 0 -338 173v-708h-300zM413 533q0 -84 37.5 -153t105.5 -108.5t152 -39.5q128 0 211.5 86.5t83.5 214.5t-83.5 214 t-211.5 86t-211.5 -86t-83.5 -214z" />
<glyph unicode="&#x441;" horiz-adv-x="1027" d="M89 528q0 69 13.5 133t38 118t57.5 100t74 82q156 137 384 137q156 0 287 -64v-295q-101 94 -245 94q-72 0 -130 -25t-94.5 -67.5t-56 -95.5t-19.5 -112q0 -131 87.5 -216t222.5 -85q132 0 235 92v-292q-132 -67 -275 -67q-121 0 -228 42t-182 113q-72 67 -120.5 169 t-48.5 239z" />
<glyph unicode="&#x442;" horiz-adv-x="918" d="M14 809v255h891v-255h-295v-809h-300v809h-296z" />
<glyph unicode="&#x443;" horiz-adv-x="1321" d="M5 1064h349l329 -604l295 604h340l-858 -1634h-340l391 730z" />
<glyph unicode="&#x444;" horiz-adv-x="1695" d="M89 533q0 69 13 131t33.5 108t49 86.5t56.5 67.5t59 50q145 103 373 103h25v560h299v-560h25q229 0 374 -103q40 -29 74 -66t66.5 -90.5t51.5 -127.5t19 -159t-19 -159.5t-51.5 -127.5t-67 -90.5t-73.5 -64.5q-74 -52 -174 -78.5t-200 -26.5h-25v-556h-299v556h-25 q-99 0 -199 26.5t-174 78.5q-40 27 -74.5 64.5t-66.5 90.5t-51 127.5t-19 159.5zM398 533q0 -159 108 -231q73 -51 192 -51v563q-112 4 -189 -50q-111 -75 -111 -231zM997 251q119 0 192 51q108 72 108 231q0 156 -110 231q-78 54 -190 50v-563z" />
<glyph unicode="&#x445;" horiz-adv-x="1390" d="M5 0l506 580l-408 484h378l217 -276l221 276h378l-415 -484l504 -580h-383l-305 371l-309 -371h-384z" />
<glyph unicode="&#x446;" horiz-adv-x="1332" d="M143 0v1064h300v-808h397v808h300v-808h173v-566h-271v310h-899z" />
<glyph unicode="&#x447;" horiz-adv-x="1189" d="M103 688v376h300v-314q0 -26 1.5 -40.5t10 -37t25.5 -38.5q15 -14 34.5 -23t44.5 -12t37.5 -3.5t36.5 -0.5q74 0 155 15v454h298v-1064h-298v364q-126 -24 -251 -24q-194 0 -298 98q-31 29 -51 61t-29.5 65.5t-12.5 61t-3 62.5z" />
<glyph unicode="&#x448;" horiz-adv-x="1872" d="M143 0v1064h300v-808h343v808h300v-808h344v808h300v-1064h-1587z" />
<glyph unicode="&#x449;" horiz-adv-x="1921" d="M143 0v1064h300v-808h343v808h300v-808h344v808h300v-808h172v-566h-270v310h-1489z" />
<glyph unicode="&#x44a;" horiz-adv-x="1238" d="M14 809v255h561v-379h234q80 0 156.5 -25.5t127.5 -82.5q82 -86 82 -228q0 -95 -33 -162t-80 -108q-92 -79 -239 -79h-548v809h-261zM575 236h140q75 0 111 27q39 30 39 86q0 51 -39 76q-38 25 -104 25h-147v-214z" />
<glyph unicode="&#x44b;" horiz-adv-x="1597" d="M143 0v1064h300v-379h233q80 0 157 -25.5t128 -82.5q81 -84 81 -228q0 -95 -33 -162t-80 -108q-92 -79 -239 -79h-547zM443 236h139q76 0 112 27q38 29 38 86q0 52 -38 76q-38 25 -104 25h-147v-214zM1156 0v1064h298v-1064h-298z" />
<glyph unicode="&#x44c;" horiz-adv-x="1105" d="M143 0v1064h300v-379h233q80 0 157 -25.5t128 -82.5q81 -84 81 -228q0 -95 -33 -162t-80 -108q-92 -79 -239 -79h-547zM443 236h139q76 0 112 27q38 29 38 86q0 52 -38 76q-38 25 -104 25h-147v-214z" />
<glyph unicode="&#x44d;" horiz-adv-x="1065" d="M84 22v290q41 -33 84.5 -55t85 -32t73 -13t67.5 -3q129 0 196 59q33 29 51 71.5t20 90.5h-440v217h440q-5 37 -20 69t-30 50t-31 31q-73 66 -189 66q-27 0 -57 -3.5t-71.5 -12.5t-87.5 -28.5t-86 -46.5v260q160 66 324 66q127 0 229.5 -36t185.5 -124q27 -28 51 -63 t47.5 -85t37.5 -117.5t14 -142.5q0 -89 -21 -170t-55.5 -140.5t-80.5 -104.5q-70 -70 -177 -111t-231 -41q-75 0 -167 14t-162 45z" />
<glyph unicode="&#x44e;" horiz-adv-x="1843" d="M143 0v1064h300v-400h144q26 164 152 285q156 149 416.5 149t422.5 -149q80 -72 128 -182.5t48 -236.5q0 -123 -48 -231.5t-128 -183.5q-22 -21 -47.5 -39.5t-65.5 -39.5t-83.5 -36t-102.5 -25t-123 -10q-258 0 -417 150q-126 121 -152 293h-144v-408h-300zM865 530 q0 -125 82.5 -211.5t208.5 -86.5q82 0 149 40t103.5 108.5t36.5 149.5q0 129 -82 216t-207.5 87t-208 -87t-82.5 -216z" />
<glyph unicode="&#x44f;" horiz-adv-x="1130" d="M49 0l315 398q-18 3 -38.5 8t-62 25.5t-71.5 49.5q-84 84 -84 227q0 164 128 268q31 24 66 41t66 26t69 14t64.5 6t63.5 1h423v-1064h-300v373h-34l-260 -373h-345zM418 706q0 -60 39 -89q36 -27 101 -27h130v238h-130q-25 0 -36 -0.5t-30.5 -7.5t-34.5 -21 q-39 -36 -39 -93z" />
<glyph unicode="&#x451;" horiz-adv-x="1282" d="M89 530q0 257 162 419q152 149 401 149q271 0 415 -174q127 -153 127 -418v-25h-796q0 -109 52 -179q19 -25 44 -46t70.5 -37.5t99.5 -16.5q83 0 146.5 37t101.5 103l275 -44q-9 -23 -19.5 -44t-33.5 -56.5t-50 -64.5t-69.5 -61.5t-91 -54.5t-116 -37t-143.5 -15 q-251 0 -408 150q-167 157 -167 415zM221 1440q0 72 52.5 125t124.5 53t124.5 -53t52.5 -125t-52.5 -124t-124.5 -52t-124.5 52t-52.5 124zM408 673h504q-11 70 -51.5 119.5t-92.5 72t-109 22.5t-108.5 -23t-91 -72.5t-51.5 -118.5zM732 1440q0 72 53 125t125 53 q35 0 67.5 -14.5t56.5 -38.5t38 -57t14 -68q0 -72 -52 -124t-124.5 -52t-125 52t-52.5 124z" />
<glyph unicode="&#x452;" horiz-adv-x="1336" d="M-24 1398v192h191v251h300v-251h492v-192h-492v-472q122 172 330 172q53 0 105 -10t111 -40.5t98 -79.5q50 -62 66.5 -134t16.5 -166v-907q0 -40 -4 -74.5t-16 -74.5t-37 -75.5t-63 -62.5q-96 -67 -244 -67q-99 0 -186 23v265q56 -21 116 -21q79 0 112 54q8 13 13 29.5 t6.5 39t2 37t0.5 41.5v705q0 22 -0.5 39t-4 43t-9 46t-16.5 42t-26 38q-52 54 -140 54q-122 0 -184 -92q-30 -46 -38.5 -95.5t-8.5 -110.5v-544h-300v1398h-191z" />
<glyph unicode="&#x453;" horiz-adv-x="835" d="M143 0v1064h678v-255h-378v-809h-300zM344 1351l290 370l217 -138l-370 -330z" />
<glyph unicode="&#x454;" horiz-adv-x="1065" d="M89 523q0 130 45.5 233.5t118.5 174.5q167 167 437 167q170 0 288 -73v-261q-63 48 -136.5 73.5t-140.5 25.5q-117 0 -202 -72q-76 -63 -101 -153h472v-216h-472q5 -53 32.5 -95t66.5 -67q73 -49 225 -49q160 0 261 94v-291q-115 -49 -285 -49q-120 0 -239 36t-199 107 q-82 73 -126.5 186t-44.5 229z" />
<glyph unicode="&#x455;" horiz-adv-x="992" d="M73 143l159 181q46 -54 108.5 -88t126.5 -34q42 0 75 13t52.5 39.5t19.5 62.5q0 74 -93 108l-69 25q-50 19 -81 31.5t-74.5 39t-73.5 56.5q-80 85 -80 204q0 74 30.5 137t79.5 104q96 76 277 76q192 0 340 -113l-148 -174q-76 71 -174 71q-35 0 -61 -10.5t-40.5 -30 t-14.5 -44.5q0 -65 96 -96l72 -23q45 -15 71.5 -25t69.5 -29t75 -44t54 -54q54 -74 54 -177q0 -162 -118 -270q-124 -114 -319 -114q-248 0 -414 178z" />
<glyph unicode="&#x456;" horiz-adv-x="584" d="M113 1514.5q0 73.5 53 126t127 52.5t126.5 -52.5t52.5 -126.5q0 -48 -24 -89.5t-65.5 -66t-89.5 -24.5q-74 0 -127 53.5t-53 127zM143 0v1064h300v-1064h-300z" />
<glyph unicode="&#x457;" horiz-adv-x="584" d="M-2 1440q0 55 39 94t94 39t93.5 -39t38.5 -94t-38.5 -93.5t-93.5 -38.5t-94 38.5t-39 93.5zM143 0v1064h300v-1064h-300zM322 1440q0 55 39 94t94 39t93.5 -39t38.5 -94t-38.5 -93.5t-93.5 -38.5t-94 38.5t-39 93.5z" />
<glyph unicode="&#x458;" horiz-adv-x="584" d="M113 1514.5q0 73.5 53 126t127 52.5t126.5 -52.5t52.5 -126.5q0 -48 -24 -89.5t-65.5 -66t-89.5 -24.5q-74 0 -127 53.5t-53 127zM143 -570v1634h300v-1634h-300z" />
<glyph unicode="&#x459;" horiz-adv-x="1749" d="M19 0v256q29 -5 47 -5q82 0 124 51q36 44 36 136v626h860v-379h234q186 0 284 -108q82 -86 82 -228q0 -95 -33 -162t-80 -108q-92 -79 -239 -79h-548v809h-289v-391q0 -206 -101 -315q-12 -14 -31 -28.5t-54.5 -36t-88.5 -35t-114 -13.5q-49 0 -89 10zM1086 236h140 q75 0 111 27q39 30 39 86q0 51 -39 76q-38 25 -103 25h-148v-214z" />
<glyph unicode="&#x45a;" horiz-adv-x="1822" d="M143 0v1064h300v-376h417v376h300v-379h233q187 0 286 -108q80 -84 80 -228q0 -95 -32.5 -162t-80.5 -108q-91 -79 -237 -79h-549v432h-417v-432h-300zM1160 236h140q76 0 111 27q39 29 39 86q0 52 -39 76q-38 25 -103 25h-148v-214z" />
<glyph unicode="&#x45b;" horiz-adv-x="1336" d="M-24 1398v192h191v251h300v-251h492v-192h-492v-472q122 172 330 172q53 0 105 -10t111 -40.5t98 -79.5q50 -62 66.5 -134t16.5 -166v-668h-300v580q0 22 -0.5 39t-4 43t-9 46t-16.5 42t-26 38q-52 54 -140 54q-122 0 -184 -92q-30 -46 -38.5 -95.5t-8.5 -110.5v-544 h-300v1398h-191z" />
<glyph unicode="&#x45c;" horiz-adv-x="1228" d="M143 0v1064h300v-412l397 412h374l-482 -474l506 -590h-382l-369 440l-44 -44v-396h-300zM492 1351l289 370l216 -138l-368 -330z" />
<glyph unicode="&#x45e;" horiz-adv-x="1321" d="M5 1064h349l329 -604l295 604h340l-858 -1634h-340l391 730zM270 1504l197 93q14 -67 72 -111t134 -44q46 0 87.5 16.5t74.5 52.5t45 86l196 -93q-20 -59 -56.5 -105t-78 -73t-90.5 -45t-92 -24.5t-86 -6.5q-35 0 -70.5 5t-76 15.5t-78 30t-71.5 46.5t-62 67t-45 90z" />
<glyph unicode="&#x45f;" horiz-adv-x="1282" d="M143 0v1064h300v-808h397v808h300v-1064h-364v-394h-270v394h-363z" />
<glyph unicode="&#x490;" horiz-adv-x="1168" d="M187 0v1639h673v369h296v-644h-650v-1364h-319z" />
<glyph unicode="&#x491;" horiz-adv-x="933" d="M143 0v1064h506v310h270v-565h-476v-809h-300z" />
<glyph unicode="&#x2013;" horiz-adv-x="1473" d="M122 438v256h1229v-256h-1229z" />
<glyph unicode="&#x2014;" horiz-adv-x="1965" d="M122 438v256h1721v-256h-1721z" />
<glyph unicode="&#x2018;" horiz-adv-x="746" d="M103 1018l347 651l188 -23l-260 -661z" />
<glyph unicode="&#x2019;" horiz-adv-x="908" d="M103 1010l261 662l274 -33l-345 -651z" />
<glyph unicode="&#x201a;" horiz-adv-x="908" d="M103 -322l261 662l274 -33l-345 -651z" />
<glyph unicode="&#x201c;" horiz-adv-x="1208" d="M103 1018l347 651l188 -23l-260 -661zM565 1018l347 651l190 -23l-262 -661z" />
<glyph unicode="&#x201d;" horiz-adv-x="1400" d="M103 1010l261 662l274 -33l-345 -651zM565 1010l261 662l276 -33l-347 -651z" />
<glyph unicode="&#x201e;" horiz-adv-x="1400" d="M103 -322l261 662l274 -33l-345 -651zM565 -322l261 662l276 -33l-347 -651z" />
<glyph unicode="&#x2020;" d="M167 1194v256h389v391h284v-391h389v-256h-389v-1588h-284v1588h-389z" />
<glyph unicode="&#x2021;" d="M167 413v255h389v526h-389v256h389v391h284v-391h389v-256h-389v-526h389v-255h-389v-807h-284v807h-389z" />
<glyph unicode="&#x2022;" horiz-adv-x="1641" d="M476 835q0 93 46.5 172.5t126 126t172.5 46.5t172.5 -46.5t125.5 -126t46 -172.5q0 -70 -27.5 -133.5t-73.5 -109.5t-109.5 -73t-133.5 -27t-134 27t-110 73t-73.5 109.5t-27.5 133.5z" />
<glyph unicode="&#x2026;" horiz-adv-x="2078" d="M155 160q0 81 55.5 136.5t136.5 55.5t136.5 -55.5t55.5 -136.5t-55.5 -136.5t-136.5 -55.5t-136.5 55.5t-55.5 136.5zM848 160q0 53 25 97t69 69.5t97 25.5q81 0 136.5 -55.5t55.5 -136.5t-55.5 -136.5t-136.5 -55.5t-136 55t-55 137zM1541 160q0 81 55.5 136.5 t136.5 55.5t136.5 -55.5t55.5 -136.5t-55.5 -136.5t-136.5 -55.5t-136.5 55.5t-55.5 136.5z" />
<glyph unicode="&#x2030;" horiz-adv-x="2875" d="M73 1270.5q0 83.5 29 155t82 123t131 80.5t172 29t172 -29t130.5 -80.5t81.5 -123t29 -155t-29 -155t-81.5 -123t-130.5 -81t-172 -29.5t-172 29.5t-131 81t-82 123t-29 155zM280 1271q0 -92 58.5 -151.5t148.5 -59.5t148.5 59.5t58.5 151.5t-58.5 151.5t-148.5 59.5 t-148.5 -59.5t-58.5 -151.5zM398 7l976 1686l130 -73l-976 -1688zM1003 363.5q0 83.5 29 155t81.5 123.5t130.5 81t172 29t172 -29t130.5 -81t81.5 -123.5t29 -155t-29 -154.5t-81.5 -123t-130.5 -81t-172 -29t-172 29t-130.5 81t-81.5 123t-29 154.5zM1210 364 q0 -61 26 -109t73.5 -75.5t106.5 -27.5q90 0 148 60t58 151.5t-58 151.5t-148 60t-148 -60t-58 -151zM1976 363.5q0 83.5 29 155t81.5 123.5t130.5 81t172 29t172 -29t130.5 -81t81.5 -123.5t29 -155t-29 -154.5t-81.5 -123t-130.5 -81t-172 -29t-172 29t-130.5 81 t-81.5 123t-29 154.5zM2183 364q0 -61 26.5 -109t73.5 -75.5t106 -27.5q90 0 148.5 60t58.5 151.5t-58.5 151.5t-148.5 60t-148 -60t-58 -151z" />
<glyph unicode="&#x2039;" horiz-adv-x="781" d="M98 539l389 525l172 -123l-300 -402l300 -403l-172 -124z" />
<glyph unicode="&#x203a;" horiz-adv-x="781" d="M122 136l300 403l-300 402l173 123l388 -525l-388 -527z" />
<glyph unicode="&#x20ac;" d="M47 533l80 222h96q-2 19 -2 73q0 47 2 66h-176l80 222h119q24 129 73 229.5t126.5 175.5t191 115t257.5 40q130 0 237 -26.5t157 -59.5v-290q-52 45 -141.5 77t-210.5 32q-325 0 -383 -293h654l-79 -222h-607q0 -7 -1.5 -29t-1.5 -35q0 -14 1.5 -40.5t1.5 -34.5h553 l-79 -222h-439q26 -147 122 -224t260 -77q120 0 208 31t142 79v-295q-44 -31 -147.5 -56.5t-246.5 -25.5q-176 0 -307 60t-218.5 187.5t-120.5 320.5h-201z" />
<glyph unicode="&#x2116;" horiz-adv-x="2653" d="M187 0v1639h319l753 -1104v1104h319v-1639h-319l-753 1104v-1104h-319zM1726 1250.5q0 83.5 28.5 155t81 123t130.5 81t172 29.5t172 -29.5t130.5 -81t81.5 -123t29 -155t-28.5 -155t-81.5 -123t-131 -80.5t-172 -29t-172 29t-130.5 80.5t-81 123t-28.5 155zM1775 484 v212h727v-212h-727zM1932 1250q0 -91 58 -151t148 -60t148.5 60t58.5 151q0 46 -15.5 85.5t-42.5 67.5t-65.5 44t-83.5 16q-59 0 -106 -27.5t-73.5 -76t-26.5 -109.5z" />
<glyph unicode="&#x2122;" horiz-adv-x="1768" d="M-5 1452v187h612v-187h-201v-746h-209v746h-202zM638 706l168 950h153l228 -568l241 568h152l150 -950h-208l-72 513l-221 -525h-84l-216 525l-81 -513h-210z" />
<glyph unicode="&#xe000;" horiz-adv-x="1068" d="M0 0v1069h1069v-1069h-1069z" />
</font>
</defs>
</svg>
