<?xml version="1.0" standalone="no"?>
<!DOCTYPE svg PUBLIC "-//W3C//DTD SVG 1.1//EN" "http://www.w3.org/Graphics/SVG/1.1/DTD/svg11.dtd" >
<svg xmlns="http://www.w3.org/2000/svg">
<metadata>
This is a custom SVG webfont generated by Font Squirrel.
Copyright   : Copyright c 2011 Cyreal wwwcyrealorg with Reserved Font Name Rationale
Designer    : Cyreal wwwcyrealorg
Foundry     : Cyreal wwwcyrealorg
Foundry URL : httpcyrealorg
</metadata>
<defs>
<font id="RationaleOneRegular" horiz-adv-x="892" >
<font-face units-per-em="2048" ascent="1638" descent="-410" />
<missing-glyph horiz-adv-x="399" />
<glyph unicode=" "  horiz-adv-x="399" />
<glyph unicode="&#x09;" horiz-adv-x="399" />
<glyph unicode="&#xa0;" horiz-adv-x="399" />
<glyph unicode="!" horiz-adv-x="462" d="M147 55v109h125q33 0 44.5 -11t11.5 -44v-109h-125q-33 0 -44.5 11.5t-11.5 43.5zM147 328v1050q0 33 11.5 44.5t44.5 11.5h108v-1051q0 -33 -11 -44t-44 -11h-109z" />
<glyph unicode="&#x22;" horiz-adv-x="657" d="M125 1161v273h84q33 0 44 -11.5t11 -44.5v-272h-84q-33 0 -44 11t-11 44zM391 1161v273h84q33 0 44 -11.5t11 -44.5v-272h-84q-33 0 -44 11t-11 44z" />
<glyph unicode="#" horiz-adv-x="1638" d="M147 0v1378q0 33 11.5 44.5t44.5 11.5h116l355 -863l74 -227h4l-19 231v803q0 33 11 44.5t44 11.5h109v-1379q0 -33 -11.5 -44t-43.5 -11h-90l-377 905l-78 228h-4l18 -236v-842q0 -33 -11 -44t-44 -11h-109zM1090 670v63h383q33 0 44 -11t11 -44v-64h-383 q-33 0 -44 11.5t-11 44.5zM1090 1014v246q0 106 33.5 140t140.5 34h90q106 0 140 -34t34 -140v-246q0 -106 -34 -140t-140 -34h-90q-106 0 -140 33.5t-34 140.5zM1223 1044q0 -61 17 -78.5t69 -17.5q53 0 69.5 17.5t16.5 78.5v185q0 61 -17.5 78.5t-68.5 17.5 q-53 0 -69.5 -17.5t-16.5 -78.5v-185z" />
<glyph unicode="$" horiz-adv-x="890" d="M131 283h369q59 0 77.5 24.5t18.5 91.5v168q0 68 -19.5 92.5t-84.5 24.5h-166q-106 0 -150.5 44t-44.5 151v176q0 106 44 150t151 44h57v129q0 33 11.5 44.5t43.5 11.5h84v-185h119q57 0 77.5 -27.5t24.5 -91.5h-352q-59 0 -77.5 -24.5t-18.5 -91.5v-94q0 -68 18.5 -92.5 t77.5 -24.5h174q106 0 150.5 -44t44.5 -151v-250q0 -106 -44 -150t-151 -44h-41v-109q0 -33 -11 -44t-44 -11h-80v164h-156q-57 0 -77.5 27.5t-24.5 91.5z" />
<glyph unicode="%" horiz-adv-x="1292" d="M106 1014v246q0 106 34 140t141 34h90q106 0 140 -34t34 -140v-246q0 -106 -34 -140t-140 -34h-90q-106 0 -140.5 33.5t-34.5 140.5zM195 0l671 1378q14 33 31.5 44.5t50.5 11.5h109l-672 -1379q-14 -33 -31.5 -44t-50.5 -11h-108zM240 1044q0 -61 17 -78.5t69 -17.5 q53 0 69.5 17.5t16.5 78.5v185q0 61 -17.5 78.5t-68.5 17.5q-53 0 -69.5 -17.5t-16.5 -78.5v-185zM750 174v246q0 106 33.5 140t140.5 34h90q106 0 140 -34t34 -140v-246q0 -106 -34 -140t-140 -34h-90q-106 0 -140 34t-34 140zM883 205q0 -61 17.5 -78.5t68.5 -17.5 q53 0 69.5 17t16.5 79v184q0 61 -17.5 78.5t-68.5 17.5q-53 0 -69.5 -17.5t-16.5 -78.5v-184z" />
<glyph unicode="&#x26;" horiz-adv-x="927" d="M135 195v372q0 156 113 185v4q-59 14 -86 57t-27 127v299q0 106 44 150.5t151 44.5h262q57 0 77.5 -28t24.5 -91h-299q-59 0 -77.5 -24.5t-18.5 -92.5v-278q0 -68 18.5 -92.5t77.5 -24.5h189v63q0 33 11 44.5t44 11.5h96v-119h78q31 0 41 -11t10 -44v-64h-129v-629 q0 -33 -11 -44t-44 -11h-96v684h-189q-59 0 -77.5 -24.5t-18.5 -92.5v-331q0 -68 18.5 -92.5t77.5 -24.5h148v-64q0 -33 -10.5 -44t-40.5 -11h-162q-106 0 -150.5 44t-44.5 151z" />
<glyph unicode="'" horiz-adv-x="391" d="M125 1161v273h84q33 0 44 -11.5t11 -44.5v-272h-84q-33 0 -44 11t-11 44z" />
<glyph unicode="(" horiz-adv-x="573" d="M145 -20v1372q0 106 41.5 150t145.5 44h110q33 0 42.5 -10t9.5 -45v-64h-97q-59 0 -77.5 -24.5t-18.5 -91.5v-1291q0 -68 18.5 -92t77.5 -24h97v-64q0 -35 -9.5 -45t-42.5 -10h-110q-104 0 -145.5 44t-41.5 151z" />
<glyph unicode=")" horiz-adv-x="575" d="M80 -96h96q59 0 77.5 24.5t18.5 91.5v1291q0 68 -18 92t-78 24h-96v64q0 35 9 45t42 10h111q104 0 145 -44t41 -150v-1372q0 -106 -41 -150.5t-145 -44.5h-111q-33 0 -42 10t-9 45v64z" />
<glyph unicode="*" horiz-adv-x="903" d="M102 977l230 131l-182 106q-29 16 -32 31.5t13 44.5l31 53l229 -133v211q0 33 11.5 44.5t43.5 11.5h64v-267l182 107q27 16 43.5 11t30.5 -32l33 -55l-230 -133l183 -104q29 -16 31.5 -32t-13.5 -44l-31 -54l-229 132v-209q0 -33 -11.5 -44.5t-43.5 -11.5h-64v265 l-182 -105q-27 -16 -43 -11t-31 32z" />
<glyph unicode="+" d="M139 739v64h248v190q0 33 11 44.5t44 11.5h64v-246h192q33 0 44.5 -11.5t11.5 -43.5v-64h-248v-195q0 -33 -11.5 -44t-43.5 -11h-64v250h-192q-33 0 -44.5 11.5t-11.5 43.5z" />
<glyph unicode="," horiz-adv-x="440" d="M133 55v109h125q33 0 44 -11.5t11 -43.5v-175q0 -72 -31.5 -136.5t-86.5 -76.5v279h-7q-33 0 -44 11.5t-11 43.5z" />
<glyph unicode="-" horiz-adv-x="884" d="M135 739v64h559q33 0 44.5 -11.5t11.5 -43.5v-64h-560q-33 0 -44 11t-11 44z" />
<glyph unicode="." horiz-adv-x="440" d="M133 55v109h125q33 0 44 -11t11 -44v-109h-125q-33 0 -44 11.5t-11 43.5z" />
<glyph unicode="/" horiz-adv-x="802" d="M84 -248l465 1749q10 33 23 44t46 11h101l-465 -1749q-10 -33 -23.5 -44t-46.5 -11h-100z" />
<glyph unicode="0" horiz-adv-x="899" d="M143 195v1044q0 106 44 150.5t151 44.5h223q106 0 150.5 -44t44.5 -151v-1044q0 -106 -44 -150.5t-151 -44.5h-223q-106 0 -150.5 44.5t-44.5 150.5zM297 236q0 -68 18.5 -92.5t77.5 -24.5h113q59 0 77.5 24.5t18.5 92.5v962q0 68 -18.5 92.5t-77.5 24.5h-113 q-59 0 -77.5 -24.5t-18.5 -92.5v-962z" />
<glyph unicode="1" horiz-adv-x="458" d="M147 0v1264q0 80 39 116t125 54v-1379q0 -33 -11 -44t-44 -11h-109z" />
<glyph unicode="2" horiz-adv-x="823" d="M123 195v413q0 117 40 156t154 39h119q61 0 78.5 21.5t17.5 95.5v278q0 68 -18 92.5t-78 24.5h-301q12 61 39 90t84 29h244q106 0 150 -44.5t44 -150.5v-360q0 -117 -40 -156t-154 -39h-119q-61 0 -78.5 -21.5t-17.5 -95.5v-331q0 -68 18.5 -92.5t77.5 -24.5h313v-64 q0 -33 -11 -44t-44 -11h-324q-106 0 -150 44t-44 151z" />
<glyph unicode="3" horiz-adv-x="802" d="M90 1315q12 61 39 90t84 29h244q106 0 150 -44t44 -151v-299q0 -88 -19.5 -130t-76.5 -54v-2q113 -29 113 -187v-372q0 -106 -44 -150.5t-151 -44.5h-244q-57 0 -83.5 28.5t-39.5 90.5h302q59 0 77.5 24.5t18.5 92.5v331q0 63 -26.5 90t-90.5 27h-172v64q0 33 11.5 44 t43.5 11h129q53 2 70.5 28t17.5 89v278q0 68 -18 92.5t-78 24.5h-301z" />
<glyph unicode="4" horiz-adv-x="880" d="M98 879v499q0 33 11.5 44.5t44.5 11.5h108v-514q0 -74 17.5 -95.5t78.5 -21.5h211v575q0 33 11.5 44.5t44.5 11.5h108v-1379q0 -33 -11 -44t-44 -11h-109v684h-276q-115 0 -155 39t-40 156z" />
<glyph unicode="5" horiz-adv-x="839" d="M125 119h336q59 0 77.5 24.5t18.5 92.5v331q0 68 -18.5 92.5t-77.5 24.5h-271q-33 0 -44 11.5t-11 43.5v639q0 33 11.5 44.5t43.5 11.5h504v-64q0 -33 -10 -44t-41 -11h-352l-2 -512h237q106 0 150.5 -44t44.5 -151v-413q0 -106 -44 -150.5t-151 -44.5h-278 q-57 0 -84 28.5t-39 90.5z" />
<glyph unicode="6" horiz-adv-x="894" d="M143 195v1044q0 106 44 150.5t151 44.5h285q57 0 83.5 -29t38.5 -90h-342q-59 0 -77.5 -24.5t-18.5 -92.5v-962q0 -68 18.5 -92.5t77.5 -24.5h113q59 0 77.5 24.5t18.5 92.5v331q0 68 -18.5 92.5t-77.5 24.5h-168v64q0 33 10 44t41 11h183q106 0 150 -44t44 -151v-413 q0 -106 -44 -150.5t-150 -44.5h-244q-106 0 -150.5 44t-44.5 151z" />
<glyph unicode="7" horiz-adv-x="733" d="M68 1315v63q0 33 11 44.5t44 11.5h495q31 0 39.5 -11.5t10.5 -44.5v-63l-353 -1315h-155l350 1315h-442z" />
<glyph unicode="8" horiz-adv-x="909" d="M141 195v372q0 158 113 187v2q-59 14 -86 57t-27 127v299q0 109 40 152t145 43h258q104 0 144 -43t40 -152v-299q0 -84 -26.5 -127t-86.5 -57v-2q113 -29 113 -187v-372q0 -109 -37 -152t-141 -43h-264q-104 0 -144.5 43t-40.5 152zM305 236q0 -68 18.5 -92.5t77.5 -24.5 h107q59 0 77.5 24.5t18.5 92.5v331q0 68 -18.5 92.5t-77.5 24.5h-107q-59 0 -77.5 -24.5t-18.5 -92.5v-331zM305 920q0 -68 18.5 -92.5t77.5 -24.5h107q59 0 77.5 24.5t18.5 92.5v286q0 68 -18.5 92.5t-77.5 24.5h-107q-59 0 -77.5 -24.5t-18.5 -92.5v-286z" />
<glyph unicode="9" horiz-adv-x="874" d="M119 825v414q0 106 44 150.5t150 44.5h224q106 0 150 -44t44 -151v-1044q0 -106 -44 -150.5t-150 -44.5h-267q-57 0 -83.5 28.5t-39.5 90.5h324q59 0 77.5 24.5t18.5 92.5v970q0 68 -18.5 92.5t-77.5 24.5h-92q-59 0 -77.5 -24.5t-18.5 -92.5v-340q0 -68 18 -92t78 -24 h147v-64q0 -33 -10 -44t-41 -11h-162q-106 0 -150 44t-44 150z" />
<glyph unicode=":" horiz-adv-x="450" d="M135 55v109h125q33 0 44 -11t11 -44v-109h-125q-33 0 -44 11.5t-11 43.5zM135 813v109h125q33 0 44 -11.5t11 -44.5v-108h-125q-33 0 -44 11t-11 44z" />
<glyph unicode=";" horiz-adv-x="450" d="M133 55v109h125q33 0 44 -11.5t11 -43.5v-175q0 -72 -31.5 -136.5t-86.5 -76.5v279h-7q-33 0 -44 11.5t-11 43.5zM133 813v109h125q33 0 44 -11.5t11 -44.5v-108h-125q-33 0 -44 11t-11 44z" />
<glyph unicode="&#x3c;" horiz-adv-x="714" d="M109 672q-39 36 0 73l419 416l47 -47q23 -23 22 -38t-24 -38l-331 -329l331 -330q23 -23 24 -38t-22 -38l-47 -47z" />
<glyph unicode="=" d="M139 565v64h559q33 0 44.5 -11.5t11.5 -44.5v-63h-559q-33 0 -44.5 11t-11.5 44zM139 842v63h559q33 0 44.5 -11t11.5 -44v-64h-559q-33 0 -44.5 11.5t-11.5 44.5z" />
<glyph unicode="&#x3e;" horiz-adv-x="712" d="M117.5 341q1.5 15 23.5 38l332 330l-332 329q-23 23 -23.5 38.5t21.5 37.5l47 47l420 -416q39 -36 0 -73l-420 -416l-47 47q-23 23 -21.5 38z" />
<glyph unicode="?" horiz-adv-x="776" d="M100 1315q12 61 39 90t84 29h248q106 0 150.5 -44t44.5 -151v-324q0 -106 -44.5 -150t-150.5 -44h-14q-59 0 -78 -24.5t-19 -92.5v-285h-163v326q0 106 44 150.5t150 44.5h15q59 0 77.5 24.5t18.5 91.5v242q0 68 -18.5 92.5t-77.5 24.5h-306zM197 55v109h125q33 0 44 -11 t11 -44v-109h-125q-33 0 -44 11.5t-11 43.5z" />
<glyph unicode="@" horiz-adv-x="1019" d="M135 195v628q0 106 44 150.5t151 44.5h387q100 -2 137 -45t37 -150v-561h-94q-33 0 -44.5 11.5t-11.5 43.5v320h-53q-76 0 -96.5 -20.5t-20.5 -96.5v-22q0 -76 16.5 -96.5t80.5 -20.5h32v-64q0 -33 -10 -44t-41 -11h-26q-106 0 -150.5 44t-44.5 151v104q0 106 44 150.5 t151 44.5h118v26q0 63 -16 89t-68 28h-272q-59 0 -77.5 -24.5t-18.5 -92.5v-546q0 -68 18.5 -92.5t77.5 -24.5h485v-64q0 -33 -11 -44t-44 -11h-485q-106 0 -150.5 44t-44.5 151z" />
<glyph unicode="A" horiz-adv-x="976" d="M147 0v1239q0 106 44.5 150.5t150.5 44.5h295q106 0 150 -44t44 -151v-1184q0 -33 -11 -44t-44 -11h-108v1198q0 63 -16.5 89t-67.5 28h-189q-53 -2 -68.5 -27.5t-15.5 -89.5v-395h316v-64q0 -33 -10.5 -44t-41.5 -11h-264v-629q0 -33 -11 -44t-44 -11h-109z" />
<glyph unicode="B" horiz-adv-x="952" d="M147 0v1378q0 33 11.5 44.5t44.5 11.5h413q106 0 150.5 -44t44.5 -151v-299q0 -158 -113 -184v-4q113 -29 113 -185v-372q0 -106 -44.5 -150.5t-150.5 -44.5h-213q-31 0 -41 11.5t-10 43.5v64h199q59 0 77.5 24.5t18.5 92.5v331q0 68 -18.5 92.5t-77.5 24.5h-240v-684 h-164zM311 803h252q51 2 67.5 27.5t16.5 89.5v278q0 68 -18.5 92.5t-77.5 24.5h-240v-512z" />
<glyph unicode="C" horiz-adv-x="798" d="M143 195v1044q0 106 44 150.5t151 44.5h264q57 0 84 -29t39 -90h-322q-59 0 -77.5 -24.5t-18.5 -92.5v-962q0 -68 18.5 -92.5t77.5 -24.5h322v-64q0 -33 -10 -44t-41 -11h-336q-106 0 -150.5 44t-44.5 151z" />
<glyph unicode="D" horiz-adv-x="974" d="M147 0v1378q0 33 11.5 44.5t44.5 11.5h434q106 0 150 -44t44 -151v-1044q0 -106 -44 -150.5t-150 -44.5h-234q-31 0 -41 11.5t-10 43.5v64h219q59 0 78 24.5t19 92.5v962q0 68 -18.5 92.5t-78.5 24.5h-260v-1315h-164z" />
<glyph unicode="E" horiz-adv-x="796" d="M147 0v1378q0 33 11.5 44.5t44.5 11.5h499v-64q0 -33 -10 -44t-41 -11h-340v-512h330v-64q0 -33 -10 -44t-41 -11h-279v-565h391v-64q0 -33 -11 -44t-44 -11h-500z" />
<glyph unicode="F" horiz-adv-x="763" d="M147 0v1378q0 33 11.5 44.5t44.5 11.5h499v-64q0 -33 -10 -44t-41 -11h-340v-512h330v-64q0 -33 -10 -44t-41 -11h-279v-629q0 -33 -11 -44t-44 -11h-109z" />
<glyph unicode="G" horiz-adv-x="950" d="M143 195v1044q0 106 44 150.5t151 44.5h399q31 0 41 -11.5t10 -44.5v-63h-385q-59 0 -77.5 -24.5t-18.5 -92.5v-962q0 -68 18.5 -92.5t77.5 -24.5h164q59 0 78 24.5t19 92.5v448h-177v64q0 33 11.5 44t44.5 11h284v-608q0 -106 -45 -150.5t-151 -44.5h-293 q-106 0 -150.5 44t-44.5 151z" />
<glyph unicode="H" horiz-adv-x="1019" d="M147 0v1378q0 33 11.5 44.5t44.5 11.5h108v-631h357v-64q0 -33 -10.5 -44t-41.5 -11h-305v-629q0 -33 -11 -44t-44 -11h-109zM709 0v1378q0 33 11 44.5t44 11.5h108v-1379q0 -33 -11 -44t-44 -11h-108z" />
<glyph unicode="I" horiz-adv-x="458" d="M147 0v1378q0 33 11.5 44.5t44.5 11.5h108v-1379q0 -33 -11 -44t-44 -11h-109z" />
<glyph unicode="J" horiz-adv-x="458" d="M-66 -172q0 33 10.5 44t41.5 11h65q59 0 77.5 24.5t18.5 92.5v1378q0 33 11.5 44.5t44.5 11.5h108v-1475q0 -106 -44 -150.5t-150 -44.5h-183v64z" />
<glyph unicode="K" horiz-adv-x="915" d="M147 0v1378q0 33 11.5 44.5t44.5 11.5h108v-1379q0 -33 -11 -44t-44 -11h-109zM313 745l349 633q27 55 104 56h90l-381 -684l408 -750h-101q-78 0 -104 55z" />
<glyph unicode="L" horiz-adv-x="794" d="M147 0v1378q0 33 11.5 44.5t44.5 11.5h108v-1315h432v-64q0 -33 -11 -44t-44 -11h-541z" />
<glyph unicode="M" horiz-adv-x="1224" d="M147 0v1378q0 33 11.5 44.5t44.5 11.5h94l248 -611l65 -221h4l70 236l223 540q23 55 76 56h94v-1379q0 -33 -11 -44t-44 -11h-109v903l15 203h-4l-78 -188l-168 -420q-25 -55 -68 -56h-61l-187 469l-71 201h-4l14 -209l10 -848q0 -33 -11 -44t-44 -11h-109z" />
<glyph unicode="N" horiz-adv-x="1054" d="M147 0v1378q0 33 11.5 44.5t44.5 11.5h106l371 -875l78 -242h4l-19 244v817q0 33 11.5 44.5t44.5 11.5h108v-1379q0 -33 -11 -44t-44 -11h-84l-389 905l-78 228h-4l14 -230v-848q0 -33 -11 -44t-44 -11h-109z" />
<glyph unicode="O" horiz-adv-x="991" d="M143 195v1044q0 106 44 150.5t151 44.5h315q106 0 150.5 -44t44.5 -151v-1044q0 -106 -44 -150.5t-151 -44.5h-315q-106 0 -150.5 44.5t-44.5 150.5zM307 236q0 -68 18.5 -92.5t77.5 -24.5h185q59 0 77.5 24.5t18.5 92.5v962q0 68 -18.5 92.5t-77.5 24.5h-185 q-59 0 -77.5 -24.5t-18.5 -92.5v-962z" />
<glyph unicode="P" horiz-adv-x="911" d="M147 0v1378q0 33 11.5 44.5t44.5 11.5h413q106 0 150.5 -44t44.5 -151v-442q0 -106 -44 -150.5t-151 -44.5h-213q-31 0 -41 11.5t-10 43.5v64h199q59 0 77.5 24.5t18.5 92.5v360q0 68 -18.5 92.5t-77.5 24.5h-240v-1260q0 -33 -11 -44t-44 -11h-109z" />
<glyph unicode="Q" horiz-adv-x="991" d="M143 195v1044q0 106 44 150.5t151 44.5h315q106 0 150.5 -44t44.5 -151v-1044q0 -106 -44 -150.5t-151 -44.5h-114v-16q0 -72 18 -94.5t78 -22.5h88v-64q0 -33 -10.5 -44t-40.5 -11h-78q-88 0 -131 46t-43 149v57h-82q-106 0 -150.5 44.5t-44.5 150.5zM307 236 q0 -68 18.5 -92.5t77.5 -24.5h185q59 0 77.5 24.5t18.5 92.5v962q0 68 -18.5 92.5t-77.5 24.5h-185q-59 0 -77.5 -24.5t-18.5 -92.5v-962z" />
<glyph unicode="R" horiz-adv-x="958" d="M147 0v1378q0 33 11.5 44.5t44.5 11.5h424q106 0 150 -44t44 -151v-360q0 -96 -35.5 -140.5t-117.5 -52.5l206 -686h-104q-33 0 -48 11.5t-26 43.5l-190 629h-103q-31 0 -41 11.5t-10 43.5v64h209q59 0 77.5 24.5t18.5 92.5v278q0 68 -18 92.5t-78 24.5h-250v-1260 q0 -33 -11 -44t-44 -11h-109z" />
<glyph unicode="S" horiz-adv-x="811" d="M121 119h307q59 0 77.5 24.5t18.5 92.5v331q0 68 -19.5 92.5t-84.5 24.5h-105q-106 0 -150 44t-44 151v360q0 106 44 150.5t150 44.5h244q57 0 84 -29t39 -90h-301q-59 0 -77.5 -24.5t-18.5 -92.5v-278q0 -68 18.5 -92.5t77.5 -24.5h113q106 0 150 -44.5t44 -150.5v-413 q0 -106 -44 -150.5t-150 -44.5h-250q-57 0 -84 28.5t-39 90.5z" />
<glyph unicode="T" horiz-adv-x="864" d="M53 1315v63q0 33 11.5 44.5t44.5 11.5h706v-64q0 -33 -11 -44t-44 -11h-246v-1260q0 -33 -11 -44t-44 -11h-109v1315h-297z" />
<glyph unicode="U" horiz-adv-x="1007" d="M145 195v1183q0 33 11.5 44.5t44.5 11.5h108v-1198q0 -68 18.5 -92.5t78.5 -24.5h194q59 0 77.5 24.5t18.5 92.5v1142q0 33 11.5 44.5t44.5 11.5h108v-1239q0 -106 -44 -150.5t-150 -44.5h-326q-106 0 -150.5 44t-44.5 151z" />
<glyph unicode="V" horiz-adv-x="927" d="M63 1378q-2 10 -2 18q0 37 43 38h113l219 -1033l25 -213h4l24 213l205 977q8 33 22.5 44.5t47.5 11.5h108l-294 -1379q-8 -33 -21.5 -44t-46.5 -11h-152z" />
<glyph unicode="W" horiz-adv-x="1415" d="M66 1378q-2 10 -2 19q0 36 42 37h123l183 -1000l30 -244h4l39 244l146 586q8 31 43 31h92l158 -617l53 -244h4l31 244l168 944q6 31 21.5 43.5t47.5 12.5h109l-264 -1379q-8 -33 -21.5 -44t-46.5 -11h-141l-109 434l-80 367h-4l-76 -367l-86 -379q-8 -33 -21 -44t-46 -11 h-133z" />
<glyph unicode="X" horiz-adv-x="894" d="M70 1378q0 33 10 44.5t41 11.5h88l194 -459l43 -133l46 133l194 459h88q31 0 41 -11.5t10 -44.5l-290 -665l288 -658q0 -33 -10 -44t-41 -11h-88l-195 459l-43 125l-40 -125l-195 -459h-88q-31 0 -41 11.5t-10 43.5l288 658z" />
<glyph unicode="Y" horiz-adv-x="839" d="M47 1378q0 33 10 44.5t41 11.5h88l174 -459l58 -172h4l57 170l154 405q10 33 25.5 44.5t48.5 11.5h100l-307 -770v-607q0 -33 -12.5 -45t-45.5 -12h-106v672z" />
<glyph unicode="Z" horiz-adv-x="837" d="M78 55v64l508 1196h-480v63q0 33 10.5 44.5t41.5 11.5h540q31 0 41.5 -11.5t10.5 -44.5v-63l-510 -1196h503v-64q0 -33 -10 -44t-41 -11h-563q-31 0 -41 11.5t-10 43.5z" />
<glyph unicode="[" horiz-adv-x="651" d="M152 -266v1767q0 33 11 44t44 11h366v-118h-258v-1585h258v-119h-421z" />
<glyph unicode="\" horiz-adv-x="790" d="M92 1501q-8 33 0 44t41 11h100l467 -1749q8 -33 0 -44t-41 -11h-100z" />
<glyph unicode="]" horiz-adv-x="651" d="M78 -147h258v1585h-258v118h422v-1767q0 -33 -11.5 -44t-44.5 -11h-366v119z" />
<glyph unicode="^" horiz-adv-x="634" d="M57 1180.5q-8 17.5 6 33.5l150 183q31 37 68 37h120l177 -220q14 -16 5.5 -33.5t-36.5 -17.5h-55l-175 172l-174 -172h-49q-29 0 -37 17.5z" />
<glyph unicode="_" horiz-adv-x="980" d="M49 0h866q33 0 44.5 -11.5t11.5 -43.5v-64h-867q-33 0 -44 11.5t-11 44.5v63z" />
<glyph unicode="`" horiz-adv-x="522" d="M147 1384q0 29 10.5 39.5t41.5 10.5h100l117 -240q10 -10 5 -29.5t-38 -19.5h-53z" />
<glyph unicode="a" d="M104 195v225q0 106 44.5 150t150.5 44h174q57 0 84 -28.5t39 -89.5h-211q-63 0 -90 -27t-27 -90v-143q0 -63 27 -90t90 -27h170v-64q0 -33 -10 -44t-41 -11h-205q-106 0 -150.5 44t-44.5 151zM145 922q12 61 39 89.5t84 28.5h297q106 0 150.5 -44t44.5 -150v-846h-109 q-33 0 -44 11t-11 44v750q0 68 -18.5 92.5t-77.5 24.5h-355z" />
<glyph unicode="b" horiz-adv-x="940" d="M135 0v1378q0 33 11.5 44.5t43.5 11.5h109v-1315h252q59 0 77.5 24.5t18.5 92.5v569q0 68 -18.5 92.5t-77.5 24.5h-211v63q0 33 10 44t41 11h225q106 0 150.5 -44t44.5 -150v-651q0 -106 -44 -150.5t-151 -44.5h-194q-57 0 -84 28.5t-39 90.5v-64q0 -33 -11.5 -44 t-43.5 -11h-109z" />
<glyph unicode="c" horiz-adv-x="727" d="M129 195v651q0 106 44.5 150t150.5 44h266q31 0 41 -11t10 -44v-63h-252q-59 0 -77.5 -25t-18.5 -92v-569q0 -68 18.5 -92.5t77.5 -24.5h252v-64q0 -33 -10 -44t-41 -11h-266q-106 0 -150.5 44t-44.5 151z" />
<glyph unicode="d" horiz-adv-x="937" d="M129 195v651q0 106 44 150t151 44h194q57 0 84 -28.5t39 -89.5h-252q-59 0 -77.5 -25t-18.5 -92v-569q0 -68 18.5 -92.5t77.5 -24.5h211v-64q0 -33 -10 -44t-41 -11h-225q-106 0 -150.5 44t-44.5 151zM641 0v1378q0 33 11 44.5t44 11.5h109v-1379q0 -33 -11.5 -44 t-43.5 -11h-109z" />
<glyph unicode="e" horiz-adv-x="886" d="M129 195v651q0 106 44 150t151 44h266q106 0 150 -44t44 -150v-230q0 -106 -44 -150t-150 -44h-205q-31 0 -41 11t-10 44v64h190q59 0 78 24.5t19 91.5v148q0 63 -27 90t-90 27h-94q-63 0 -90 -27t-27 -90v-569q0 -68 18.5 -92.5t77.5 -24.5h336v-64q0 -33 -10 -44 t-41 -11h-350q-106 0 -150.5 44t-44.5 151z" />
<glyph unicode="f" horiz-adv-x="616" d="M135 0v1239q0 106 44.5 150.5t150.5 44.5h245q31 0 41.5 -11.5t10.5 -44.5v-63h-232q-63 0 -79.5 -20.5t-16.5 -96.5v-158h201q31 0 41 -11t10 -44v-63h-252v-867q0 -33 -11.5 -44t-43.5 -11h-109z" />
<glyph unicode="g" horiz-adv-x="968" d="M129 195v651q0 106 44 150t151 44h194q57 0 84 -28.5t39 -89.5h-252q-59 0 -77.5 -25t-18.5 -92v-569q0 -68 18.5 -92.5t77.5 -24.5h211v-64q0 -33 -10 -44t-41 -11h-225q-106 0 -150.5 44t-44.5 151zM129 -293h416q63 0 79.5 20.5t16.5 96.5v1161q0 33 11.5 44t43.5 11 h109v-1257q0 -106 -44.5 -150.5t-150.5 -44.5h-430q-31 0 -41 11.5t-10 44.5v63z" />
<glyph unicode="h" horiz-adv-x="942" d="M135 0v1378q0 33 11.5 44.5t43.5 11.5h109v-512q12 61 39 89.5t84 28.5h194q106 0 150.5 -44t44.5 -150v-791q0 -33 -11.5 -44t-43.5 -11h-109v805q0 68 -18.5 92.5t-77.5 24.5h-252v-867q0 -33 -11.5 -44t-43.5 -11h-109z" />
<glyph unicode="i" horiz-adv-x="430" d="M125 1151v109q0 33 11 44t44 11h125v-109q0 -33 -11 -44t-44 -11h-125zM133 0v985q0 33 11 44t44 11h109v-985q0 -33 -11.5 -44t-43.5 -11h-109z" />
<glyph unicode="j" horiz-adv-x="432" d="M125 1151v109q0 33 11 44t44 11h125v-109q0 -33 -11 -44t-44 -11h-125zM133 -412v1397q0 33 11.5 44t43.5 11h109v-1282q0 -80 -39 -115.5t-125 -54.5z" />
<glyph unicode="k" horiz-adv-x="856" d="M135 0v1378q0 33 11.5 44.5t43.5 11.5h109v-865l285 414q31 43 47 50q12 5 31 5h137l-338 -469l352 -569h-141q-29 0 -44.5 11.5t-33.5 43.5l-295 514v-514q0 -33 -11.5 -44t-43.5 -11h-109z" />
<glyph unicode="l" horiz-adv-x="452" d="M145 0v1378q0 33 11.5 44.5t44.5 11.5h108v-1379q0 -33 -11 -44t-44 -11h-109z" />
<glyph unicode="m" horiz-adv-x="1427" d="M133 0v985q0 33 11.5 44t43.5 11h109v-118q12 61 38.5 89.5t84.5 28.5h182q106 0 150.5 -44t44.5 -150v-791q0 -33 -11.5 -44t-44.5 -11h-108v805q0 68 -18.5 92.5t-77.5 24.5h-240v-867q0 -33 -11.5 -44t-43.5 -11h-109zM791 922q12 61 38.5 89.5t83.5 28.5h189 q106 0 150 -44t44 -150v-791q0 -33 -11 -44t-44 -11h-108v805q0 68 -18.5 92.5t-78.5 24.5h-245z" />
<glyph unicode="n" horiz-adv-x="940" d="M133 0v985q0 33 11.5 44t43.5 11h109v-118q12 61 39 89.5t84 28.5h194q106 0 150.5 -44t44.5 -150v-791q0 -33 -11.5 -44t-43.5 -11h-109v805q0 68 -18.5 92.5t-77.5 24.5h-252v-867q0 -33 -11.5 -44t-43.5 -11h-109z" />
<glyph unicode="o" horiz-adv-x="933" d="M129 195v651q0 106 44 150t151 44h286q106 0 150.5 -44t44.5 -150v-651q0 -106 -44 -150.5t-151 -44.5h-286q-106 0 -150.5 44t-44.5 151zM293 236q0 -68 18.5 -92.5t77.5 -24.5h156q59 0 77.5 24.5t18.5 92.5v569q0 68 -18.5 92.5t-77.5 24.5h-156q-59 0 -77.5 -25 t-18.5 -92v-569z" />
<glyph unicode="p" horiz-adv-x="937" d="M133 -412v1397q0 33 11.5 44t43.5 11h109v-921h252q59 0 77.5 24.5t18.5 92.5v569q0 68 -18.5 92.5t-77.5 24.5h-211v63q0 33 10 44t41 11h225q106 0 150.5 -44t44.5 -150v-651q0 -106 -44 -150.5t-151 -44.5h-194q-57 0 -84 28.5t-39 90.5v-475q0 -33 -11.5 -44.5 t-43.5 -11.5h-109z" />
<glyph unicode="q" horiz-adv-x="940" d="M129 195v651q0 106 44 150t151 44h194q57 0 84 -28.5t39 -89.5h-252q-59 0 -77.5 -25t-18.5 -92v-569q0 -68 18.5 -92.5t77.5 -24.5h211v-64q0 -33 -10 -44t-41 -11h-225q-106 0 -150.5 44t-44.5 151zM641 -412v1397q0 33 11.5 44t43.5 11h109v-1396q0 -33 -11 -44.5 t-44 -11.5h-109z" />
<glyph unicode="r" horiz-adv-x="634" d="M133 0v985q0 33 11.5 44t43.5 11h109v-118q27 72 55.5 95t87.5 23h80q31 0 41 -11t10 -44v-63h-274v-867q0 -33 -11.5 -44t-43.5 -11h-109z" />
<glyph unicode="s" horiz-adv-x="768" d="M117 55v64h280q59 0 78 24.5t19 92.5v108q0 68 -19 92.5t-78 24.5h-106q-104 0 -139 38t-35 144v203q0 106 44 150t150 44h275q31 0 41 -11t10 -44v-63h-260q-59 0 -77.5 -25t-18.5 -92v-109q0 -76 16 -96t80 -20h106q104 0 139 -38t35 -145v-202q0 -106 -44 -150.5 t-150 -44.5h-295q-31 0 -41 11.5t-10 43.5z" />
<glyph unicode="t" horiz-adv-x="622" d="M135 195v1028q0 33 11.5 44t43.5 11h109v-238h201q31 0 41 -11t10 -44v-63h-252v-686q0 -68 18.5 -92.5t77.5 -24.5h178q-4 -63 -24.5 -91t-77.5 -28h-141q-106 0 -150.5 44t-44.5 151z" />
<glyph unicode="u" horiz-adv-x="940" d="M131 195v790q0 33 11.5 44t43.5 11h109v-804q0 -68 18.5 -92.5t77.5 -24.5h211v-64q0 -33 -10 -44t-41 -11h-225q-106 0 -150.5 44.5t-44.5 150.5zM643 0v985q0 33 11.5 44t43.5 11h109v-985q0 -33 -11 -44t-44 -11h-109z" />
<glyph unicode="v" horiz-adv-x="827" d="M63 985q-2 10 -2 18q0 37 43 37h103l160 -645l47 -243h4l49 243l151 590q8 33 22.5 44t47.5 11h86l-254 -985q-8 -33 -21.5 -44t-45.5 -11h-140z" />
<glyph unicode="w" horiz-adv-x="1103" d="M76 997q-1 6 -1 11q0 30 31 30h123l90 -596l27 -313h4l137 639q10 35 45 37h113l90 -426l43 -250h4l25 315l70 553q4 25 15 33t36 8h96l-123 -987q-6 -51 -51 -51h-154l-86 377l-45 266h-4l-47 -266l-78 -324q-16 -53 -63 -53h-144z" />
<glyph unicode="x" horiz-adv-x="829" d="M76 991q-8 15 -8 26q0 23 41 23h100l139 -268l60 -139h4l61 139l141 268h105q41 0 41 -24q0 -10 -8 -25l-260 -475l264 -467q8 -15 8 -26q0 -23 -41 -23h-100l-160 283l-53 135h-4l-60 -135l-131 -283h-104q-41 0 -41 24q0 10 8 25l241 488z" />
<glyph unicode="y" horiz-adv-x="868" d="M57 985q-2 10 -2 18q0 37 43 37h111l170 -645l55 -241h6l37 225l160 606q8 33 22.5 44t47.5 11h108l-373 -1396q-10 -33 -23 -44.5t-46 -11.5h-109l109 412h-56z" />
<glyph unicode="z" horiz-adv-x="753" d="M78 55v64l354 696l66 107h-402v63q0 33 10.5 44t40.5 11h453q31 0 41 -11t10 -44v-63l-336 -666l-82 -137h418v-64q0 -33 -10 -44t-41 -11h-471q-31 0 -41 11.5t-10 43.5z" />
<glyph unicode="{" horiz-adv-x="743" d="M45 647q0 35 10.5 47.5t42.5 12.5h43q78 0 98.5 19t20.5 95v541q0 106 44 150t151 44h215v-63q0 -33 -10.5 -44t-41.5 -11h-77q-63 0 -90 -27t-27 -90v-479q0 -98 -25.5 -143.5t-89.5 -49.5v-4q63 -4 89 -48t26 -144v-480q0 -63 26.5 -89.5t90.5 -26.5h77 q31 0 41.5 -11.5t10.5 -44.5v-63h-215q-106 0 -150.5 44t-44.5 150v541q0 80 -20.5 97.5t-100.5 17.5h-41q-33 -2 -43 11t-10 48z" />
<glyph unicode="|" horiz-adv-x="466" d="M152 -262v1763q0 33 11 44t44 11h108v-1763q0 -33 -11 -44t-44 -11h-108z" />
<glyph unicode="}" horiz-adv-x="743" d="M74 -199q0 33 10 44.5t41 11.5h78q63 0 89.5 26.5t26.5 89.5v480q0 100 26 144t89 48v4q-63 4 -89 49t-26 144v479q0 63 -26.5 90t-89.5 27h-78q-31 0 -41 11t-10 44v63h215q106 0 150 -44t44 -150v-541q0 -76 20.5 -95t98.5 -19h43q33 0 43 -12.5t10 -47.5t-10 -48 t-43 -11h-41q-80 0 -100.5 -17.5t-20.5 -97.5v-541q0 -106 -44 -150t-150 -44h-215v63z" />
<glyph unicode="~" horiz-adv-x="935" d="M135 643q-68 102 4 170l33 35q76 74 138.5 74t135.5 -74l99 -98q47 -47 75.5 -52.5t75.5 35.5l107 107q68 -102 -4 -170l-33 -35q-76 -74 -138 -74t-136 74l-99 98q-47 47 -75.5 52.5t-75.5 -35.5z" />
<glyph unicode="&#xa1;" horiz-adv-x="458" d="M133 813v109h125q33 0 44 -11.5t11 -44.5v-108h-125q-33 0 -44 11t-11 44zM150 -512v1051q0 33 11 44t44 11h108v-1051q0 -33 -11 -44t-44 -11h-108z" />
<glyph unicode="&#xa2;" horiz-adv-x="868" d="M145 358v652q0 106 44 150t151 44h37v135q0 33 11 44.5t44 11.5h109v-191h84q57 0 83.5 -28.5t39.5 -90.5h-342q-59 0 -78 -24t-19 -92v-570q0 -68 18.5 -92t78.5 -24h342q-12 -61 -39 -90t-84 -29h-84v-109q0 -33 -11.5 -44t-44.5 -11h-108v164h-37q-106 0 -150.5 44 t-44.5 150z" />
<glyph unicode="&#xa3;" horiz-adv-x="907" d="M90 119h191v1120q0 106 44 150.5t150 44.5h195q63 0 90.5 -28t40.5 -91h-260q-63 0 -80 -20.5t-17 -96.5v-276h222q31 0 41 -11.5t10 -44.5v-63h-273v-748q0 -33 -11 -44t-44 -11h-168q-63 0 -91 27.5t-40 91.5zM485 55v64h146q63 0 91 -28t40 -91h-225q-31 0 -41.5 11.5 t-10.5 43.5z" />
<glyph unicode="&#xa4;" horiz-adv-x="1040" d="M111 475l125 125q-14 41 -15 107v245q0 43 6 76l-92 94q-23 23 -22.5 39.5t22.5 38.5l76 76l135 -135q31 6 70 6h200q20 0 54 -4l108 108q23 23 39.5 23t38.5 -23l76 -75l-133 -134q12 -37 12 -90v-245q0 -45 -8 -76l104 -103q23 -23 23 -39t-23 -38l-76 -76l-143 143 q-31 -6 -72 -6h-200q-27 0 -37 2l-115 -115q-23 -23 -39 -23t-39 23zM385 748q0 -63 26.5 -90t90.5 -27h28q63 0 90 26.5t27 90.5v163q0 63 -26.5 90t-90.5 27h-28q-63 0 -90 -26.5t-27 -90.5v-163z" />
<glyph unicode="&#xa5;" horiz-adv-x="1001" d="M109 430v64h309v127h-254q-33 0 -44 11t-11 44v63h280l-260 639q0 33 10 44.5t41 11.5h88l174 -459l58 -172h4l57 170l154 405q10 33 25.5 44.5t47.5 11.5h101l-277 -695h224q33 0 44 -11t11 -44v-63h-309v-127h252q33 0 44 -11.5t11 -44.5v-63h-307v-318 q0 -33 -12.5 -45t-45.5 -12h-106v375h-254q-33 0 -44 11t-11 44z" />
<glyph unicode="&#xa6;" horiz-adv-x="471" d="M154 293q0 33 11 44t44 11h108v-784q0 -33 -11 -44.5t-44 -11.5h-108v785zM154 717v784q0 33 11 44t44 11h108v-784q0 -33 -11 -44t-44 -11h-108z" />
<glyph unicode="&#xa7;" horiz-adv-x="856" d="M123 598v147q0 78 39 114t125 54v-274q0 -68 18.5 -92.5t77.5 -24.5h156q106 0 150 -44t44 -150v-131q0 -106 -44 -150.5t-150 -44.5h-232q-57 0 -83.5 28.5t-39.5 90.5h289q59 0 77.5 24.5t18.5 92.5v49q0 68 -18.5 92t-77.5 24h-156q-106 0 -150 44.5t-44 150.5z M123 1108v131q0 106 44 150.5t150 44.5h232q57 0 83.5 -29t39.5 -90h-289q-59 0 -77.5 -24.5t-18.5 -92.5v-49q0 -68 18.5 -92.5t77.5 -24.5h156q106 0 150 -44t44 -150v-148q0 -78 -39 -113.5t-125 -54.5v275q0 68 -18.5 92t-77.5 24h-156q-106 0 -150 44t-44 151z" />
<glyph unicode="&#xa8;" horiz-adv-x="700" d="M123 1284v109h125q33 0 44 -11.5t11 -44.5v-108h-125q-33 0 -44 11t-11 44zM397 1284v109h125q33 0 44.5 -11.5t11.5 -44.5v-108h-125q-33 0 -44.5 11t-11.5 44z" />
<glyph unicode="&#xa9;" horiz-adv-x="1380" d="M143 195v1044q0 106 44 150.5t151 44.5h704q106 0 150.5 -44t44.5 -151v-1044q0 -106 -44 -150.5t-151 -44.5h-704q-106 0 -150.5 44.5t-44.5 150.5zM307 236q0 -68 18.5 -92.5t77.5 -24.5h574q59 0 77.5 24.5t18.5 92.5v962q0 68 -18.5 92.5t-77.5 24.5h-574 q-59 0 -77.5 -24.5t-18.5 -92.5v-962zM430 434v570q0 106 44.5 150t150.5 44h245q31 0 41.5 -11t10.5 -44v-64h-232q-59 0 -77.5 -24.5t-18.5 -91.5v-488q0 -68 18.5 -92.5t77.5 -24.5h232v-63q0 -33 -10.5 -44t-41.5 -11h-245q-106 0 -150.5 44t-44.5 150z" />
<glyph unicode="&#xaa;" horiz-adv-x="806" d="M109 809v125q0 106 44 150t150 44h203v70q0 68 -18.5 92.5t-77.5 24.5h-260q12 61 38.5 90t83.5 29h203q106 0 150.5 -44t44.5 -151v-625h-109q-33 0 -44 11.5t-11 44.5v340h-127q-63 0 -90 -27t-27 -90v-43q0 -63 26.5 -90t90.5 -27h86v-63q0 -33 -10 -44.5t-41 -11.5 h-111q-106 0 -150 44t-44 151z" />
<glyph unicode="&#xab;" horiz-adv-x="911" d="M94 598v20l344 340q27 -55 6.5 -117.5t-67.5 -109.5l-119 -119v-4l117 -119q47 -49 67.5 -110.5t-8.5 -118.5zM412 598v20l344 340q27 -55 6 -117.5t-68 -109.5l-119 -119v-4l117 -119q47 -49 67.5 -110.5t-7.5 -118.5z" />
<glyph unicode="&#xac;" d="M139 735v64h559q33 0 44.5 -10.5t11.5 -40.5v-281h-109q-33 0 -44 10t-11 41v162h-395q-33 0 -44.5 11t-11.5 44z" />
<glyph unicode="&#xad;" horiz-adv-x="884" d="M135 739v64h559q33 0 44.5 -11.5t11.5 -43.5v-64h-560q-33 0 -44 11t-11 44z" />
<glyph unicode="&#xae;" horiz-adv-x="1380" d="M143 195v1044q0 106 44 150.5t151 44.5h704q106 0 150.5 -44t44.5 -151v-1044q0 -106 -44 -150.5t-151 -44.5h-704q-106 0 -150.5 44.5t-44.5 150.5zM307 236q0 -68 18.5 -92.5t77.5 -24.5h574q59 0 77.5 24.5t18.5 92.5v962q0 68 -18.5 92.5t-77.5 24.5h-574 q-59 0 -77.5 -24.5t-18.5 -92.5v-962zM420 242v901q0 33 11 44t44 11h287q106 0 150 -44t44 -150v-136q0 -86 -28.5 -131t-93.5 -57l133 -438h-84q-33 0 -48.5 11t-25.5 44l-115 377h-131v-377q0 -33 -11 -44t-44 -11h-88zM563 772h154q59 0 77.5 24.5t18.5 92.5v74 q0 68 -18.5 92t-77.5 24h-154v-307z" />
<glyph unicode="&#xaf;" horiz-adv-x="829" d="M96 1270v63h559q33 0 44.5 -11t11.5 -44v-64h-559q-33 0 -44.5 11.5t-11.5 44.5z" />
<glyph unicode="&#xb0;" horiz-adv-x="804" d="M92 1151q0 129 91 220t218 91q129 0 220.5 -91t91.5 -220q0 -127 -91.5 -218t-220.5 -91q-127 0 -218 91t-91 218zM215 1151q0 -78 54.5 -133t131.5 -55q80 0 134.5 55t54.5 133q0 80 -54.5 135t-134.5 55q-78 0 -132 -56t-54 -134z" />
<glyph unicode="&#xb1;" d="M139 326v63h559q33 0 44.5 -11t11.5 -44v-64h-559q-33 0 -44.5 11.5t-11.5 44.5zM139 739v64h248v190q0 33 11 44.5t44 11.5h64v-246h192q33 0 44.5 -11.5t11.5 -43.5v-64h-248v-195q0 -33 -11.5 -44t-43.5 -11h-64v250h-192q-33 0 -44.5 11.5t-11.5 43.5z" />
<glyph unicode="&#xb2;" horiz-adv-x="720" d="M115 1315q12 61 38.5 90t84.5 29h161q106 0 150.5 -44t44.5 -151v-117q0 -57 -40 -114.5t-135 -152.5t-120 -122h295v-63q0 -33 -11 -44.5t-44 -11.5h-422v119q84 92 162.5 172t101 104.5t36 54.5t13.5 79v55q0 68 -18.5 92.5t-77.5 24.5h-219z" />
<glyph unicode="&#xb3;" horiz-adv-x="708" d="M109 733h219q61 0 78.5 33t17.5 131q0 63 -26.5 90t-90.5 27h-96v63q0 33 11 44.5t44 11.5h76q82 4 82 75q0 57 -18.5 82t-77.5 25h-219q12 61 38.5 90t83.5 29h162q104 0 149.5 -44t45.5 -141q0 -78 -25.5 -114.5t-87.5 -49.5v-4q113 -31 113 -184q0 -164 -43 -223.5 t-152 -59.5h-162q-57 0 -83.5 29t-38.5 90z" />
<glyph unicode="&#xb4;" horiz-adv-x="522" d="M97 1164.5q-5 19.5 5 29.5l117 240h109q31 0 41 -10.5t10 -39.5l-191 -239h-53q-33 0 -38 19.5z" />
<glyph unicode="&#xb5;" horiz-adv-x="872" d="M150 -412v1278q0 33 11 44.5t44 11.5h108v-711q2 -51 21.5 -71.5t75.5 -20.5h137v-64q0 -33 -10.5 -44t-40.5 -11h-183v-356q0 -33 -11 -44.5t-44 -11.5h-108zM588 0v866q0 33 11 44.5t44 11.5h109v-867q0 -33 -11.5 -44t-44.5 -11h-108z" />
<glyph unicode="&#x3bc;" horiz-adv-x="872" d="M150 -412v1278q0 33 11 44.5t44 11.5h108v-711q2 -51 21.5 -71.5t75.5 -20.5h137v-64q0 -33 -10.5 -44t-40.5 -11h-183v-356q0 -33 -11 -44.5t-44 -11.5h-108zM588 0v866q0 33 11 44.5t44 11.5h109v-867q0 -33 -11.5 -44t-44.5 -11h-108z" />
<glyph unicode="&#xb6;" horiz-adv-x="950" d="M104 961v278q0 106 44.5 150.5t150.5 44.5h164q33 0 44 -11.5t11 -44.5v-1378h-108q-33 0 -44.5 11.5t-11.5 43.5v711h-55q-106 0 -150.5 44t-44.5 151zM633 0v1378q0 33 11 44.5t44 11.5h109v-1379q0 -33 -11.5 -44t-44.5 -11h-108z" />
<glyph unicode="&#xb7;" horiz-adv-x="495" d="M119 620.5q0 139.5 129 139.5t129 -139.5t-129 -139.5t-129 139.5z" />
<glyph unicode="&#xb8;" horiz-adv-x="514" d="M209 8q0 33 11 44t44 11h64v-213q0 -33 -11.5 -44t-44.5 -11h-63v213z" />
<glyph unicode="&#xb9;" horiz-adv-x="440" d="M137 614v650q0 80 39 116t125 54v-764q0 -33 -11 -44.5t-44 -11.5h-109z" />
<glyph unicode="&#xba;" horiz-adv-x="815" d="M127 809v430q0 106 44 150.5t151 44.5h172q106 0 150 -44t44 -151v-430q0 -106 -44 -150.5t-150 -44.5h-172q-106 0 -150.5 44t-44.5 151zM291 850q0 -68 18.5 -92.5t77.5 -24.5h41q59 0 77.5 24.5t18.5 92.5v348q0 68 -18.5 92.5t-77.5 24.5h-41q-59 0 -77.5 -24.5 t-18.5 -92.5v-348z" />
<glyph unicode="&#xbb;" horiz-adv-x="911" d="M147.5 840.5q-20.5 62.5 6.5 117.5l344 -340v-20l-340 -338q-29 57 -8.5 118.5t67.5 110.5l117 119v4l-119 119q-47 47 -67.5 109.5zM464.5 840.5q-20.5 62.5 6.5 117.5l344 -340v-20l-340 -338q-29 57 -8.5 118.5t68.5 110.5l116 119v4l-119 119q-47 47 -67.5 109.5z " />
<glyph unicode="&#xbc;" horiz-adv-x="1402" d="M137 614v650q0 80 39 116t125 54v-764q0 -33 -11 -44.5t-44 -11.5h-109zM168 0l686 1407q14 33 31.5 44t50.5 11h108l-686 -1407q-14 -33 -31.5 -44t-50.5 -11h-108zM745 215v64l248 540h187v-540h131q-12 -63 -40 -91t-91 -28v-103q0 -33 -11.5 -44t-44.5 -11h-98v158 h-225q-33 0 -44.5 11t-11.5 44zM877 279h149v317h-4z" />
<glyph unicode="&#xbd;" horiz-adv-x="1394" d="M127 614v650q0 80 39 116t125 54v-764q0 -33 -11.5 -44.5t-43.5 -11.5h-109zM158 0l686 1407q14 33 31.5 44t50.5 11h108l-686 -1407q-14 -33 -31.5 -44t-50.5 -11h-108zM809 700q12 61 38.5 90t84.5 29h162q106 0 150 -44t44 -150v-117q0 -57 -40 -114.5t-135 -153 t-120 -121.5h295v-64q0 -33 -11 -44t-44 -11h-422v119q84 92 163 172t101.5 104.5t35.5 54t13 78.5v56q0 68 -18.5 92t-77.5 24h-219z" />
<glyph unicode="&#xbe;" horiz-adv-x="1656" d="M111 733h219q61 0 78.5 33t17.5 131q0 63 -26.5 90t-90.5 27h-96v63q0 33 11 44.5t44 11.5h76q82 4 82 75q0 57 -18.5 82t-77.5 25h-219q12 61 38.5 90t83.5 29h162q104 0 149.5 -44t45.5 -141q0 -78 -25.5 -114.5t-87.5 -49.5v-4q113 -31 113 -184q0 -164 -43 -223.5 t-152 -59.5h-162q-57 0 -83.5 29t-38.5 90zM422 0l686 1407q14 33 31.5 44t50.5 11h108l-686 -1407q-14 -33 -31.5 -44t-50.5 -11h-108zM999 215v64l248 540h187v-540h131q-12 -63 -40 -91t-91 -28v-103q0 -33 -11.5 -44t-44.5 -11h-98v158h-225q-33 0 -44.5 11t-11.5 44z M1130 279h150v317h-4z" />
<glyph unicode="&#xbf;" horiz-adv-x="825" d="M109 8q0 106 45 150.5t155 44.5q57 2 81 29.5t24 86.5v222q0 33 11 44t44 11h109v-317q0 -106 -44.5 -150.5t-150.5 -44.5q-59 0 -85 -26.5t-26 -90.5v-241q0 -63 27 -90t90 -27h346q-27 -72 -55.5 -95.5t-87.5 -23.5h-289q-106 0 -150 44t-44 151v323zM397 815v109h125 q33 0 44.5 -11.5t11.5 -44.5v-108h-125q-33 0 -44.5 11t-11.5 44z" />
<glyph unicode="&#xc0;" horiz-adv-x="976" d="M147 0v1239q0 106 44.5 150.5t150.5 44.5h295q106 0 150 -44t44 -151v-1184q0 -33 -11 -44t-44 -11h-108v1198q0 63 -16.5 89t-67.5 28h-189q-53 -2 -68.5 -27.5t-15.5 -89.5v-395h316v-64q0 -33 -10.5 -44t-41.5 -11h-264v-629q0 -33 -11 -44t-44 -11h-109zM279 1737 q0 29 10 39t41 10h100l117 -240q10 -10 5 -29.5t-38 -19.5h-53z" />
<glyph unicode="&#xc1;" horiz-adv-x="976" d="M147 0v1239q0 106 44.5 150.5t150.5 44.5h295q106 0 150 -44t44 -151v-1184q0 -33 -11 -44t-44 -11h-108v1198q0 63 -16.5 89t-67.5 28h-189q-53 -2 -68.5 -27.5t-15.5 -89.5v-395h316v-64q0 -33 -10.5 -44t-41.5 -11h-264v-629q0 -33 -11 -44t-44 -11h-109zM464 1516.5 q-5 19.5 5 29.5l117 240h108q31 0 41 -10t10 -39l-190 -240h-53q-33 0 -38 19.5z" />
<glyph unicode="&#xc2;" horiz-adv-x="976" d="M147 0v1239q0 106 44.5 150.5t150.5 44.5h295q106 0 150 -44t44 -151v-1184q0 -33 -11 -44t-44 -11h-108v1198q0 63 -16.5 89t-67.5 28h-189q-53 -2 -68.5 -27.5t-15.5 -89.5v-395h316v-64q0 -33 -10.5 -44t-41.5 -11h-264v-629q0 -33 -11 -44t-44 -11h-109zM246 1533 q-8 17 6 34l149 182q31 37 68 37h121l176 -219q14 -16 6 -33.5t-37 -17.5h-55l-174 172l-174 -172h-49q-29 0 -37 17z" />
<glyph unicode="&#xc3;" horiz-adv-x="976" d="M147 0v1239q0 106 44.5 150.5t150.5 44.5h295q106 0 150 -44t44 -151v-1184q0 -33 -11 -44t-44 -11h-108v1198q0 63 -16.5 89t-67.5 28h-189q-53 -2 -68.5 -27.5t-15.5 -89.5v-395h316v-64q0 -33 -10.5 -44t-41.5 -11h-264v-629q0 -33 -11 -44t-44 -11h-109zM252 1548v33 q0 121 35 165t110 46q61 0 132 -65.5t108 -65.5q57 0 57 33v51q0 25 11.5 33t37.5 8h41v-33q0 -121 -34.5 -165t-112.5 -44q-47 0 -90 33t-79 64.5t-69 31.5q-57 0 -57 -33v-51q0 -25 -11.5 -33t-37.5 -8h-41z" />
<glyph unicode="&#xc4;" horiz-adv-x="976" d="M147 0v1239q0 106 44.5 150.5t150.5 44.5h295q106 0 150 -44t44 -151v-1184q0 -33 -11 -44t-44 -11h-108v1198q0 63 -16.5 89t-67.5 28h-189q-53 -2 -68.5 -27.5t-15.5 -89.5v-395h316v-64q0 -33 -10.5 -44t-41.5 -11h-264v-629q0 -33 -11 -44t-44 -11h-109zM270 1636 v109h125q33 0 44.5 -11t11.5 -44v-109h-125q-33 0 -44.5 11.5t-11.5 43.5zM545 1636v109h125q33 0 44 -11t11 -44v-109h-125q-33 0 -44 11.5t-11 43.5z" />
<glyph unicode="&#xc5;" horiz-adv-x="976" d="M147 0v1239q0 106 44.5 150.5t150.5 44.5h295q106 0 150 -44t44 -151v-1184q0 -33 -11 -44t-44 -11h-108v1198q0 63 -16.5 89t-67.5 28h-189q-53 -2 -68.5 -27.5t-15.5 -89.5v-395h316v-64q0 -33 -10.5 -44t-41.5 -11h-264v-629q0 -33 -11 -44t-44 -11h-109zM330 1636v80 q0 74 31.5 100.5t109.5 26.5h64q78 0 109.5 -26.5t31.5 -100.5v-80q0 -74 -32 -100.5t-109 -26.5h-64q-78 0 -109.5 27t-31.5 100zM428 1667q0 -59 12.5 -71.5t63.5 -12.5t62.5 12.5t11.5 71.5v19q0 59 -12.5 71t-63.5 12t-62.5 -12t-11.5 -71v-19z" />
<glyph unicode="&#xc6;" horiz-adv-x="1316" d="M147 0v1239q0 106 44.5 150.5t150.5 44.5h881v-64q0 -33 -10.5 -44t-41.5 -11h-340v-512h330v-64q0 -33 -10 -44t-41 -11h-279v-565h392v-64q0 -33 -11.5 -44t-44.5 -11h-499v1315h-273q-53 -2 -68.5 -27.5t-15.5 -89.5v-395h316v-64q0 -33 -10.5 -44t-41.5 -11h-264 v-629q0 -33 -11 -44t-44 -11h-109z" />
<glyph unicode="&#xc7;" horiz-adv-x="798" d="M143 195v1044q0 106 44 150.5t151 44.5h264q57 0 84 -29t39 -90h-322q-59 0 -77.5 -24.5t-18.5 -92.5v-962q0 -68 18.5 -92.5t77.5 -24.5h322v-64q0 -33 -10 -44t-41 -11h-162v-150q0 -33 -11.5 -44t-43.5 -11h-64v205h-55q-106 0 -150.5 44t-44.5 151z" />
<glyph unicode="&#xc8;" horiz-adv-x="796" d="M147 0v1378q0 33 11.5 44.5t44.5 11.5h499v-64q0 -33 -10 -44t-41 -11h-340v-512h330v-64q0 -33 -10 -44t-41 -11h-279v-565h391v-64q0 -33 -11 -44t-44 -11h-500zM217 1794q0 29 10.5 39t40.5 10h101l116 -239q10 -10 5 -30t-37 -20h-54z" />
<glyph unicode="&#xc9;" horiz-adv-x="796" d="M147 0v1378q0 33 11.5 44.5t44.5 11.5h499v-64q0 -33 -10 -44t-41 -11h-340v-512h330v-64q0 -33 -10 -44t-41 -11h-279v-565h391v-64q0 -33 -11 -44t-44 -11h-500zM402 1573.5q-5 19.5 6 30.5l116 239h109q31 0 41 -10t10 -39l-190 -240h-54q-33 0 -38 19.5z" />
<glyph unicode="&#xca;" horiz-adv-x="796" d="M147 0v1378q0 33 11.5 44.5t44.5 11.5h499v-64q0 -33 -10 -44t-41 -11h-340v-512h330v-64q0 -33 -10 -44t-41 -11h-279v-565h391v-64q0 -33 -11 -44t-44 -11h-500zM184 1590.5q-8 17.5 6 33.5l150 182q31 37 68 37h120l177 -219q14 -16 5.5 -33.5t-36.5 -17.5h-56 l-174 172l-174 -172h-49q-29 0 -37 17.5z" />
<glyph unicode="&#xcb;" horiz-adv-x="796" d="M147 0v1378q0 33 11.5 44.5t44.5 11.5h499v-64q0 -33 -10 -44t-41 -11h-340v-512h330v-64q0 -33 -10 -44t-41 -11h-279v-565h391v-64q0 -33 -11 -44t-44 -11h-500zM209 1694v108h125q33 0 44 -11t11 -44v-109h-125q-33 0 -44 11.5t-11 44.5zM483 1694v108h125 q33 0 44.5 -11t11.5 -44v-109h-125q-33 0 -44.5 11.5t-11.5 44.5z" />
<glyph unicode="&#xcc;" horiz-adv-x="458" d="M16 1794q0 29 10.5 39t41.5 10h100l117 -239q10 -10 5 -30t-38 -20h-53zM147 0v1378q0 33 11.5 44.5t44.5 11.5h108v-1379q0 -33 -11 -44t-44 -11h-109z" />
<glyph unicode="&#xcd;" horiz-adv-x="458" d="M147 0v1378q0 33 11.5 44.5t44.5 11.5h108v-1379q0 -33 -11 -44t-44 -11h-109zM202 1573.5q-5 19.5 5 30.5l117 239h108q31 0 41 -10t10 -39l-190 -240h-53q-33 0 -38 19.5z" />
<glyph unicode="&#xce;" horiz-adv-x="458" d="M-17 1590.5q-8 17.5 7 33.5l149 182q31 37 68 37h121l176 -219q14 -16 6 -33.5t-37 -17.5h-55l-174 172l-174 -172h-50q-29 0 -37 17.5zM147 0v1378q0 33 11.5 44.5t44.5 11.5h108v-1379q0 -33 -11 -44t-44 -11h-109z" />
<glyph unicode="&#xcf;" horiz-adv-x="458" d="M8 1694v108h125q33 0 44 -11t11 -44v-109h-125q-33 0 -44 11.5t-11 44.5zM147 0v1378q0 33 11.5 44.5t44.5 11.5h108v-1379q0 -33 -11 -44t-44 -11h-109zM283 1694v108h125q33 0 44 -11t11 -44v-109h-125q-33 0 -44 11.5t-11 44.5z" />
<glyph unicode="&#xd0;" horiz-adv-x="1024" d="M33 684v64q0 33 11 44t44 11h68v575q0 33 11 44.5t44 11.5h475q106 0 150.5 -44t44.5 -151v-1044q0 -106 -44 -150.5t-151 -44.5h-530v684h-123zM319 119h302q59 0 77.5 24.5t18.5 92.5v962q0 68 -18.5 92.5t-77.5 24.5h-302v-512h254q-12 -63 -39.5 -91t-91.5 -28h-123 v-565z" />
<glyph unicode="&#xd1;" horiz-adv-x="1044" d="M147 0v1378q0 33 11.5 44.5t44.5 11.5h106l371 -875l78 -242h4l-19 244v817q0 33 11.5 44.5t44.5 11.5h108v-1379q0 -33 -11 -44t-44 -11h-84l-389 905l-78 228h-4l14 -230v-848q0 -33 -11 -44t-44 -11h-109zM281 1606v32q0 121 34.5 165t110.5 46q61 0 132 -65.5 t108 -65.5q57 0 57 33v51q0 25 11 33t38 8h41v-33q0 -121 -35 -164.5t-112 -43.5q-47 0 -90.5 32.5t-79 64.5t-68.5 32q-57 0 -57 -33v-51q0 -25 -11.5 -33t-37.5 -8h-41z" />
<glyph unicode="&#xd2;" horiz-adv-x="991" d="M143 195v1044q0 106 44 150.5t151 44.5h315q106 0 150.5 -44t44.5 -151v-1044q0 -106 -44 -150.5t-151 -44.5h-315q-106 0 -150.5 44.5t-44.5 150.5zM270 1792q0 29 10.5 39t41.5 10h100l117 -239q10 -8 5 -29t-38 -21h-53zM307 236q0 -68 18.5 -92.5t77.5 -24.5h185 q59 0 77.5 24.5t18.5 92.5v962q0 68 -18.5 92.5t-77.5 24.5h-185q-59 0 -77.5 -24.5t-18.5 -92.5v-962z" />
<glyph unicode="&#xd3;" horiz-adv-x="991" d="M143 195v1044q0 106 44 150.5t151 44.5h315q106 0 150.5 -44t44.5 -151v-1044q0 -106 -44 -150.5t-151 -44.5h-315q-106 0 -150.5 44.5t-44.5 150.5zM307 236q0 -68 18.5 -92.5t77.5 -24.5h185q59 0 77.5 24.5t18.5 92.5v962q0 68 -18.5 92.5t-77.5 24.5h-185 q-59 0 -77.5 -24.5t-18.5 -92.5v-962zM435 1572.5q-5 20.5 5 29.5l117 239h109q31 0 41 -10t10 -39l-191 -240h-53q-33 0 -38 20.5z" />
<glyph unicode="&#xd4;" horiz-adv-x="991" d="M143 195v1044q0 106 44 150.5t151 44.5h315q106 0 150.5 -44t44.5 -151v-1044q0 -106 -44 -150.5t-151 -44.5h-315q-106 0 -150.5 44.5t-44.5 150.5zM241.5 1588.5q-8.5 17.5 6.5 33.5l149 182q31 37 68 37h121l176 -219q14 -16 6 -33.5t-37 -17.5h-55l-174 172 l-174 -172h-49q-29 0 -37.5 17.5zM307 236q0 -68 18.5 -92.5t77.5 -24.5h185q59 0 77.5 24.5t18.5 92.5v962q0 68 -18.5 92.5t-77.5 24.5h-185q-59 0 -77.5 -24.5t-18.5 -92.5v-962z" />
<glyph unicode="&#xd5;" horiz-adv-x="991" d="M143 195v1044q0 106 44 150.5t151 44.5h315q106 0 150.5 -44t44.5 -151v-1044q0 -106 -44 -150.5t-151 -44.5h-315q-106 0 -150.5 44.5t-44.5 150.5zM244 1604v32q0 121 34.5 165t110.5 46q61 0 132 -65.5t108 -65.5q57 0 57 33v51q0 27 11.5 34t37.5 7h41v-33 q0 -121 -34.5 -165t-112.5 -44q-47 0 -90 32t-79 65t-69 33q-57 0 -57 -33v-51q0 -27 -11.5 -34t-37.5 -7h-41zM307 236q0 -68 18.5 -92.5t77.5 -24.5h185q59 0 77.5 24.5t18.5 92.5v962q0 68 -18.5 92.5t-77.5 24.5h-185q-59 0 -77.5 -24.5t-18.5 -92.5v-962z" />
<glyph unicode="&#xd6;" horiz-adv-x="991" d="M143 195v1044q0 106 44 150.5t151 44.5h315q106 0 150.5 -44t44.5 -151v-1044q0 -106 -44 -150.5t-151 -44.5h-315q-106 0 -150.5 44.5t-44.5 150.5zM262 1692v108h125q33 0 44 -11t11 -44v-109h-125q-33 0 -44 11.5t-11 44.5zM307 236q0 -68 18.5 -92.5t77.5 -24.5h185 q59 0 77.5 24.5t18.5 92.5v962q0 68 -18.5 92.5t-77.5 24.5h-185q-59 0 -77.5 -24.5t-18.5 -92.5v-962zM537 1692v108h125q33 0 44 -11t11 -44v-109h-125q-33 0 -44 11.5t-11 44.5z" />
<glyph unicode="&#xd7;" d="M188 567l174 174l-133 136q-41 40 0 79l43 45l174 -176l138 138q23 23 39 22.5t39 -22.5l45 -45l-177 -177l138 -135q41 -41 0 -80l-43 -45l-179 176l-135 -135q-41 -41 -78 0z" />
<glyph unicode="&#xd8;" horiz-adv-x="1060" d="M-12 20l209 316v903q0 106 44 150.5t150 44.5h316q156 0 184 -109l8 12q35 55 90 56h76l-164 -248v-950q0 -106 -44 -150.5t-150 -44.5h-316q-94 0 -139 34t-53 113l-47 -71q-36 -56 -89 -56h-75zM360 236q0 -68 18.5 -92.5t78.5 -24.5h184q59 0 77.5 24.5t18.5 92.5v702 l-377 -567v-135zM360 563l377 572v63q0 68 -18.5 92.5t-77.5 24.5h-184q-59 0 -78 -24.5t-19 -92.5v-635z" />
<glyph unicode="&#xd9;" horiz-adv-x="946" d="M115 195v1183q0 33 11 44.5t44 11.5h109v-1198q0 -68 18 -92.5t78 -24.5h194q59 0 78 24.5t19 92.5v1142q0 33 11 44.5t44 11.5h108v-1239q0 -106 -44 -150.5t-150 -44.5h-326q-106 0 -150 44t-44 151zM256 1794q0 29 10 39t41 10h101l116 -239q10 -10 5 -30t-37 -20h-54 z" />
<glyph unicode="&#xda;" horiz-adv-x="946" d="M115 195v1183q0 33 11 44.5t44 11.5h109v-1198q0 -68 18 -92.5t78 -24.5h194q59 0 78 24.5t19 92.5v1142q0 33 11 44.5t44 11.5h108v-1239q0 -106 -44 -150.5t-150 -44.5h-326q-106 0 -150 44t-44 151zM423 1573.5q-5 19.5 5 30.5l117 239h108q31 0 41.5 -10t10.5 -39 l-191 -240h-53q-33 0 -38 19.5z" />
<glyph unicode="&#xdb;" horiz-adv-x="946" d="M115 195v1183q0 33 11 44.5t44 11.5h109v-1198q0 -68 18 -92.5t78 -24.5h194q59 0 78 24.5t19 92.5v1142q0 33 11 44.5t44 11.5h108v-1239q0 -106 -44 -150.5t-150 -44.5h-326q-106 0 -150 44t-44 151zM219 1590.5q-8 17.5 6 33.5l150 182q31 37 67 37h121l176 -219 q14 -16 6 -33.5t-36 -17.5h-56l-174 172l-174 -172h-49q-29 0 -37 17.5z" />
<glyph unicode="&#xdc;" horiz-adv-x="946" d="M115 195v1183q0 33 11 44.5t44 11.5h109v-1198q0 -68 18 -92.5t78 -24.5h194q59 0 78 24.5t19 92.5v1142q0 33 11 44.5t44 11.5h108v-1239q0 -106 -44 -150.5t-150 -44.5h-326q-106 0 -150 44t-44 151zM246 1694v108h125q33 0 44 -11t11 -44v-109h-125q-33 0 -44 11.5 t-11 44.5zM520 1694v108h125q33 0 44 -11t11 -44v-109h-125q-33 0 -44 11.5t-11 44.5z" />
<glyph unicode="&#xdd;" horiz-adv-x="839" d="M47 1378q0 33 10 44.5t41 11.5h88l174 -459l58 -172h4l57 170l154 405q10 33 25.5 44.5t48.5 11.5h100l-307 -770v-607q0 -33 -12.5 -45t-45.5 -12h-106v672zM345 1557.5q-5 19.5 5 29.5l117 240h108q31 0 41.5 -10t10.5 -39l-191 -240h-53q-33 0 -38 19.5z" />
<glyph unicode="&#xde;" horiz-adv-x="933" d="M147 0v1378q0 33 11.5 44.5t44.5 11.5h108v-426q12 61 39 89.5t84 28.5h203q106 0 150 -44t44 -150v-430q0 -106 -44 -150.5t-150 -44.5h-326v-252q0 -33 -11 -44t-44 -11h-109zM311 426h260q59 0 78 24.5t19 92.5v348q0 68 -18.5 92.5t-78.5 24.5h-260v-582z" />
<glyph unicode="&#xdf;" horiz-adv-x="1030" d="M45 858v64h180v456q0 33 11.5 44.5t44.5 11.5h426q106 0 150 -44t44 -151v-180q0 -160 -113 -187q113 -29 113 -186v-491q0 -106 -44 -150.5t-150 -44.5h-226q-31 0 -41 11.5t-10 43.5v64h211q59 0 77.5 24.5t18.5 92.5v450q0 68 -18.5 92.5t-77.5 24.5h-252v-1260 q0 -33 -11 -44t-44 -11h-109v1315h-129q-31 0 -41 11t-10 44zM389 922h252q59 0 77.5 24.5t18.5 91.5v160q0 68 -18.5 92.5t-77.5 24.5h-252v-393z" />
<glyph unicode="&#xe0;" d="M104 195v225q0 106 44.5 150t150.5 44h174q57 0 84 -28.5t39 -89.5h-211q-63 0 -90 -27t-27 -90v-143q0 -63 27 -90t90 -27h170v-64q0 -33 -10 -44t-41 -11h-205q-106 0 -150.5 44t-44.5 151zM145 922q12 61 39 89.5t84 28.5h297q106 0 150.5 -44t44.5 -150v-846h-109 q-33 0 -44 11t-11 44v750q0 68 -18.5 92.5t-77.5 24.5h-355zM238 1384q0 29 10 39.5t41 10.5h100l117 -240q10 -10 5 -29.5t-38 -19.5h-53z" />
<glyph unicode="&#xe1;" d="M104 195v225q0 106 44.5 150t150.5 44h174q57 0 84 -28.5t39 -89.5h-211q-63 0 -90 -27t-27 -90v-143q0 -63 27 -90t90 -27h170v-64q0 -33 -10 -44t-41 -11h-205q-106 0 -150.5 44t-44.5 151zM145 922q12 61 39 89.5t84 28.5h297q106 0 150.5 -44t44.5 -150v-846h-109 q-33 0 -44 11t-11 44v750q0 68 -18.5 92.5t-77.5 24.5h-355zM402 1164.5q-5 19.5 6 29.5l116 240h109q31 0 41 -10.5t10 -39.5l-190 -239h-54q-33 0 -38 19.5z" />
<glyph unicode="&#xe2;" d="M104 195v225q0 106 44.5 150t150.5 44h174q57 0 84 -28.5t39 -89.5h-211q-63 0 -90 -27t-27 -90v-143q0 -63 27 -90t90 -27h170v-64q0 -33 -10 -44t-41 -11h-205q-106 0 -150.5 44t-44.5 151zM145 922q12 61 39 89.5t84 28.5h297q106 0 150.5 -44t44.5 -150v-846h-109 q-33 0 -44 11t-11 44v750q0 68 -18.5 92.5t-77.5 24.5h-355zM184 1180.5q-8 17.5 6 33.5l150 183q31 37 68 37h120l177 -220q14 -16 5.5 -33.5t-36.5 -17.5h-56l-174 172l-174 -172h-49q-29 0 -37 17.5z" />
<glyph unicode="&#xe3;" d="M104 195v225q0 106 44.5 150t150.5 44h174q57 0 84 -28.5t39 -89.5h-211q-63 0 -90 -27t-27 -90v-143q0 -63 27 -90t90 -27h170v-64q0 -33 -10 -44t-41 -11h-205q-106 0 -150.5 44t-44.5 151zM145 922q12 61 39 89.5t84 28.5h297q106 0 150.5 -44t44.5 -150v-846h-109 q-33 0 -44 11t-11 44v750q0 68 -18.5 92.5t-77.5 24.5h-355zM190 1196v33q0 121 35 165t111 46q61 0 132 -65.5t107 -65.5q57 0 58 32v52q0 25 11 33t38 8h41v-33q0 -121 -35 -165t-113 -44q-47 0 -90 32.5t-78.5 64.5t-68.5 32q-57 0 -57 -33v-51q0 -25 -11.5 -33t-38.5 -8 h-41z" />
<glyph unicode="&#xe4;" d="M104 195v225q0 106 44.5 150t150.5 44h174q57 0 84 -28.5t39 -89.5h-211q-63 0 -90 -27t-27 -90v-143q0 -63 27 -90t90 -27h170v-64q0 -33 -10 -44t-41 -11h-205q-106 0 -150.5 44t-44.5 151zM145 922q12 61 39 89.5t84 28.5h297q106 0 150.5 -44t44.5 -150v-846h-109 q-33 0 -44 11t-11 44v750q0 68 -18.5 92.5t-77.5 24.5h-355zM209 1284v109h125q33 0 44 -11.5t11 -44.5v-108h-125q-33 0 -44 11t-11 44zM483 1284v109h125q33 0 44.5 -11.5t11.5 -44.5v-108h-125q-33 0 -44.5 11t-11.5 44z" />
<glyph unicode="&#xe5;" d="M104 195v225q0 106 44.5 150t150.5 44h174q57 0 84 -28.5t39 -89.5h-211q-63 0 -90 -27t-27 -90v-143q0 -63 27 -90t90 -27h170v-64q0 -33 -10 -44t-41 -11h-205q-106 0 -150.5 44t-44.5 151zM145 922q12 61 39 89.5t84 28.5h297q106 0 150.5 -44t44.5 -150v-846h-109 q-33 0 -44 11t-11 44v750q0 68 -18.5 92.5t-77.5 24.5h-355zM309 1284v80q0 74 32 100.5t110 26.5h63q78 0 109.5 -26.5t31.5 -100.5v-80q0 -74 -31.5 -100.5t-109.5 -26.5h-63q-78 0 -110 26.5t-32 100.5zM408 1315q0 -59 12 -71.5t63.5 -12.5t62.5 12t11 72v18 q0 59 -12.5 71.5t-63.5 12.5t-62 -12.5t-11 -71.5v-18z" />
<glyph unicode="&#xe6;" horiz-adv-x="1374" d="M104 195v225q0 106 44.5 150t150.5 44h195q57 0 83.5 -28.5t38.5 -89.5h-231q-63 0 -90 -27t-27 -90v-143q0 -63 27 -90t90 -27h231q-12 -61 -38.5 -90t-83.5 -29h-195q-106 0 -150.5 44t-44.5 151zM145 922q12 55 75 86.5t130 31.5h236q63 0 112 -24q49 25 113 24h266 q106 0 150.5 -44t44.5 -150v-230q0 -106 -44 -150t-151 -44h-205q-31 0 -41 11t-10 44v64h191q59 0 77.5 24.5t18.5 91.5v148q0 63 -26.5 90t-90.5 27h-94q-63 0 -90 -27t-27 -90v-580q0 -59 20 -82.5t77 -23.5h335v-64q0 -33 -10 -44t-41 -11h-350q-106 0 -150.5 44 t-44.5 151v632q-4 53 -22.5 74t-73.5 21h-375z" />
<glyph unicode="&#xe7;" horiz-adv-x="727" d="M129 195v651q0 106 44.5 150t150.5 44h266q31 0 41 -11t10 -44v-63h-252q-59 0 -77.5 -25t-18.5 -92v-569q0 -68 18.5 -92.5t77.5 -24.5h252v-64q0 -33 -10 -44t-41 -11h-115v-150q0 -33 -11 -44t-44 -11h-64v205h-32q-106 0 -150.5 44t-44.5 151z" />
<glyph unicode="&#xe8;" horiz-adv-x="886" d="M129 195v651q0 106 44 150t151 44h266q106 0 150 -44t44 -150v-230q0 -106 -44 -150t-150 -44h-205q-31 0 -41 11t-10 44v64h190q59 0 78 24.5t19 91.5v148q0 63 -27 90t-90 27h-94q-63 0 -90 -27t-27 -90v-569q0 -68 18.5 -92.5t77.5 -24.5h336v-64q0 -33 -10 -44 t-41 -11h-350q-106 0 -150.5 44t-44.5 151zM244 1384q0 29 10 39.5t41 10.5h100l117 -240q10 -10 5 -29.5t-38 -19.5h-53z" />
<glyph unicode="&#xe9;" horiz-adv-x="886" d="M129 195v651q0 106 44 150t151 44h266q106 0 150 -44t44 -150v-230q0 -106 -44 -150t-150 -44h-205q-31 0 -41 11t-10 44v64h190q59 0 78 24.5t19 91.5v148q0 63 -27 90t-90 27h-94q-63 0 -90 -27t-27 -90v-569q0 -68 18.5 -92.5t77.5 -24.5h336v-64q0 -33 -10 -44 t-41 -11h-350q-106 0 -150.5 44t-44.5 151zM415 1164.5q-5 19.5 5 29.5l117 240h108q31 0 41 -10.5t10 -39.5l-190 -239h-53q-33 0 -38 19.5z" />
<glyph unicode="&#xea;" horiz-adv-x="886" d="M129 195v651q0 106 44 150t151 44h266q106 0 150 -44t44 -150v-230q0 -106 -44 -150t-150 -44h-205q-31 0 -41 11t-10 44v64h190q59 0 78 24.5t19 91.5v148q0 63 -27 90t-90 27h-94q-63 0 -90 -27t-27 -90v-569q0 -68 18.5 -92.5t77.5 -24.5h336v-64q0 -33 -10 -44 t-41 -11h-350q-106 0 -150.5 44t-44.5 151zM196 1180.5q-8 17.5 7 33.5l149 183q31 37 68 37h121l176 -220q14 -16 6 -33.5t-37 -17.5h-55l-174 172l-174 -172h-50q-29 0 -37 17.5z" />
<glyph unicode="&#xeb;" horiz-adv-x="886" d="M129 195v651q0 106 44 150t151 44h266q106 0 150 -44t44 -150v-230q0 -106 -44 -150t-150 -44h-205q-31 0 -41 11t-10 44v64h190q59 0 78 24.5t19 91.5v148q0 63 -27 90t-90 27h-94q-63 0 -90 -27t-27 -90v-569q0 -68 18.5 -92.5t77.5 -24.5h336v-64q0 -33 -10 -44 t-41 -11h-350q-106 0 -150.5 44t-44.5 151zM221 1284v109h125q33 0 44 -11.5t11 -44.5v-108h-125q-33 0 -44 11t-11 44zM496 1284v109h125q33 0 44 -11.5t11 -44.5v-108h-125q-33 0 -44 11t-11 44z" />
<glyph unicode="&#xec;" horiz-adv-x="430" d="M-6 1384q0 29 10 39.5t41 10.5h100l117 -240q10 -10 5 -29.5t-38 -19.5h-53zM133 0v985q0 33 11 44t44 11h109v-985q0 -33 -11.5 -44t-43.5 -11h-109z" />
<glyph unicode="&#xed;" horiz-adv-x="430" d="M133 0v985q0 33 11 44t44 11h109v-985q0 -33 -11.5 -44t-43.5 -11h-109zM179 1164.5q-5 19.5 5 29.5l117 240h109q31 0 41 -10.5t10 -39.5l-191 -239h-53q-33 0 -38 19.5z" />
<glyph unicode="&#xee;" horiz-adv-x="430" d="M-39 1180.5q-8 17.5 6 33.5l150 183q31 37 67 37h121l176 -220q14 -16 6 -33.5t-36 -17.5h-56l-174 172l-174 -172h-49q-29 0 -37 17.5zM133 0v985q0 33 11 44t44 11h109v-985q0 -33 -11.5 -44t-43.5 -11h-109z" />
<glyph unicode="&#xef;" horiz-adv-x="430" d="M-14 1284v109h125q33 0 44 -11.5t11 -44.5v-108h-125q-33 0 -44 11t-11 44zM133 0v985q0 33 11 44t44 11h109v-985q0 -33 -11.5 -44t-43.5 -11h-109zM260 1284v109h125q33 0 44 -11.5t11 -44.5v-108h-125q-33 0 -44 11t-11 44z" />
<glyph unicode="&#xf0;" horiz-adv-x="933" d="M129 195v651q0 106 44 150t151 44h317v123h-96q-33 0 -44.5 11.5t-11.5 44.5v63h152v29q0 68 -18.5 92t-77.5 24h-96q12 61 38.5 90t83.5 29h39q104 0 146.5 -44t42.5 -150v-70h84q33 0 44 -11t11 -44v-64h-139v-968q0 -106 -42 -150.5t-147 -44.5h-286q-106 0 -150.5 44 t-44.5 151zM293 236q0 -68 18.5 -92.5t77.5 -24.5h156q59 0 77.5 24.5t18.5 92.5v686h-252q-59 0 -77.5 -25t-18.5 -92v-569z" />
<glyph unicode="&#xf1;" horiz-adv-x="940" d="M133 0v985q0 33 11.5 44t43.5 11h109v-118q12 61 39 89.5t84 28.5h194q106 0 150.5 -44t44.5 -150v-791q0 -33 -11.5 -44t-43.5 -11h-109v805q0 68 -18.5 92.5t-77.5 24.5h-252v-867q0 -33 -11.5 -44t-43.5 -11h-109zM227 1196v33q0 121 35 165t111 46q61 0 131.5 -65.5 t107.5 -65.5q57 0 58 32v52q0 25 11 33t38 8h41v-33q0 -121 -35 -165t-113 -44q-47 0 -90 32.5t-78.5 64.5t-68.5 32q-58 0 -58 -33v-51q0 -25 -11 -33t-38 -8h-41z" />
<glyph unicode="&#xf2;" horiz-adv-x="933" d="M129 195v651q0 106 44 150t151 44h286q106 0 150.5 -44t44.5 -150v-651q0 -106 -44 -150.5t-151 -44.5h-286q-106 0 -150.5 44t-44.5 151zM246 1384q0 29 10 39.5t41 10.5h100l117 -240q10 -10 5 -29.5t-38 -19.5h-53zM293 236q0 -68 18.5 -92.5t77.5 -24.5h156 q59 0 77.5 24.5t18.5 92.5v569q0 68 -18.5 92.5t-77.5 24.5h-156q-59 0 -77.5 -25t-18.5 -92v-569z" />
<glyph unicode="&#xf3;" horiz-adv-x="933" d="M129 195v651q0 106 44 150t151 44h286q106 0 150.5 -44t44.5 -150v-651q0 -106 -44 -150.5t-151 -44.5h-286q-106 0 -150.5 44t-44.5 151zM293 236q0 -68 18.5 -92.5t77.5 -24.5h156q59 0 77.5 24.5t18.5 92.5v569q0 68 -18.5 92.5t-77.5 24.5h-156q-59 0 -77.5 -25 t-18.5 -92v-569zM431 1164.5q-5 19.5 5 29.5l117 240h109q31 0 41 -10.5t10 -39.5l-191 -239h-53q-33 0 -38 19.5z" />
<glyph unicode="&#xf4;" horiz-adv-x="933" d="M129 195v651q0 106 44 150t151 44h286q106 0 150.5 -44t44.5 -150v-651q0 -106 -44 -150.5t-151 -44.5h-286q-106 0 -150.5 44t-44.5 151zM213 1180.5q-8 17.5 6 33.5l150 183q31 37 67 37h121l176 -220q14 -16 6 -33.5t-37 -17.5h-55l-174 172l-174 -172h-49 q-29 0 -37 17.5zM293 236q0 -68 18.5 -92.5t77.5 -24.5h156q59 0 77.5 24.5t18.5 92.5v569q0 68 -18.5 92.5t-77.5 24.5h-156q-59 0 -77.5 -25t-18.5 -92v-569z" />
<glyph unicode="&#xf5;" horiz-adv-x="933" d="M129 195v651q0 106 44 150t151 44h286q106 0 150.5 -44t44.5 -150v-651q0 -106 -44 -150.5t-151 -44.5h-286q-106 0 -150.5 44t-44.5 151zM219 1196v33q0 121 35 165t111 46q61 0 131.5 -65.5t107.5 -65.5q57 0 58 32v52q0 25 11 33t38 8h41v-33q0 -121 -35 -165 t-113 -44q-47 0 -90 32.5t-79 64.5t-68 32q-58 0 -58 -33v-51q0 -25 -11 -33t-38 -8h-41zM293 236q0 -68 18.5 -92.5t77.5 -24.5h156q59 0 77.5 24.5t18.5 92.5v569q0 68 -18.5 92.5t-77.5 24.5h-156q-59 0 -77.5 -25t-18.5 -92v-569z" />
<glyph unicode="&#xf6;" horiz-adv-x="933" d="M129 195v651q0 106 44 150t151 44h286q106 0 150.5 -44t44.5 -150v-651q0 -106 -44 -150.5t-151 -44.5h-286q-106 0 -150.5 44t-44.5 151zM238 1284v109h124q33 0 44.5 -11.5t11.5 -44.5v-108h-125q-33 0 -44 11t-11 44zM293 236q0 -68 18.5 -92.5t77.5 -24.5h156 q59 0 77.5 24.5t18.5 92.5v569q0 68 -18.5 92.5t-77.5 24.5h-156q-59 0 -77.5 -25t-18.5 -92v-569zM512 1284v109h125q33 0 44 -11.5t11 -44.5v-108h-125q-33 0 -44 11t-11 44z" />
<glyph unicode="&#xf7;" d="M139 735v64h559q33 0 44.5 -11.5t11.5 -44.5v-63h-559q-33 0 -44.5 11t-11.5 44zM342 362v109h125q33 0 44 -11t11 -44v-109h-125q-33 0 -44 11.5t-11 43.5zM342 1018v108h125q33 0 44 -11t11 -44v-108h-125q-33 0 -44 11t-11 44z" />
<glyph unicode="&#xf8;" horiz-adv-x="989" d="M-27 0l191 227v619q0 106 44 150t150 44h287q137 0 174 -79l19 22q45 55 100 55h82l-180 -215v-628q0 -106 -44 -150.5t-151 -44.5h-287q-143 0 -178 88l-26 -33q-45 -55 -99 -55h-82zM328 236q0 -68 18.5 -92.5t77.5 -24.5h156q59 0 77.5 24.5t18.5 92.5v415l-348 -413 v-2zM328 399l348 414q-2 61 -20.5 85t-75.5 24h-156q-59 0 -77.5 -25t-18.5 -92v-406z" />
<glyph unicode="&#xf9;" horiz-adv-x="940" d="M131 195v790q0 33 11.5 44t43.5 11h109v-804q0 -68 18.5 -92.5t77.5 -24.5h211v-64q0 -33 -10 -44t-41 -11h-225q-106 0 -150.5 44.5t-44.5 150.5zM315 1384q0 29 10.5 39.5t41.5 10.5h100l117 -240q10 -10 5 -29.5t-38 -19.5h-53zM643 0v985q0 33 11.5 44t43.5 11h109 v-985q0 -33 -11 -44t-44 -11h-109z" />
<glyph unicode="&#xfa;" horiz-adv-x="940" d="M131 195v790q0 33 11.5 44t43.5 11h109v-804q0 -68 18.5 -92.5t77.5 -24.5h211v-64q0 -33 -10 -44t-41 -11h-225q-106 0 -150.5 44.5t-44.5 150.5zM396 1164.5q-5 19.5 5 29.5l117 240h109q31 0 41 -10.5t10 -39.5l-191 -239h-53q-33 0 -38 19.5zM643 0v985q0 33 11.5 44 t43.5 11h109v-985q0 -33 -11 -44t-44 -11h-109z" />
<glyph unicode="&#xfb;" horiz-adv-x="940" d="M131 195v790q0 33 11.5 44t43.5 11h109v-804q0 -68 18.5 -92.5t77.5 -24.5h211v-64q0 -33 -10 -44t-41 -11h-225q-106 0 -150.5 44.5t-44.5 150.5zM223 1180.5q-8 17.5 6 33.5l150 183q31 37 67 37h121l176 -220q14 -16 6 -33.5t-36 -17.5h-56l-174 172l-174 -172h-49 q-29 0 -37 17.5zM643 0v985q0 33 11.5 44t43.5 11h109v-985q0 -33 -11 -44t-44 -11h-109z" />
<glyph unicode="&#xfc;" horiz-adv-x="940" d="M131 195v790q0 33 11.5 44t43.5 11h109v-804q0 -68 18.5 -92.5t77.5 -24.5h211v-64q0 -33 -10 -44t-41 -11h-225q-106 0 -150.5 44.5t-44.5 150.5zM242 1284v109h125q33 0 44 -11.5t11 -44.5v-108h-125q-33 0 -44 11t-11 44zM516 1284v109h125q33 0 44 -11.5t11 -44.5 v-108h-125q-33 0 -44 11t-11 44zM643 0v985q0 33 11.5 44t43.5 11h109v-985q0 -33 -11 -44t-44 -11h-109z" />
<glyph unicode="&#xfd;" horiz-adv-x="868" d="M57 985q-12 55 41 55h111l170 -645l55 -241h6l37 225l160 606q8 33 22.5 44t47.5 11h108l-373 -1396q-10 -33 -23 -44.5t-46 -11.5h-109l109 412h-56zM339 1164.5q-5 19.5 5 29.5l117 240h108q31 0 41.5 -10.5t10.5 -39.5l-191 -239h-53q-33 0 -38 19.5z" />
<glyph unicode="&#xfe;" horiz-adv-x="940" d="M135 -412v1790q0 33 11.5 44.5t43.5 11.5h109v-512q12 61 39 89.5t84 28.5h194q106 0 150.5 -44t44.5 -150v-651q0 -106 -44.5 -150.5t-150.5 -44.5h-225q-31 0 -41 11.5t-10 43.5v64h211q59 0 77.5 24.5t18.5 92.5v569q0 68 -18.5 92.5t-77.5 24.5h-252v-1278 q0 -33 -11.5 -44.5t-43.5 -11.5h-109z" />
<glyph unicode="&#xff;" horiz-adv-x="868" d="M57 985q-12 55 41 55h111l170 -645l55 -241h6l37 225l160 606q8 33 22.5 44t47.5 11h108l-373 -1396q-10 -33 -23 -44.5t-46 -11.5h-109l109 412h-56zM219 1284v109h125q33 0 44 -11.5t11 -44.5v-108h-125q-33 0 -44 11t-11 44zM494 1284v109h124q33 0 44.5 -11.5 t11.5 -44.5v-108h-125q-33 0 -44 11t-11 44z" />
<glyph unicode="&#x152;" horiz-adv-x="1333" d="M143 195v1044q0 106 44 150.5t151 44.5h901v-64q0 -33 -10 -44t-41 -11h-340v-512h330v-64q0 -33 -10.5 -44t-41.5 -11h-278v-565h391v-64q0 -33 -11 -44t-44 -11h-846q-106 0 -150.5 44t-44.5 151zM307 236q0 -68 18.5 -92.5t77.5 -24.5h185q59 0 77.5 24.5t18.5 92.5 v962q0 68 -18.5 92.5t-77.5 24.5h-185q-59 0 -77.5 -24.5t-18.5 -92.5v-962z" />
<glyph unicode="&#x153;" horiz-adv-x="1398" d="M129 195v651q0 106 44 150t151 44h249q68 0 129 -30q45 31 134 30h266q106 0 150 -44t44 -150v-230q0 -106 -44 -150t-150 -44h-205q-31 0 -41 11t-10 44v64h190q59 0 78 24.5t19 91.5v148q0 63 -27 90t-90 27h-94q-115 0 -117 -105v-581q0 -68 18.5 -92.5t77.5 -24.5 h336v-64q0 -33 -10 -44t-41 -11h-350q-88 0 -131 29q-47 -29 -115 -29h-266q-106 0 -150.5 44t-44.5 151zM293 236q0 -68 18.5 -92.5t77.5 -24.5h156q59 0 77.5 24.5t18.5 92.5v591q-4 53 -22.5 74t-73.5 21h-156q-59 0 -77.5 -25t-18.5 -92v-569z" />
<glyph unicode="&#x178;" horiz-adv-x="839" d="M225 1611v109h125q33 0 44 -11.5t11 -44.5v-108h-125q-33 0 -44 11t-11 44zM499 1611v109h125q33 0 44.5 -11.5t11.5 -44.5v-108h-125q-33 0 -44.5 11t-11.5 44zM47 1378q0 33 10 44.5t41 11.5h88l174 -459l58 -172h4l57 170l154 405q10 33 25.5 44.5t48.5 11.5h100 l-307 -770v-607q0 -33 -12.5 -45t-45.5 -12h-106v672z" />
<glyph unicode="&#x2c6;" horiz-adv-x="757" d="M117 1180.5q-8 17.5 6 33.5l149 183q31 37 68 37h121l176 -220q14 -16 6 -33.5t-37 -17.5h-55l-174 172l-174 -172h-49q-29 0 -37 17.5z" />
<glyph unicode="&#x2dc;" horiz-adv-x="778" d="M135 1196v33q0 121 35 165t111 46q61 0 131.5 -65.5t107.5 -65.5q57 0 58 32v52q0 25 11 33t38 8h41v-33q0 -121 -35 -165t-113 -44q-59 0 -130 64.5t-107 64.5q-58 0 -58 -33v-51q0 -25 -11 -33t-38 -8h-41z" />
<glyph unicode="&#x2000;" horiz-adv-x="924" />
<glyph unicode="&#x2001;" horiz-adv-x="1849" />
<glyph unicode="&#x2002;" horiz-adv-x="924" />
<glyph unicode="&#x2003;" horiz-adv-x="1849" />
<glyph unicode="&#x2004;" horiz-adv-x="616" />
<glyph unicode="&#x2005;" horiz-adv-x="462" />
<glyph unicode="&#x2006;" horiz-adv-x="308" />
<glyph unicode="&#x2007;" horiz-adv-x="308" />
<glyph unicode="&#x2008;" horiz-adv-x="231" />
<glyph unicode="&#x2009;" horiz-adv-x="369" />
<glyph unicode="&#x200a;" horiz-adv-x="102" />
<glyph unicode="&#x2010;" horiz-adv-x="884" d="M135 739v64h559q33 0 44.5 -11.5t11.5 -43.5v-64h-560q-33 0 -44 11t-11 44z" />
<glyph unicode="&#x2011;" horiz-adv-x="884" d="M135 739v64h559q33 0 44.5 -11.5t11.5 -43.5v-64h-560q-33 0 -44 11t-11 44z" />
<glyph unicode="&#x2012;" horiz-adv-x="884" d="M135 739v64h559q33 0 44.5 -11.5t11.5 -43.5v-64h-560q-33 0 -44 11t-11 44z" />
<glyph unicode="&#x2013;" horiz-adv-x="884" d="M135 739v64h559q33 0 44.5 -11.5t11.5 -43.5v-64h-560q-33 0 -44 11t-11 44z" />
<glyph unicode="&#x2014;" horiz-adv-x="1124" d="M109 739v64h874q33 0 44 -11.5t11 -43.5v-64h-874q-33 0 -44 11t-11 44z" />
<glyph unicode="&#x2018;" horiz-adv-x="419" d="M119 1325v154q0 63 28 91t91 40v-176h6q33 0 44 -11.5t11 -44.5v-108h-125q-33 0 -44 11t-11 44z" />
<glyph unicode="&#x2019;" horiz-adv-x="403" d="M106 1325v109h125q33 0 44.5 -11.5t11.5 -44.5v-153q0 -63 -28 -91t-91 -40v176h-6q-33 0 -44.5 11t-11.5 44z" />
<glyph unicode="&#x201a;" horiz-adv-x="440" d="M133 55v109h125q33 0 44 -11.5t11 -43.5v-154q0 -63 -27.5 -91t-90.5 -40v176h-7q-33 0 -44 11.5t-11 43.5z" />
<glyph unicode="&#x201c;" horiz-adv-x="706" d="M119 1325v154q0 63 28 91t91 40v-176h6q33 0 44 -11.5t11 -44.5v-108h-125q-33 0 -44 11t-11 44zM406 1325v154q0 63 27.5 91t90.5 40v-176h6q33 0 44.5 -11.5t11.5 -44.5v-108h-125q-33 0 -44 11t-11 44z" />
<glyph unicode="&#x201d;" horiz-adv-x="690" d="M106 1325v109h125q33 0 44.5 -11.5t11.5 -44.5v-153q0 -63 -28 -91t-91 -40v176h-6q-33 0 -44.5 11t-11.5 44zM393 1325v109h125q33 0 44 -11.5t11 -44.5v-153q0 -63 -27.5 -91t-90.5 -40v176h-6q-33 0 -44.5 11t-11.5 44z" />
<glyph unicode="&#x201e;" horiz-adv-x="727" d="M133 55v109h125q33 0 44 -11.5t11 -43.5v-154q0 -63 -27.5 -91t-90.5 -40v176h-7q-33 0 -44 11.5t-11 43.5zM420 55v109h125q33 0 44 -11.5t11 -43.5v-154q0 -63 -28 -91t-91 -40v176h-6q-33 0 -44 11.5t-11 43.5z" />
<glyph unicode="&#x2022;" horiz-adv-x="583" d="M111 729q0 201 182 201t182 -201t-182 -201t-182 201z" />
<glyph unicode="&#x2026;" horiz-adv-x="1320" d="M1013 55v109h125q33 0 44 -11t11 -44v-109h-125q-33 0 -44 11.5t-11 43.5zM573 55v109h125q33 0 44 -11t11 -44v-109h-125q-33 0 -44 11.5t-11 43.5zM133 55v109h125q33 0 44 -11t11 -44v-109h-125q-33 0 -44 11.5t-11 43.5z" />
<glyph unicode="&#x202f;" horiz-adv-x="369" />
<glyph unicode="&#x2039;" horiz-adv-x="593" d="M94 598v20l344 340q27 -55 6.5 -117.5t-67.5 -109.5l-119 -119v-4l117 -119q47 -49 67.5 -110.5t-8.5 -118.5z" />
<glyph unicode="&#x203a;" horiz-adv-x="593" d="M147.5 840.5q-20.5 62.5 6.5 117.5l344 -340v-20l-340 -338q-29 57 -8.5 118.5t67.5 110.5l117 119v4l-119 119q-47 47 -67.5 109.5z" />
<glyph unicode="&#x205f;" horiz-adv-x="462" />
<glyph unicode="&#x20ac;" horiz-adv-x="929" d="M104 569v64h132v158h-76q-33 0 -44.5 11t-11.5 44v63h132v330q0 106 44 150.5t150 44.5h264q57 0 84 -29t39 -90h-321q-59 0 -78 -24.5t-19 -92.5v-289h265q33 0 44 -11t11 -44v-63h-320v-158h265q33 0 44 -11.5t11 -43.5v-64h-320v-278q0 -68 18.5 -92.5t78.5 -24.5h321 v-64q0 -33 -10 -44t-41 -11h-336q-106 0 -150 44t-44 151v319h-76q-33 0 -44.5 11t-11.5 44z" />
<glyph unicode="&#x2122;" horiz-adv-x="2088" d="M1011 0v1378q0 33 11.5 44.5t44.5 11.5h94l248 -611l65 -221h4l70 236l223 540q23 55 76 56h94v-1379q0 -33 -11 -44t-44 -11h-109v903l15 203h-4l-78 -188l-168 -420q-25 -55 -68 -56h-61l-187 469l-71 201h-4l14 -209l10 -848q0 -33 -11 -44t-44 -11h-109zM53 1315v63 q0 33 11.5 44.5t44.5 11.5h706v-64q0 -33 -11 -44t-44 -11h-246v-1260q0 -33 -11 -44t-44 -11h-109v1315h-297z" />
<glyph unicode="&#xe000;" horiz-adv-x="1040" d="M0 1040h1040v-1040h-1040v1040z" />
<glyph unicode="&#xfb01;" horiz-adv-x="1046" d="M741 1151v109q0 33 11 44t44 11h125v-109q0 -33 -11 -44t-44 -11h-125zM749 0v985q0 33 11 44t44 11h109v-985q0 -33 -11.5 -44t-43.5 -11h-109zM135 0v1239q0 106 44.5 150.5t150.5 44.5h245q31 0 41.5 -11.5t10.5 -44.5v-63h-232q-63 0 -79.5 -20.5t-16.5 -96.5v-158 h201q31 0 41 -11t10 -44v-63h-252v-867q0 -33 -11.5 -44t-43.5 -11h-109z" />
<glyph unicode="&#xfb02;" horiz-adv-x="1068" d="M761 0v1378q0 33 11.5 44.5t44.5 11.5h108v-1379q0 -33 -11 -44t-44 -11h-109zM135 0v1239q0 106 44.5 150.5t150.5 44.5h245q31 0 41.5 -11.5t10.5 -44.5v-63h-232q-63 0 -79.5 -20.5t-16.5 -96.5v-158h201q31 0 41 -11t10 -44v-63h-252v-867q0 -33 -11.5 -44t-43.5 -11 h-109z" />
<glyph unicode="&#xfb03;" horiz-adv-x="1662" d="M1357 1151v109q0 33 11 44t44 11h125v-109q0 -33 -11 -44t-44 -11h-125zM1365 0v985q0 33 11 44t44 11h109v-985q0 -33 -11.5 -44t-43.5 -11h-109zM751 0v1239q0 106 44.5 150.5t150.5 44.5h245q31 0 41.5 -11.5t10.5 -44.5v-63h-232q-63 0 -79.5 -20.5t-16.5 -96.5v-158 h201q31 0 41 -11t10 -44v-63h-252v-867q0 -33 -11.5 -44t-43.5 -11h-109zM135 0v1239q0 106 44.5 150.5t150.5 44.5h245q31 0 41.5 -11.5t10.5 -44.5v-63h-232q-63 0 -79.5 -20.5t-16.5 -96.5v-158h201q31 0 41 -11t10 -44v-63h-252v-867q0 -33 -11.5 -44t-43.5 -11h-109z " />
<glyph unicode="&#xfb04;" horiz-adv-x="1684" d="M1377 0v1378q0 33 11.5 44.5t44.5 11.5h108v-1379q0 -33 -11 -44t-44 -11h-109zM751 0v1239q0 106 44.5 150.5t150.5 44.5h245q31 0 41.5 -11.5t10.5 -44.5v-63h-232q-63 0 -79.5 -20.5t-16.5 -96.5v-158h201q31 0 41 -11t10 -44v-63h-252v-867q0 -33 -11.5 -44 t-43.5 -11h-109zM135 0v1239q0 106 44.5 150.5t150.5 44.5h245q31 0 41.5 -11.5t10.5 -44.5v-63h-232q-63 0 -79.5 -20.5t-16.5 -96.5v-158h201q31 0 41 -11t10 -44v-63h-252v-867q0 -33 -11.5 -44t-43.5 -11h-109z" />
<glyph horiz-adv-x="0" />
</font>
</defs>
</svg>
